{
.appVersion = "3134";
.formatVersion = 3;
DisplayStrings = (
"Aa Bb Cc Dd Ee Ff Gg Hh Ii Jj Kk Ll Mm Nn Oo Pp Qq Rr Ss Tt Uu Vv Ww Xx Yy Zz
0123456789"
);
customParameters = (
{
name = vendorID;
value = ITFO;
},
{
name = panose;
value = (
0,
0,
10,
0,
0,
0,
0,
0,
0,
0
);
},
{
name = unicodeRanges;
value = (
0,
1,
2,
15
);
},
{
name = codePageRanges;
value = (
"1252",
"1250",
"1254",
"1257",
"bit 29"
);
},
{
name = fsType;
value = (
);
},
{
name = glyphOrder;
value = (
.notdef,
.null,
CR,
space,
dvR,
dvKx,
dvGx,
dvJx,
uni20A8,
uni20B9,
uni200C,
uni200D,
uni25CC,
dvEyelash,
dvRashtrasign,
dvKx_RA,
dvGx_RA,
dvJx_RA,
dvKx_R,
dvGx_R,
dvJx_R,
dvKx_KxA,
dvKx_TA,
dvKx_PHA,
dvKx_PHxA,
dvKx_BA,
dvKx_MA,
dvJx_JxA,
dvJx_YA,
dvEyelash_YA,
dvEyelash_HA,
dvmII.aLong,
dvmII_Anusvara,
dvmII_Reph,
dvmII_Reph_Anusvara,
dvmII_Anusvara.aLong,
dvmII_Reph.aLong,
dvmII_Reph_Anusvara.aLong,
dvmE_Anusvara,
dvmE_Reph,
dvmE_Reph_Anusvara,
dvmAI_Anusvara,
dvmAI_Reph,
dvmAI_Reph_Anusvara,
dvmO_Anusvara,
dvmO_Reph,
dvmO_Reph_Anusvara,
dvmAU_Anusvara,
dvmAU_Reph,
dvmAU_Reph_Anusvara,
dvmEcandra_Anusvara,
dvmOcandra_Anusvara,
dvRA_mU,
dvRA_mUU,
dvmI.a01,
dvmI.a02,
dvmI.a03,
dvmI.a04,
dvmI.a05,
dvmI.a06,
dvmI.a07,
dvmI.a08,
dvmI.a09,
dvmI.a10,
dvmI.a11,
dvmI.a12,
dvmI.a13,
dvmI.a14,
dvmI.a15,
dvmI.a16,
dvmI.a17,
dvmI.a18,
dvmI.a19,
dvmI.a20,
dvmI.a21,
dvmI.a22,
dvmI.a23,
dvmI.a24,
exclam,
quotedbl,
numbersign,
dollar,
percent,
ampersand,
quotesingle,
parenleft,
parenright,
asterisk,
plus,
comma,
hyphen,
period,
slash,
zero,
one,
two,
three,
four,
five,
six,
seven,
eight,
nine,
colon,
semicolon,
less,
equal,
greater,
question,
at,
A,
B,
C,
D,
E,
F,
G,
H,
I,
J,
K,
L,
M,
N,
O,
P,
Q,
R,
S,
T,
U,
V,
W,
X,
Y,
Z,
bracketleft,
backslash,
bracketright,
asciicircum,
underscore,
grave,
a,
b,
c,
d,
e,
f,
g,
h,
i,
j,
k,
l,
m,
n,
o,
p,
q,
r,
s,
t,
u,
v,
w,
x,
y,
z,
braceleft,
bar,
braceright,
asciitilde,
uni00A0,
exclamdown,
cent,
sterling,
currency,
yen,
brokenbar,
section,
dieresis,
copyright,
ordfeminine,

glyphs = (
{
glyphname = .notdef;
lastChange = "2022-10-20 15:49:47 +0000";
layers = (
{
layerId = m01;
shapes = (
{
closed = 1;
nodes = (
(-62,0,l),
(438,0,l),
(562,700,l),
(62,700,l)
);
},
{
closed = 1;
nodes = (
(95,605,l),
(220,350,l),
(5,95,l)
);
},
{
closed = 1;
nodes = (
(242,305,l),
(367,50,l),
(27,50,l)
);
},
{
closed = 1;
nodes = (
(473,650,l),
(258,395,l),
(133,650,l)
);
},
{
closed = 1;
nodes = (
(495,605,l),
(405,95,l),
(280,350,l)
);
}
);
userData = {
assembly = "NPUSHB[ ]	/* 56 values pushed */
15 14 13 8 6 5 6 2 3 1 76 4 1 1 0 3 2 1 3 103 5 1 2 0 0 2 87 5 1 2 2 0 95 0 0 2 0 79 7 7 0 0 12 11 7 9 7 9 0 3 0 3 17 6 6 23 
CALL[ ]	/* CallFunction */";
};
width = 500;
}
);
note = ".notdef";
},
{
glyphname = dvR;
lastChange = "2022-10-20 15:49:47 +0000";
layers = (
{
layerId = m01;
shapes = (
{
closed = 1;
nodes = (
(208,-291,l),
(415,-291,l),
(318,-53,l),
(116,-53,l)
);
},
{
closed = 1;
nodes = (
(50,571,l),
(333,571,l),
(329,545,ls),
(319,493,o),
(258,438,o),
(186,438,qs),
(88,438,l),
(47,209,ls),
(36,147,o),
(73,48,o),
(168,-9,o),
(242,-9,qs),
(345,-9,o),
(480,107,o),
(498,206,qs),
(501,232,l),
(306,232,l),
(301,199,ls),
(298,184,o),
(281,164,o),
(268,164,qs),
(241,164,o),
(248,199,qs),
(261,276,l),
(387,283,o),
(512,427,o),
(533,545,qs),
(537,571,l),
(600,571,l),
(630,740,l),
(80,740,l)
);
}
);
userData = {
assembly = "MPPEM[ ]	/* MeasurePixelPerEm */
PUSHB[ ]	/* 1 value pushed */
19 
LT[ ]	/* LessThan */
IF[ ]	/* If */
NPUSHB[ ]	/* 57 values pushed */
0 7 2 3 2 7 3 128 0 3 5 2 3 5 126 0 5 4 4 5 112 11 1 9 8 1 2 7 9 2 103 0 4 0 6 1 4 6 106 10 1 1 0 0 1 87 10 1 1 1 0 95 0 0 1 0 79 
ELSE[ ]	/* Else */
NPUSHB[ ]	/* 58 values pushed */
0 7 2 3 2 7 3 128 0 3 5 2 3 5 126 0 5 4 2 5 4 126 11 1 9 8 1 2 7 9 2 103 0 4 0 6 1 4 6 106 10 1 1 0 0 1 87 10 1 1 1 0 95 0 0 1 0 79 
EIF[ ]	/* EndIf */
NPUSHB[ ]	/* 30 values pushed */
4 4 0 0 4 34 4 34 33 32 29 27 23 21 18 17 14 12 10 9 6 5 0 3 0 3 17 12 6 23 
CALL[ ]	/* CallFunction */";
};
width = 528;
}
);
note = dvR;
},
{
glyphname = dvKx;
lastChange = "2022-10-20 15:49:47 +0000";
layers = (
{
layerId = m01;
shapes = (
{
closed = 1;
nodes = (
(535,0,l),
(582,267,ls),
(588,302,o),
(626,340,o),
(654,340,qs),
(683,340,o),
(705,304,o),
(701,278,q),
(908,278,l),
(919,344,o),
(893,450,o),
(815,513,o),
(751,513,qs),
(669,513,o),
(616,461,q),
(635,571,l),
(959,571,l),
(989,740,l),
(74,740,l),
(44,571,l),
(439,571,l),
(420,461,l),
(385,513,o),
(297,513,qs),
(197,513,o),
(64,384,o),
(46,278,qs),
(34,210,o),
(63,104,o),
(143,43,o),
(206,43,qs),
(299,43,o),
(356,100,q),
(339,0,l)
);
},
{
closed = 1;
nodes = (
(180,-227,o),
(257,-162,o),
(265,-115,qs),
(274,-67,o),
(220,0,o),
(172,0,qs),
(125,0,o),
(47,-67,o),
(38,-115,qs),
(30,-162,o),
(85,-227,o),
(132,-227,qs)
);
},
{
closed = 1;
nodes = (
(278,214,o),
(248,249,o),
(253,277,qs),
(258,305,o),
(302,341,o),
(332,341,qs),
(362,341,o),
(392,307,o),
(388,279,qs),
(383,251,o),
(338,214,o),
(309,214,qs)
);
}
);
userData = {
assembly = "NPUSHB[ ]	/* 11 values pushed */
18 11 2 7 1 0 1 0 12 2 76 
MPPEM[ ]	/* MeasurePixelPerEm */
PUSHB[ ]	/* 1 value pushed */
21 
LT[ ]	/* LessThan */
IF[ ]	/* If */
NPUSHB[ ]	/* 60 values pushed */
0 6 7 12 7 6 114 0 8 0 9 0 8 9 128 0 3 4 1 2 1 3 2 103 5 1 1 11 1 7 6 1 7 105 14 1 12 0 0 8 12 0 105 0 9 10 10 9 89 0 9 9 10 97 13 1 10 9 10 81 
ELSE[ ]	/* Else */
NPUSHB[ ]	/* 61 values pushed */
0 6 7 12 7 6 12 128 0 8 0 9 0 8 9 128 0 3 4 1 2 1 3 2 103 5 1 1 11 1 7 6 1 7 105 14 1 12 0 0 8 12 0 105 0 9 10 10 9 89 0 9 9 10 97 13 1 10 9 10 81 
EIF[ ]	/* EndIf */
NPUSHB[ ]	/* 28 values pushed */
46 46 34 34 46 57 46 56 52 50 34 45 34 44 40 38 19 34 19 34 17 17 18 37 33 15 6 31 
CALL[ ]	/* CallFunction */";
};
width = 677;
}
);
note = dvKx;
},
{
glyphname = dvGx;
lastChange = "2022-10-20 15:49:47 +0000";
layers = (
{
layerId = m01;
shapes = (
{
closed = 1;
nodes = (
(36,571,l),
(339,571,l),
(303,364,ls),
(298,339,o),
(280,308,o),
(261,308,qs),
(242,308,o),
(232,337,o),
(237,364,qs),
(242,396,l),
(45,396,l),
(43,385,o),
(39,363,qs),
(19,250,o),
(123,135,o),
(236,135,qs),
(351,135,o),
(489,265,o),
(508,373,qs),
(543,571,l),
(646,571,l),
(676,740,l),
(66,740,l)
);
},
{
closed = 1;
nodes = (
(236,-135,o),
(313,-70,o),
(322,-23,qs),
(330,25,o),
(276,92,o),
(228,92,qs),
(181,92,o),
(103,25,o),
(95,-23,qs),
(86,-70,o),
(141,-135,o),
(188,-135,qs)
);
}
);
userData = {
assembly = "NPUSHB[ ]	/* 65 values pushed */
0 2 0 3 0 2 3 128 8 1 5 4 1 0 2 5 0 103 0 3 0 1 6 3 1 105 0 6 7 7 6 89 0 6 6 7 97 9 1 7 6 7 81 23 23 0 0 23 34 23 33 29 27 0 22 0 22 19 35 20 35 17 10 6 27 
CALL[ ]	/* CallFunction */";
};
width = 588;
}
);
note = dvGx;
},
{
glyphname = dvJx;
lastChange = "2022-10-20 15:49:47 +0000";
layers = (
{
layerId = m01;
shapes = (
{
closed = 1;
nodes = (
(329,80,o),
(448,138,o),
(526,241,o),
(541,308,q),
(718,308,l),
(748,481,l),
(372,481,l),
(345,325,ls),
(333,258,o),
(287,258,qs),
(239,258,o),
(251,325,qs),
(278,481,l),
(73,481,l),
(45,319,ls),
(25,210,o),
(133,80,o),
(256,80,qs)
);
},
{
closed = 1;
nodes = (
(41,571,l),
(764,571,l),
(794,740,l),
(71,740,l)
);
},
{
closed = 1;
nodes = (
(255,-189,o),
(333,-124,o),
(341,-77,qs),
(349,-29,o),
(295,38,o),
(247,38,qs),
(200,38,o),
(122,-29,o),
(114,-77,qs),
(106,-124,o),
(160,-189,o),
(207,-189,qs)
);
}
);
userData = {
assembly = "NPUSHB[ ]	/* 73 values pushed */
10 1 6 0 5 0 6 5 103 2 1 0 0 3 1 0 3 103 0 1 9 1 4 7 1 4 105 0 7 8 8 7 89 0 7 7 8 97 11 1 8 7 8 81 22 22 18 18 0 0 22 33 22 32 28 26 18 21 18 21 20 19 0 17 0 16 17 18 34 19 12 6 26 
CALL[ ]	/* CallFunction */";
};
width = 553;
}
);
note = dvJx;
},
{
glyphname = uni20A8;
lastChange = "2022-10-20 15:49:47 +0000";
layers = (
{
layerId = m01;
shapes = (
{
closed = 1;
nodes = (
(438,431,o),
(401,402,o),
(369,402,qs),
(281,402,l),
(302,522,l),
(390,522,ls),
(421,522,o),
(449,490,o),
(444,462,qs)
);
},
{
closed = 1;
nodes = (
(-12,0,l),
(210,0,l),
(255,254,l),
(344,0,l),
(588,0,l),
(482,271,l),
(560,295,o),
(659,405,o),
(671,476,qs),
(683,542,o),
(640,647,o),
(529,708,o),
(443,708,qs),
(113,708,l)
);
},
{
closed = 1;
nodes = (
(671,331,o),
(729,260,o),
(819,230,o),
(886,219,qs),
(938,209,o),
(980,194,o),
(978,178,qs),
(974,156,o),
(935,156,qs),
(868,156,o),
(870,195,q),
(653,195,l),
(651,97,o),
(785,-7,o),
(909,-7,qs),
(983,-7,o),
(1098,40,o),
(1168,122,o),
(1177,173,qs),
(1187,233,o),
(1127,304,o),
(1034,334,o),
(966,346,qs),
(915,356,o),
(873,370,o),
(876,385,qs),
(880,407,o),
(924,407,qs),
(985,407,o),
(988,369,q),
(1205,369,l),
(1203,460,o),
(1079,571,o),
(956,571,qs),
(879,571,o),
(760,523,o),
(690,442,o),
(681,393,qs)
);
}
);
userData = {
assembly = "PUSHB[ ]	/* 7 values pushed */
19 16 2 9 6 1 76 
MPPEM[ ]	/* MeasurePixelPerEm */
PUSHB[ ]	/* 1 value pushed */
33 
LT[ ]	/* LessThan */
IF[ ]	/* If */
NPUSHB[ ]	/* 54 values pushed */
0 1 7 6 7 1 6 128 0 6 9 7 6 112 0 9 10 10 9 112 0 0 0 2 95 11 1 2 2 28 77 0 7 7 5 97 0 5 5 37 77 0 10 10 3 96 8 4 2 3 3 29 3 78 
ELSE[ ]	/* Else */
MPPEM[ ]	/* MeasurePixelPerEm */
PUSHB[ ]	/* 1 value pushed */
34 
LT[ ]	/* LessThan */
IF[ ]	/* If */
NPUSHB[ ]	/* 56 values pushed */
0 1 7 6 7 1 6 128 0 6 9 7 6 9 126 0 9 10 7 9 10 126 0 0 0 2 95 11 1 2 2 28 77 0 7 7 5 97 0 5 5 37 77 0 10 10 3 96 8 4 2 3 3 29 3 78 
ELSE[ ]	/* Else */
NPUSHB[ ]	/* 60 values pushed */
0 1 7 6 7 1 6 128 0 6 9 7 6 9 126 0 9 10 7 9 10 126 0 0 0 2 95 11 1 2 2 28 77 0 7 7 5 97 0 5 5 37 77 4 1 3 3 29 77 0 10 10 8 98 0 8 8 35 8 78 
EIF[ ]	/* EndIf */
EIF[ ]	/* EndIf */
NPUSHB[ ]	/* 27 values pushed */
10 9 52 50 49 48 46 44 33 31 30 29 27 25 21 20 18 17 9 22 10 22 33 33 12 8 24 
CALL[ ]	/* CallFunction */";
};
width = 1229;
}
);
note = uni20A8;
unicode = 8360;
},
{
glyphname = uni20B9;
lastChange = "2022-10-20 15:49:47 +0000";
layers = (
{
layerId = m01;
shapes = (
{
closed = 1;
nodes = (
(68,563,l),
(320,563,l),
(314,530,l),
(62,530,l),
(40,406,l),
(286,406,l),
(275,387,o),
(224,370,o),
(130,365,o),
(33,365,q),
(11,242,ls),
(-12,111,o),
(96,-10,o),
(218,-10,qs),
(326,-10,o),
(461,110,o),
(485,211,q),
(280,211,l),
(274,180,o),
(256,155,o),
(237,155,qs),
(218,155,o),
(207,180,o),
(211,204,qs),
(215,223,l),
(322,223,o),
(464,325,o),
(494,406,q),
(557,406,l),
(579,530,l),
(521,530,l),
(527,563,l),
(585,563,l),
(610,708,l),
(93,708,l)
);
}
);
userData = {
assembly = "MPPEM[ ]	/* MeasurePixelPerEm */
PUSHB[ ]	/* 1 value pushed */
23 
LT[ ]	/* LessThan */
IF[ ]	/* If */
NPUSHB[ ]	/* 53 values pushed */
0 5 4 3 4 5 117 0 3 7 4 3 7 129 0 7 2 4 7 2 129 10 1 0 12 1 11 0 11 99 0 4 4 6 97 0 6 6 21 77 8 1 2 2 1 95 9 1 1 1 20 1 78 
ELSE[ ]	/* Else */
MPPEM[ ]	/* MeasurePixelPerEm */
PUSHB[ ]	/* 1 value pushed */
50 
LT[ ]	/* LessThan */
IF[ ]	/* If */
NPUSHB[ ]	/* 54 values pushed */
0 5 4 3 4 5 3 131 0 3 7 4 3 7 129 0 7 2 4 7 2 129 10 1 0 12 1 11 0 11 99 0 4 4 6 97 0 6 6 21 77 8 1 2 2 1 95 9 1 1 1 20 1 78 
ELSE[ ]	/* Else */
NPUSHB[ ]	/* 52 values pushed */
0 5 4 3 4 5 3 131 0 3 7 4 3 7 129 0 7 2 4 7 2 129 8 1 2 9 1 1 0 2 1 107 10 1 0 12 1 11 0 11 99 0 4 4 6 97 0 6 6 21 4 78 
EIF[ ]	/* EndIf */
EIF[ ]	/* EndIf */
NPUSHB[ ]	/* 22 values pushed */
0 0 0 34 0 34 33 32 31 30 18 35 34 18 35 18 17 17 17 13 7 31 
CALL[ ]	/* CallFunction */";
};
width = 577;
}
);
note = uni20B9;
unicode = 8377;
},
{
glyphname = uni200C;
lastChange = "2022-10-20 15:49:47 +0000";
layers = (
{
layerId = m01;
shapes = (
{
closed = 1;
nodes = (
(-68,-230,l),
(116,811,l),
(69,811,l),
(-115,-230,l)
);
}
);
userData = {
assembly = "NPUSHB[ ]	/* 21 values pushed */
0 0 1 1 0 87 0 0 0 1 95 0 1 0 1 79 17 16 2 8 24 
CALL[ ]	/* CallFunction */";
};
width = 0;
}
);
note = uni200C;
unicode = 8204;
},
{
glyphname = uni200D;
lastChange = "2022-10-20 15:49:47 +0000";
layers = (
{
layerId = m01;
shapes = (
{
closed = 1;
nodes = (
(181,593,l),
(102,688,l),
(215,784,l),
(188,816,l),
(75,721,l),
(-3,816,l),
(-42,783,l),
(37,688,l),
(-73,595,l),
(-46,562,l),
(36,635,l),
(-116,-230,l),
(-69,-230,l),
(83,635,l),
(142,560,l)
);
}
);
userData = {
assembly = "NPUSHB[ ]	/* 24 values pushed */
14 13 12 11 10 9 8 7 6 5 4 3 0 13 0 74 0 0 0 118 17 1 8 23 
CALL[ ]	/* CallFunction */";
};
width = 0;
}
);
note = uni200D;
unicode = 8205;
},
{
glyphname = uni25CC;
lastChange = "2022-10-20 15:49:47 +0000";
layers = (
{
layerId = m01;
shapes = (
{
closed = 1;
nodes = (
(586,428,o),
(566,451,o),
(547,451,qs),
(528,451,o),
(500,428,o),
(496,409,qs),
(493,390,o),
(513,367,o),
(532,367,qs),
(551,367,o),
(579,390,o),
(582,409,qs)
);
},
{
closed = 1;
nodes = (
(159,142,o),
(139,165,o),
(120,165,qs),
(101,165,o),
(73,142,o),
(70,123,qs),
(67,104,o),
(86,81,o),
(105,81,qs),
(124,81,o),
(153,104,o),
(156,123,qs)
);
},
{
closed = 1;
nodes = (
(244,66,o),
(224,89,o),
(205,89,qs),
(186,89,o),
(158,66,o),
(154,47,qs),
(151,28,o),
(171,5,o),
(190,5,qs),
(209,5,o),
(237,28,o),
(240,47,qs)
);
},
{
closed = 1;
nodes = (
(134,255,o),
(114,278,o),
(95,278,qs),
(76,278,o),
(48,255,o),
(45,236,qs),
(41,217,o),
(61,194,o),
(80,194,qs),
(99,194,o),
(127,217,o),
(131,236,qs)
);
},
{
closed = 1;
nodes = (
(365,52,o),
(345,75,o),
(326,75,qs),
(307,75,o),
(279,52,o),
(276,33,qs),
(273,14,o),
(293,-9,o),
(312,-9,qs),
(331,-9,o),
(359,14,o),
(362,33,qs)
);
},
{
closed = 1;
nodes = (
(170,376,o),
(151,399,o),
(132,399,qs),
(113,399,o),
(84,376,o),
(81,357,qs),
(78,338,o),
(98,315,o),
(117,315,qs),
(136,315,o),
(164,338,o),
(167,357,qs)
);
},
{
closed = 1;
nodes = (
(488,98,o),
(469,121,o),
(450,121,qs),
(431,121,o),
(402,98,o),
(399,79,qs),
(396,60,o),
(416,37,o),
(435,37,qs),
(454,37,o),
(482,60,o),
(485,79,qs)
);
},
{
closed = 1;
nodes = (
(264,475,o),
(244,498,o),
(225,498,qs),
(206,498,o),
(178,475,o),
(175,456,qs),
(171,437,o),
(191,414,o),
(210,414,qs),
(229,414,o),
(257,437,o),
(261,456,qs)
);
},
{
closed = 1;
nodes = (
(578,194,o),
(558,217,o),
(539,217,qs),
(520,217,o),
(492,194,o),
(489,175,qs),
(486,156,o),
(506,133,o),
(525,133,qs),
(544,133,o),
(572,156,o),
(575,175,qs)
);
},
{
closed = 1;
nodes = (
(388,517,o),
(368,540,o),
(349,540,qs),
(330,540,o),
(302,517,o),
(299,498,qs),
(296,479,o),
(316,456,o),
(335,456,qs),
(354,456,o),
(382,479,o),
(385,498,qs)
);
},
{
closed = 1;
nodes = (
(610,314,o),
(590,337,o),
(571,337,qs),
(552,337,o),
(524,314,o),
(520,295,qs),
(517,276,o),
(537,253,o),
(556,253,qs),
(575,253,o),
(603,276,o),
(606,295,qs)
);
},
{
closed = 1;
nodes = (
(507,502,o),
(487,525,o),
(468,525,qs),
(449,525,o),
(421,502,o),
(417,483,qs),
(414,464,o),
(434,441,o),
(453,441,qs),
(472,441,o),
(500,464,o),
(503,483,qs)
);
}
);
userData = {
assembly = "NPUSHB[ ]	/* 146 values pushed */
0 19 0 18 1 19 18 105 0 23 0 22 14 23 22 105 0 15 0 14 11 15 14 105 0 1 0 0 21 1 0 105 0 11 0 10 7 11 10 105 0 21 0 20 17 21 20 105 0 7 0 6 3 7 6 105 0 17 0 16 13 17 16 105 0 3 0 2 9 3 2 105 0 9 12 8 9 89 0 13 0 12 4 13 12 105 0 5 0 4 8 5 4 105 0 9 9 8 97 0 8 9 8 81 141 139 135 133 129 127 123 121 117 115 111 109 105 103 99 97 93 91 87 85 81 79 75 73 69 67 63 61 57 55 36 36 36 36 36 36 36 36 33 24 6 31 
CALL[ ]	/* CallFunction */";
};
width = 651;
}
);
note = uni25CC;
unicode = 9676;
},
{
glyphname = dvEyelash;
lastChange = "2022-10-20 15:49:47 +0000";
layers = (
{
layerId = m01;
shapes = (
{
closed = 1;
nodes = (
(349,403,o),
(300,403,qs),
(260,403,o),
(217,444,o),
(221,488,q),
(27,488,l),
(11,369,o),
(137,258,o),
(246,258,qs),
(302,258,o),
(414,291,o),
(458,319,q),
(397,428,l)
);
},
{
closed = 1;
nodes = (
(2,571,l),
(504,571,l),
(533,740,l),
(31,740,l)
);
}
);
userData = {
assembly = "PUSHB[ ]	/* 6 values pushed */
12 1 2 1 1 76 
MPPEM[ ]	/* MeasurePixelPerEm */
PUSHB[ ]	/* 1 value pushed */
15 
LT[ ]	/* LessThan */
IF[ ]	/* If */
NPUSHB[ ]	/* 32 values pushed */
0 1 3 2 2 1 114 5 1 4 0 3 1 4 3 103 0 2 0 0 2 89 0 2 2 0 98 0 0 2 0 82 
ELSE[ ]	/* Else */
NPUSHB[ ]	/* 33 values pushed */
0 1 3 2 3 1 2 128 5 1 4 0 3 1 4 3 103 0 2 0 0 2 89 0 2 2 0 98 0 0 2 0 82 
EIF[ ]	/* EndIf */
NPUSHB[ ]	/* 13 values pushed */
13 13 13 16 13 16 19 34 18 34 6 6 26 
CALL[ ]	/* CallFunction */";
};
width = 391;
}
);
note = dvEyelash;
},
{
glyphname = dvRashtrasign;
lastChange = "2022-10-20 15:49:47 +0000";
layers = (
{
layerId = m01;
shapes = (
{
closed = 1;
nodes = (
(-642,-97,l),
(-438,-97,l),
(-357,1,l),
(-309,-97,l),
(-104,-97,l),
(-206,82,l),
(-477,82,l)
);
}
);
userData = {
assembly = "NPUSHB[ ]	/* 36 values pushed */
3 1 0 2 1 76 3 1 2 0 0 2 87 3 1 2 2 0 95 1 1 0 2 0 79 0 0 0 6 0 6 18 17 4 6 24 
CALL[ ]	/* CallFunction */";
};
width = 0;
}
);
note = dvRashtrasign;
},
{
glyphname = dvKx_RA;
lastChange = "2022-10-20 15:49:47 +0000";
layers = (
{
layerId = m01;
shapes = (
{
closed = 1;
nodes = (
(420,0,l),
(615,0,l),
(662,267,l),
(671,301,o),
(708,340,o),
(735,340,qs),
(764,340,o),
(786,304,o),
(782,278,qs),
(777,252,o),
(742,221,o),
(718,221,qs),
(710,221,o),
(702,223,q),
(674,65,l),
(709,56,o),
(745,56,qs),
(805,56,o),
(907,110,o),
(977,213,o),
(990,283,qs),
(1001,346,o),
(974,451,o),
(895,513,o),
(831,513,qs),
(749,513,o),
(696,461,q),
(715,571,l),
(1093,571,l),
(1123,740,l),
(58,740,l),
(28,571,l),
(520,571,l),
(501,461,l),
(466,513,o),
(378,513,qs),
(278,513,o),
(146,384,o),
(127,278,qs),
(115,210,o),
(157,105,o),
(207,80,q),
(81,-46,l),
(299,-46,l),
(439,111,l)
);
},
{
closed = 1;
nodes = (
(42,-25,o),
(106,29,o),
(113,67,qs),
(120,106,o),
(75,161,o),
(35,161,qs),
(-4,161,o),
(-67,106,o),
(-74,67,qs),
(-81,29,o),
(-37,-25,o),
(2,-25,qs)
);
},
{
closed = 1;
nodes = (
(359,214,o),
(329,249,o),
(334,277,qs),
(339,305,o),
(382,341,o),
(413,341,qs),
(443,341,o),
(473,307,o),
(469,279,qs),
(464,251,o),
(419,214,o),
(390,214,qs)
);
}
);
userData = {
assembly = "NPUSHB[ ]	/* 114 values pushed */
17 10 2 8 1 41 30 2 7 8 44 29 2 3 6 10 3 76 15 1 13 7 10 7 13 10 128 0 9 6 11 6 9 11 128 0 0 11 0 134 0 3 4 1 2 1 3 2 103 5 1 1 12 1 8 7 1 8 105 0 10 6 11 10 89 0 7 0 6 9 7 6 105 0 10 10 11 97 14 1 11 10 11 81 57 57 45 45 57 68 57 67 63 61 45 56 45 55 51 49 43 42 36 35 38 34 17 17 18 38 16 16 6 31 
CALL[ ]	/* CallFunction */";
};
width = 1043;
}
);
note = dvKx_RA;
},
{
glyphname = dvGx_RA;
lastChange = "2022-10-20 15:49:47 +0000";
layers = (
{
layerId = m01;
shapes = (
{
closed = 1;
nodes = (
(531,0,l),
(730,0,l),
(830,571,l),
(906,571,l),
(936,740,l),
(56,740,l),
(26,571,l),
(329,571,l),
(306,442,ls),
(302,418,o),
(284,387,o),
(265,387,qs),
(246,387,o),
(236,415,o),
(240,442,qs),
(246,474,l),
(49,474,l),
(46,463,o),
(42,441,qs),
(22,328,o),
(127,213,o),
(240,213,qs),
(355,213,o),
(493,344,o),
(512,451,qs),
(533,571,l),
(626,571,l),
(587,346,l),
(133,-20,l),
(367,-20,l),
(555,141,l)
);
},
{
closed = 1;
nodes = (
(77,-1,o),
(141,53,o),
(148,91,qs),
(154,130,o),
(110,185,o),
(70,185,qs),
(31,185,o),
(-33,130,o),
(-39,91,qs),
(-46,53,o),
(-2,-1,o),
(37,-1,qs)
);
}
);
userData = {
assembly = "NPUSHB[ ]	/* 79 values pushed */
2 1 2 4 30 1 8 9 2 76 0 3 1 4 1 3 4 128 0 0 8 0 134 0 6 7 5 2 1 3 6 1 103 0 4 0 2 9 4 2 105 0 9 8 8 9 89 0 9 9 8 97 11 10 2 8 9 8 81 31 31 31 42 31 41 37 35 17 17 17 19 35 20 35 18 16 12 6 31 
CALL[ ]	/* CallFunction */";
};
width = 858;
}
);
note = dvGx_RA;
},
{
glyphname = dvJx_RA;
lastChange = "2022-10-20 15:49:47 +0000";
layers = (
{
layerId = m01;
shapes = (
{
closed = 1;
nodes = (
(30,571,l),
(653,571,l),
(638,488,l),
(362,488,l),
(345,394,ls),
(334,327,o),
(287,327,qs),
(240,327,o),
(251,394,qs),
(268,488,l),
(63,488,l),
(45,388,ls),
(26,279,o),
(133,149,o),
(256,149,qs),
(350,149,o),
(485,243,o),
(517,324,q),
(609,324,l),
(608,316,l),
(188,-58,l),
(410,-58,l),
(576,106,l),
(557,0,l),
(747,0,l),
(848,571,l),
(924,571,l),
(953,740,l),
(59,740,l)
);
},
{
closed = 1;
nodes = (
(111,-56,o),
(175,-2,o),
(181,36,qs),
(188,75,o),
(144,130,o),
(104,130,qs),
(65,130,o),
(1,75,o),
(-6,36,qs),
(-12,-2,o),
(32,-56,o),
(71,-56,qs)
);
}
);
userData = {
assembly = "NPUSHB[ ]	/* 88 values pushed */
8 1 3 5 5 1 1 9 2 76 6 1 4 0 5 0 4 5 128 0 1 9 2 9 1 2 128 11 1 8 7 1 0 4 8 0 103 0 5 0 3 9 5 3 105 0 9 1 2 9 89 0 9 9 2 97 12 10 2 2 9 2 81 29 29 0 0 29 40 29 39 35 33 0 28 0 28 17 18 34 19 37 18 17 17 13 6 30 
CALL[ ]	/* CallFunction */";
};
width = 872;
}
);
note = dvJx_RA;
},
{
glyphname = dvKx_R;
lastChange = "2022-10-20 15:49:47 +0000";
layers = (
{
layerId = m01;
shapes = (
{
closed = 1;
nodes = (
(420,0,l),
(615,0,l),
(662,267,l),
(671,301,o),
(708,340,o),
(735,340,qs),
(764,340,o),
(786,304,o),
(782,278,q),
(989,278,l),
(1000,344,o),
(974,450,o),
(895,513,o),
(831,513,qs),
(749,513,o),
(696,461,q),
(715,571,l),
(1040,571,l),
(1070,740,l),
(58,740,l),
(28,571,l),
(520,571,l),
(501,461,l),
(466,513,o),
(378,513,qs),
(278,513,o),
(146,384,o),
(127,278,qs),
(115,210,o),
(157,105,o),
(207,80,q),
(81,-46,l),
(299,-46,l),
(439,111,l)
);
},
{
closed = 1;
nodes = (
(42,-25,o),
(106,29,o),
(113,67,qs),
(120,106,o),
(75,161,o),
(35,161,qs),
(-4,161,o),
(-67,106,o),
(-74,67,qs),
(-81,29,o),
(-37,-25,o),
(2,-25,qs)
);
},
{
closed = 1;
nodes = (
(359,214,o),
(329,249,o),
(334,277,qs),
(339,305,o),
(382,341,o),
(413,341,qs),
(443,341,o),
(473,307,o),
(469,279,qs),
(464,251,o),
(419,214,o),
(390,214,qs)
);
}
);
userData = {
assembly = "NPUSHB[ ]	/* 16 values pushed */
17 10 2 7 1 30 1 12 6 33 2 2 8 9 3 76 
MPPEM[ ]	/* MeasurePixelPerEm */
PUSHB[ ]	/* 1 value pushed */
21 
LT[ ]	/* LessThan */
IF[ ]	/* If */
NPUSHB[ ]	/* 64 values pushed */
0 6 7 12 7 6 114 14 1 12 9 7 12 9 126 0 8 9 10 9 8 10 128 0 0 10 0 134 0 3 4 1 2 1 3 2 103 5 1 1 11 1 7 6 1 7 105 0 9 8 10 9 89 0 9 9 10 97 13 1 10 9 10 81 
ELSE[ ]	/* Else */
NPUSHB[ ]	/* 65 values pushed */
0 6 7 12 7 6 12 128 14 1 12 9 7 12 9 126 0 8 9 10 9 8 10 128 0 0 10 0 134 0 3 4 1 2 1 3 2 103 5 1 1 11 1 7 6 1 7 105 0 9 8 10 9 89 0 9 9 10 97 13 1 10 9 10 81 
EIF[ ]	/* EndIf */
NPUSHB[ ]	/* 28 values pushed */
46 46 34 34 46 57 46 56 52 50 34 45 34 44 40 38 19 34 19 34 17 17 18 38 16 15 6 31 
CALL[ ]	/* CallFunction */";
};
width = 774;
}
);
note = dvKx_R;
},
{
glyphname = dvGx_R;
lastChange = "2022-10-20 15:49:47 +0000";
layers = (
{
layerId = m01;
shapes = (
{
closed = 1;
nodes = (
(601,180,l),
(638,387,l),
(133,-20,l),
(367,-20,l)
);
},
{
closed = 1;
nodes = (
(26,571,l),
(329,571,l),
(306,442,ls),
(302,418,o),
(284,387,o),
(265,387,qs),
(246,387,o),
(236,415,o),
(240,442,qs),
(246,474,l),
(49,474,l),
(46,463,o),
(42,441,qs),
(22,328,o),
(127,213,o),
(240,213,qs),
(355,213,o),
(493,344,o),
(512,451,qs),
(533,571,l),
(670,571,l),
(700,740,l),
(56,740,l)
);
},
{
closed = 1;
nodes = (
(77,-1,o),
(141,53,o),
(148,91,qs),
(154,130,o),
(110,185,o),
(70,185,qs),
(31,185,o),
(-33,130,o),
(-39,91,qs),
(-46,53,o),
(-2,-1,o),
(37,-1,qs)
);
}
);
userData = {
assembly = "NPUSHB[ ]	/* 93 values pushed */
2 1 8 7 1 76 1 1 4 1 75 0 3 1 4 1 3 4 128 9 1 0 8 0 134 10 1 6 5 1 1 3 6 1 103 0 4 0 2 7 4 2 105 0 7 8 8 7 89 0 7 7 8 97 11 1 8 7 8 81 27 27 4 4 0 0 27 38 27 37 33 31 4 26 4 26 25 24 21 19 16 15 11 9 6 5 0 3 0 3 12 6 22 
CALL[ ]	/* CallFunction */";
};
width = 588;
}
);
note = dvGx_R;
},
{
glyphname = dvJx_R;
lastChange = "2022-10-20 15:49:47 +0000";
layers = (
{
layerId = m01;
shapes = (
{
closed = 1;
nodes = (
(30,571,l),
(753,571,l),
(782,740,l),
(59,740,l)
);
},
{
closed = 1;
nodes = (
(410,-58,l),
(690,219,l),
(738,488,l),
(362,488,l),
(345,394,ls),
(334,327,o),
(287,327,qs),
(240,327,o),
(251,394,qs),
(268,488,l),
(63,488,l),
(45,388,ls),
(26,279,o),
(133,149,o),
(256,149,qs),
(347,149,o),
(480,237,o),
(512,314,q),
(606,314,l),
(188,-58,l)
);
},
{
closed = 1;
nodes = (
(111,-56,o),
(175,-2,o),
(181,36,qs),
(188,75,o),
(144,130,o),
(104,130,qs),
(65,130,o),
(1,75,o),
(-6,36,qs),
(-12,-2,o),
(32,-56,o),
(71,-56,qs)
);
}
);
userData = {
assembly = "NPUSHB[ ]	/* 80 values pushed */
21 1 3 2 1 76 10 1 1 0 0 4 1 0 103 6 1 4 0 2 3 4 2 103 0 5 0 3 8 5 3 105 0 8 7 7 8 89 0 8 8 7 97 11 9 2 7 8 7 81 24 24 0 0 24 35 24 34 30 28 23 22 20 19 17 15 13 12 9 7 5 4 0 3 0 3 17 12 6 23 
CALL[ ]	/* CallFunction */";
};
width = 553;
}
);
note = dvJx_R;
},
{
glyphname = dvKx_KxA;
lastChange = "2022-10-20 15:49:47 +0000";
layers = (
{
layerId = m01;
shapes = (
{
closed = 1;
nodes = (
(1094,571,l),
(1075,461,l),
(1040,513,o),
(952,513,qs),
(888,513,o),
(836,485,q),
(804,513,o),
(750,513,qs),
(669,513,o),
(616,461,q),
(635,571,l)
);
},
{
closed = 1;
nodes = (
(180,-227,o),
(257,-162,o),
(265,-115,qs),
(274,-67,o),
(220,0,o),
(172,0,qs),
(125,0,o),
(47,-67,o),
(38,-115,qs),
(30,-162,o),
(85,-227,o),
(132,-227,qs)
);
},
{
closed = 1;
nodes = (
(835,-227,o),
(912,-162,o),
(920,-115,qs),
(929,-67,o),
(875,0,o),
(827,0,qs),
(780,0,o),
(702,-67,o),
(693,-115,qs),
(685,-162,o),
(740,-227,o),
(787,-227,qs)
);
},
{
closed = 1;
nodes = (
(278,214,o),
(248,249,o),
(253,277,qs),
(258,305,o),
(302,341,o),
(332,341,qs),
(362,341,o),
(392,307,o),
(388,279,qs),
(383,251,o),
(338,214,o),
(309,214,qs)
);
},
{
closed = 1;
nodes = (
(933,214,o),
(903,249,o),
(908,277,qs),
(913,305,o),
(957,341,o),
(987,341,qs),
(1017,341,o),
(1047,307,o),
(1043,279,qs),
(1038,251,o),
(993,214,o),
(964,214,qs)
);
},
{
closed = 1;
nodes = (
(1190,0,l),
(1237,267,ls),
(1243,302,o),
(1281,340,o),
(1309,340,qs),
(1338,340,o),
(1360,304,o),
(1356,278,qs),
(1351,252,o),
(1316,221,o),
(1292,221,qs),
(1283,221,o),
(1277,223,q),
(1249,65,l),
(1283,56,o),
(1319,56,qs),
(1379,56,o),
(1481,110,o),
(1551,213,o),
(1564,283,qs),
(1575,346,o),
(1548,451,o),
(1470,513,o),
(1406,513,qs),
(1324,513,o),
(1271,461,q),
(1290,571,l),
(1667,571,l),
(1697,740,l),
(74,740,l),
(44,571,l),
(439,571,l),
(420,461,l),
(385,513,o),
(297,513,qs),
(197,513,o),
(64,384,o),
(46,278,qs),
(34,210,o),
(63,104,o),
(143,43,o),
(206,43,qs),
(299,43,o),
(356,100,q),
(339,0,l),
(535,0,l),
(582,267,ls),
(588,302,o),
(626,340,o),
(654,340,qs),
(683,340,o),
(704,304,o),
(700,278,q),
(701,278,l),
(689,210,o),
(718,104,o),
(798,43,o),
(861,43,qs),
(954,43,o),
(1011,100,q),
(994,0,l)
);
}
);
userData = {
assembly = "NPUSHB[ ]	/* 157 values pushed */
93 86 8 4 0 5 7 0 106 1 21 7 105 75 59 3 20 8 3 76 23 1 13 11 3 11 13 3 128 0 17 18 16 2 2 0 17 2 103 19 15 1 3 0 22 12 9 3 7 21 0 7 105 0 21 0 20 11 21 20 105 27 10 26 3 8 14 1 11 13 8 11 105 5 1 3 4 4 3 89 5 1 3 3 4 97 25 6 24 3 4 3 4 81 47 47 35 35 23 23 11 11 119 118 115 113 109 108 104 102 96 94 92 91 90 89 88 87 85 83 78 76 74 73 70 68 62 60 47 58 47 57 53 51 35 46 35 45 41 39 23 34 23 33 29 27 11 22 11 21 37 18 34 33 28 6 26 
CALL[ ]	/* CallFunction */";
};
width = 1601;
}
);
note = dvKx_KxA;
},
{
glyphname = dvKx_TA;
lastChange = "2022-10-20 15:49:47 +0000";
layers = (
{
layerId = m01;
shapes = (
{
closed = 1;
nodes = (
(1151,571,l),
(1137,488,l),
(1016,488,ls),
(931,488,o),
(861,459,q),
(819,503,o),
(743,503,qs),
(665,503,o),
(616,458,q),
(635,571,l)
);
},
{
closed = 1;
nodes = (
(180,-227,o),
(257,-162,o),
(265,-115,qs),
(274,-67,o),
(220,0,o),
(172,0,qs),
(125,0,o),
(47,-67,o),
(38,-115,qs),
(30,-162,o),
(85,-227,o),
(132,-227,qs)
);
},
{
closed = 1;
nodes = (
(278,214,o),
(248,249,o),
(253,277,qs),
(258,305,o),
(302,341,o),
(332,341,qs),
(362,341,o),
(392,307,o),
(388,279,qs),
(383,251,o),
(338,214,o),
(309,214,qs)
);
},
{
closed = 1;
nodes = (
(582,267,ls),
(588,302,o),
(626,339,o),
(654,339,qs),
(677,339,o),
(699,300,o),
(694,267,q),
(691,259,o),
(689,243,qs),
(667,119,o),
(794,1,o),
(906,1,qs),
(955,1,l),
(983,160,l),
(967,160,ls),
(923,160,o),
(888,203,o),
(894,238,qs),
(900,272,o),
(956,314,o),
(995,314,qs),
(1106,314,l),
(1051,0,l),
(1255,0,l),
(1355,571,l),
(1432,571,l),
(1462,740,l),
(74,740,l),
(44,571,l),
(439,571,l),
(420,461,l),
(385,513,o),
(297,513,qs),
(197,513,o),
(64,384,o),
(46,278,qs),
(34,210,o),
(63,104,o),
(143,43,o),
(206,43,qs),
(299,43,o),
(356,100,q),
(339,0,l),
(535,0,l)
);
}
);
userData = {
assembly = "NPUSHB[ ]	/* 133 values pushed */
46 4 0 3 5 1 70 1 6 13 35 1 7 14 3 76 0 10 11 9 2 2 8 10 2 103 0 8 0 5 8 89 0 0 16 1 5 13 0 5 105 0 1 0 13 6 1 13 103 19 1 6 0 7 12 6 7 105 0 14 20 17 15 3 12 3 14 12 103 0 3 4 4 3 89 0 3 3 4 97 18 1 4 3 4 81 34 34 22 22 10 10 34 77 34 77 74 72 66 64 63 61 57 55 54 53 52 51 50 49 48 47 45 43 38 36 22 33 22 32 28 26 10 21 10 20 37 17 34 33 21 6 26 
CALL[ ]	/* CallFunction */";
};
width = 1366;
}
);
note = dvKx_TA;
},
{
glyphname = dvKx_PHA;
lastChange = "2022-10-20 15:49:47 +0000";
layers = (
{
layerId = m01;
shapes = (
{
closed = 1;
nodes = (
(736,571,l),
(724,502,l),
(660,496,o),
(615,457,q),
(635,571,l)
);
},
{
closed = 1;
nodes = (
(930,307,o),
(902,353,o),
(909,390,qs),
(940,571,l),
(1085,571,l),
(1054,390,ls),
(1047,354,o),
(1001,307,o),
(965,307,qs)
);
},
{
closed = 1;
nodes = (
(582,267,ls),
(588,302,o),
(626,340,o),
(654,340,qs),
(675,340,o),
(697,320,o),
(699,304,qs),
(706,227,o),
(798,136,o),
(881,136,qs),
(961,136,o),
(1016,179,q),
(985,0,l),
(1189,0,l),
(1232,245,ls),
(1240,291,o),
(1285,340,o),
(1318,340,qs),
(1347,340,o),
(1369,304,o),
(1365,278,qs),
(1360,253,o),
(1327,220,o),
(1301,220,qs),
(1290,220,o),
(1278,223,q),
(1251,68,l),
(1285,56,o),
(1328,56,qs),
(1388,56,o),
(1490,111,o),
(1561,216,o),
(1574,288,qs),
(1584,350,o),
(1556,452,o),
(1478,513,o),
(1415,513,qs),
(1328,513,o),
(1270,462,q),
(1289,571,l),
(1674,571,l),
(1704,740,l),
(74,740,l),
(44,571,l),
(439,571,l),
(420,461,l),
(385,513,o),
(297,513,qs),
(197,513,o),
(64,384,o),
(46,278,qs),
(34,210,o),
(63,104,o),
(143,43,o),
(206,43,qs),
(299,43,o),
(356,100,q),
(339,0,l),
(535,0,l)
);
},
{
closed = 1;
nodes = (
(180,-227,o),
(257,-162,o),
(265,-115,qs),
(274,-67,o),
(220,0,o),
(172,0,qs),
(125,0,o),
(47,-67,o),
(38,-115,qs),
(30,-162,o),
(85,-227,o),
(132,-227,qs)
);
},
{
closed = 1;
nodes = (
(278,214,o),
(248,249,o),
(253,277,qs),
(258,305,o),
(302,341,o),
(332,341,qs),
(362,341,o),
(392,307,o),
(388,279,qs),
(383,251,o),
(338,214,o),
(309,214,qs)
);
}
);
userData = {
assembly = "NPUSHB[ ]	/* 154 values pushed */
33 26 2 0 4 11 4 46 1 10 2 60 1 13 19 45 15 2 9 13 4 76 21 15 2 12 3 16 3 12 16 128 0 6 7 5 1 3 0 4 6 0 103 8 1 4 18 14 2 11 2 4 11 105 20 1 2 0 13 9 2 13 105 0 10 0 9 3 10 9 105 23 1 19 0 3 12 19 3 105 0 16 17 17 16 89 0 16 16 17 97 22 1 17 16 17 81 85 85 73 73 14 14 5 5 85 96 85 95 91 89 73 84 73 83 79 77 14 72 14 72 69 67 63 61 59 58 55 53 49 47 44 42 36 34 32 31 30 29 28 27 25 23 18 16 5 13 5 12 20 19 24 6 24 
CALL[ ]	/* CallFunction */";
};
width = 1608;
}
);
note = dvKx_PHA;
},
{
glyphname = dvKx_PHxA;
lastChange = "2022-10-20 15:49:47 +0000";
layers = (
{
layerId = m01;
shapes = (
{
closed = 1;
nodes = (
(737,571,l),
(725,502,l),
(658,496,o),
(615,457,q),
(635,571,l)
);
},
{
closed = 1;
nodes = (
(180,-227,o),
(257,-162,o),
(265,-115,qs),
(274,-67,o),
(220,0,o),
(172,0,qs),
(125,0,o),
(47,-67,o),
(38,-115,qs),
(30,-162,o),
(85,-227,o),
(132,-227,qs)
);
},
{
closed = 1;
nodes = (
(811,-127,o),
(889,-62,o),
(897,-15,qs),
(906,33,o),
(851,100,o),
(803,100,qs),
(756,100,o),
(679,33,o),
(670,-15,qs),
(662,-62,o),
(716,-127,o),
(763,-127,qs)
);
},
{
closed = 1;
nodes = (
(278,214,o),
(248,249,o),
(253,277,qs),
(258,305,o),
(302,341,o),
(332,341,qs),
(362,341,o),
(392,307,o),
(388,279,qs),
(383,251,o),
(338,214,o),
(309,214,qs)
);
},
{
closed = 1;
nodes = (
(931,307,o),
(903,353,o),
(910,390,qs),
(941,571,l),
(1086,571,l),
(1055,390,ls),
(1048,354,o),
(1002,307,o),
(966,307,qs)
);
},
{
closed = 1;
nodes = (
(582,267,ls),
(588,302,o),
(626,340,o),
(654,340,qs),
(675,340,o),
(698,319,o),
(700,302,q),
(701,302,l),
(707,226,o),
(800,136,o),
(882,136,qs),
(962,136,o),
(1017,179,q),
(986,0,l),
(1190,0,l),
(1233,245,ls),
(1241,291,o),
(1286,340,o),
(1319,340,qs),
(1348,340,o),
(1370,304,o),
(1366,278,qs),
(1361,253,o),
(1328,220,o),
(1302,220,qs),
(1291,220,o),
(1279,223,q),
(1252,68,l),
(1286,56,o),
(1329,56,qs),
(1389,56,o),
(1491,111,o),
(1562,216,o),
(1575,288,qs),
(1585,350,o),
(1557,452,o),
(1479,513,o),
(1416,513,qs),
(1329,513,o),
(1271,462,q),
(1290,571,l),
(1675,571,l),
(1705,740,l),
(74,740,l),
(44,571,l),
(439,571,l),
(420,461,l),
(385,513,o),
(297,513,qs),
(197,513,o),
(64,384,o),
(46,278,qs),
(34,210,o),
(63,104,o),
(143,43,o),
(206,43,qs),
(299,43,o),
(356,100,q),
(339,0,l),
(535,0,l)
);
}
);
userData = {
assembly = "NPUSHB[ ]	/* 175 values pushed */
69 62 2 0 4 5 10 82 1 16 8 96 1 19 6 81 1 15 3 4 76 51 1 3 1 75 26 21 2 18 9 1 9 18 1 128 0 12 13 11 7 3 0 10 12 0 103 14 1 10 20 17 2 5 8 10 5 105 25 1 8 0 19 3 8 19 105 0 16 0 15 9 16 15 105 24 1 6 0 9 18 6 9 105 0 1 4 2 1 89 0 3 23 1 4 2 3 4 105 0 1 1 2 97 22 1 2 1 2 81 50 50 41 41 29 29 17 17 5 5 50 109 50 109 106 104 99 97 95 94 91 89 85 83 80 78 72 70 68 67 66 65 64 63 61 59 54 52 41 49 41 48 45 44 29 40 29 39 35 33 17 28 17 27 23 21 5 16 5 15 37 19 27 6 24 
CALL[ ]	/* CallFunction */";
};
width = 1609;
}
);
note = dvKx_PHxA;
},
{
glyphname = dvKx_BA;
lastChange = "2022-10-20 15:49:47 +0000";
layers = (
{
layerId = m01;
shapes = (
{
closed = 1;
nodes = (
(1135,571,l),
(1121,489,l),
(1070,524,o),
(987,524,qs),
(908,524,o),
(837,484,q),
(803,513,o),
(750,513,qs),
(669,513,o),
(616,461,q),
(635,571,l)
);
},
{
closed = 1;
nodes = (
(1231,0,l),
(1331,571,l),
(1407,571,l),
(1437,740,l),
(74,740,l),
(44,571,l),
(439,571,l),
(420,461,l),
(385,513,o),
(297,513,qs),
(197,513,o),
(64,384,o),
(46,278,qs),
(34,210,o),
(63,104,o),
(143,43,o),
(206,43,qs),
(299,43,o),
(356,100,q),
(339,0,l),
(535,0,l),
(582,267,ls),
(588,302,o),
(626,340,o),
(654,340,qs),
(683,340,o),
(704,304,o),
(700,278,qs),
(690,209,o),
(734,100,o),
(833,39,o),
(902,39,qs),
(995,39,o),
(1050,85,q),
(1035,0,l)
);
},
{
closed = 1;
nodes = (
(180,-227,o),
(257,-162,o),
(265,-115,qs),
(274,-67,o),
(220,0,o),
(172,0,qs),
(125,0,o),
(47,-67,o),
(38,-115,qs),
(30,-162,o),
(85,-227,o),
(132,-227,qs)
);
},
{
closed = 1;
nodes = (
(278,214,o),
(248,249,o),
(253,277,qs),
(258,305,o),
(302,341,o),
(332,341,qs),
(362,341,o),
(392,307,o),
(388,279,qs),
(383,251,o),
(338,214,o),
(309,214,qs)
);
},
{
closed = 1;
nodes = (
(1055,395,o),
(1106,335,o),
(1098,288,qs),
(1096,279,o),
(1091,265,q),
(944,378,l),
(975,395,o),
(1008,395,qs)
);
},
{
closed = 1;
nodes = (
(925,182,o),
(870,241,o),
(879,288,qs),
(881,300,o),
(886,312,q),
(1034,198,l),
(1004,182,o),
(971,182,qs)
);
}
);
userData = {
assembly = "MPPEM[ ]	/* MeasurePixelPerEm */
PUSHB[ ]	/* 1 value pushed */
10 
LT[ ]	/* LessThan */
IF[ ]	/* If */
NPUSHB[ ]	/* 27 values pushed */
37 8 4 0 4 16 0 71 1 4 16 80 72 2 15 4 79 1 17 15 26 11 2 6 17 5 76 
ELSE[ ]	/* Else */
MPPEM[ ]	/* MeasurePixelPerEm */
PUSHB[ ]	/* 1 value pushed */
11 
LT[ ]	/* LessThan */
IF[ ]	/* If */
NPUSHB[ ]	/* 27 values pushed */
37 8 4 0 4 16 0 71 1 4 16 80 72 2 15 4 79 1 17 15 26 11 2 3 17 5 76 
ELSE[ ]	/* Else */
NPUSHB[ ]	/* 27 values pushed */
37 8 4 0 4 16 0 71 1 4 16 80 72 2 15 4 79 1 17 15 26 11 2 6 17 5 76 
EIF[ ]	/* EndIf */
EIF[ ]	/* EndIf */
MPPEM[ ]	/* MeasurePixelPerEm */
PUSHB[ ]	/* 1 value pushed */
10 
LT[ ]	/* LessThan */
IF[ ]	/* If */
NPUSHB[ ]	/* 73 values pushed */
11 1 5 3 12 3 5 12 128 0 9 10 8 2 2 1 9 2 103 0 1 20 1 16 4 1 16 105 7 1 0 14 1 4 15 0 4 105 19 1 15 0 6 3 15 6 105 21 1 17 0 3 5 17 3 105 0 12 13 13 12 89 0 12 12 13 97 18 1 13 12 13 81 
ELSE[ ]	/* Else */
MPPEM[ ]	/* MeasurePixelPerEm */
PUSHB[ ]	/* 1 value pushed */
11 
LT[ ]	/* LessThan */
IF[ ]	/* If */
NPUSHB[ ]	/* 72 values pushed */
11 1 5 3 12 3 5 12 128 0 9 10 8 2 2 1 9 2 103 0 1 20 1 16 4 1 16 105 7 1 0 14 1 4 15 0 4 105 19 1 15 17 3 15 89 21 1 17 6 1 3 5 17 3 105 0 12 13 13 12 89 0 12 12 13 97 18 1 13 12 13 81 
ELSE[ ]	/* Else */
NPUSHB[ ]	/* 73 values pushed */
11 1 5 3 12 3 5 12 128 0 9 10 8 2 2 1 9 2 103 0 1 20 1 16 4 1 16 105 7 1 0 14 1 4 15 0 4 105 19 1 15 0 6 3 15 6 105 21 1 17 0 3 5 17 3 105 0 12 13 13 12 89 0 12 12 13 97 18 1 13 12 13 81 
EIF[ ]	/* EndIf */
EIF[ ]	/* EndIf */
NPUSHB[ ]	/* 46 values pushed */
78 78 70 70 58 58 46 46 78 85 78 84 70 77 70 76 58 69 58 68 64 62 46 57 46 56 52 50 45 44 43 42 41 40 18 37 34 19 37 34 18 34 33 22 6 31 
CALL[ ]	/* CallFunction */";
};
width = 1341;
}
);
note = dvKx_BA;
},
{
glyphname = dvKx_MA;
lastChange = "2022-10-20 15:49:47 +0000";
layers = (
{
layerId = m01;
shapes = (
{
closed = 1;
nodes = (
(666,503,o),
(615,455,q),
(635,571,l),
(1039,571,l),
(1022,471,l),
(978,471,ls),
(919,471,o),
(866,453,q),
(829,503,o),
(748,503,qs)
);
},
{
closed = 1;
nodes = (
(180,-227,o),
(257,-162,o),
(265,-115,qs),
(274,-67,o),
(220,0,o),
(172,0,qs),
(125,0,o),
(47,-67,o),
(38,-115,qs),
(30,-162,o),
(85,-227,o),
(132,-227,qs)
);
},
{
closed = 1;
nodes = (
(278,214,o),
(248,249,o),
(253,277,qs),
(258,305,o),
(302,341,o),
(332,341,qs),
(362,341,o),
(392,307,o),
(388,279,qs),
(383,251,o),
(338,214,o),
(309,214,qs)
);
},
{
closed = 1;
nodes = (
(902,208,o),
(880,232,o),
(884,256,qs),
(888,280,o),
(927,305,o),
(955,305,qs),
(993,305,l),
(986,266,ls),
(981,240,o),
(949,208,o),
(923,208,qs)
);
},
{
closed = 1;
nodes = (
(1306,471,l),
(1212,471,l),
(1229,571,l),
(1323,571,l)
);
},
{
closed = 1;
nodes = (
(582,267,ls),
(588,302,o),
(626,340,o),
(654,340,qs),
(682,340,o),
(704,305,o),
(700,279,q),
(698,271,o),
(695,255,qs),
(683,189,o),
(726,90,o),
(825,36,o),
(897,36,qs),
(1013,36,o),
(1158,165,o),
(1178,277,qs),
(1183,305,l),
(1277,305,l),
(1223,0,l),
(1428,0,l),
(1528,571,l),
(1605,571,l),
(1635,740,l),
(74,740,l),
(44,571,l),
(439,571,l),
(420,461,l),
(385,513,o),
(297,513,qs),
(197,513,o),
(64,384,o),
(46,278,qs),
(34,210,o),
(63,104,o),
(143,43,o),
(206,43,qs),
(299,43,o),
(356,100,q),
(339,0,l),
(535,0,l)
);
}
);
userData = {
assembly = "NPUSHB[ ]	/* 166 values pushed */
61 7 1 3 5 0 81 1 6 7 50 1 11 8 3 76 26 20 2 16 18 3 18 16 3 128 0 14 15 13 25 10 4 1 12 14 1 103 0 12 2 5 12 89 21 1 2 19 1 5 7 2 5 105 9 1 0 17 1 7 6 0 7 105 23 1 6 0 11 18 6 11 105 24 1 8 0 18 16 8 18 105 0 3 4 4 3 89 0 3 3 4 97 22 1 4 3 4 81 49 49 45 45 34 34 22 22 10 10 0 0 49 88 49 88 85 83 76 74 71 70 69 68 67 66 65 64 63 62 60 58 53 51 45 48 45 48 47 46 34 44 34 43 39 37 22 33 22 32 28 26 10 21 10 20 16 14 0 9 0 8 17 34 27 6 24 
CALL[ ]	/* CallFunction */";
};
width = 1525;
}
);
note = dvKx_MA;
},
{
glyphname = dvJx_JxA;
lastChange = "2022-10-20 15:49:47 +0000";
layers = (
{
layerId = m01;
shapes = (
{
closed = 1;
nodes = (
(255,-189,o),
(333,-124,o),
(341,-77,qs),
(349,-29,o),
(295,38,o),
(247,38,qs),
(200,38,o),
(122,-29,o),
(114,-77,qs),
(106,-124,o),
(160,-189,o),
(207,-189,qs)
);
},
{
closed = 1;
nodes = (
(819,-189,o),
(897,-124,o),
(905,-77,qs),
(913,-29,o),
(859,38,o),
(811,38,qs),
(764,38,o),
(686,-29,o),
(678,-77,qs),
(670,-124,o),
(724,-189,o),
(771,-189,qs)
);
},
{
closed = 1;
nodes = (
(1322,0,l),
(1423,571,l),
(1499,571,l),
(1529,740,l),
(71,740,l),
(41,571,l),
(1219,571,l),
(1203,481,l),
(936,481,l),
(909,325,ls),
(897,258,o),
(851,258,qs),
(803,258,o),
(815,325,qs),
(842,481,l),
(372,481,l),
(345,325,ls),
(333,258,o),
(287,258,qs),
(239,258,o),
(251,325,qs),
(278,481,l),
(73,481,l),
(45,319,ls),
(25,210,o),
(133,80,o),
(256,80,qs),
(329,80,o),
(448,138,o),
(526,241,o),
(541,308,q),
(607,308,l),
(592,204,o),
(700,80,o),
(820,80,qs),
(893,80,o),
(1012,138,o),
(1090,241,o),
(1105,308,q),
(1173,308,l),
(1118,0,l)
);
}
);
userData = {
assembly = "NPUSHB[ ]	/* 103 values pushed */
0 16 0 1 0 16 1 128 0 14 15 1 13 8 14 13 103 12 10 2 8 6 1 4 9 8 4 103 11 1 9 7 1 5 0 9 5 105 2 1 0 16 1 0 89 2 1 0 0 1 97 18 3 17 3 1 0 1 81 12 12 0 0 64 63 62 61 60 59 58 57 56 55 53 51 49 48 46 44 42 41 38 36 33 32 30 28 25 24 12 23 12 22 18 16 0 11 0 10 36 19 6 23 
CALL[ ]	/* CallFunction */";
};
width = 1436;
}
);
note = dvJx_JxA;
},
{
glyphname = dvJx_YA;
lastChange = "2022-10-20 15:49:47 +0000";
layers = (
{
layerId = m01;
shapes = (
{
closed = 1;
nodes = (
(1211,0,l),
(1312,571,l),
(1388,571,l),
(1418,740,l),
(71,740,l),
(41,571,l),
(795,571,l),
(790,540,ls),
(781,493,o),
(721,441,o),
(644,441,qs),
(365,441,l),
(345,325,ls),
(333,258,o),
(287,258,qs),
(239,258,o),
(251,325,qs),
(271,441,l),
(66,441,l),
(45,319,ls),
(25,210,o),
(133,80,o),
(256,80,qs),
(355,80,o),
(501,184,o),
(530,272,q),
(588,272,o),
(612,273,q),
(616,174,o),
(734,63,o),
(840,63,qs),
(952,63,o),
(1028,121,q),
(1006,0,l)
);
},
{
closed = 1;
nodes = (
(255,-189,o),
(333,-124,o),
(341,-77,qs),
(349,-29,o),
(295,38,o),
(247,38,qs),
(200,38,o),
(122,-29,o),
(114,-77,qs),
(106,-124,o),
(160,-189,o),
(207,-189,qs)
);
},
{
closed = 1;
nodes = (
(864,232,o),
(812,277,o),
(812,311,q),
(885,330,o),
(973,434,o),
(985,502,qs),
(997,571,l),
(1107,571,l),
(1073,375,ls),
(1061,312,o),
(979,232,o),
(914,232,qs)
);
}
);
userData = {
assembly = "NPUSHB[ ]	/* 101 values pushed */
54 1 1 3 0 1 2 13 2 76 0 9 10 11 10 9 11 128 0 7 12 8 2 6 3 7 6 103 5 1 3 0 1 4 3 1 103 0 4 0 2 0 4 2 105 15 1 13 0 0 10 13 0 105 0 10 9 11 10 89 0 10 10 11 97 14 1 11 10 11 81 46 46 34 34 46 57 46 56 50 49 34 45 34 44 40 38 33 32 17 17 19 34 34 19 34 34 33 16 6 31 
CALL[ ]	/* CallFunction */";
};
width = 1325;
}
);
note = dvJx_YA;
},
{
glyphname = dvEyelash_YA;
lastChange = "2022-10-20 15:49:47 +0000";
layers = (
{
layerId = m01;
shapes = (
{
closed = 1;
nodes = (
(556,232,o),
(503,279,o),
(505,314,q),
(583,328,o),
(663,429,o),
(676,502,qs),
(688,571,l),
(799,571,l),
(765,375,ls),
(754,312,o),
(672,232,o),
(607,232,qs)
);
},
{
closed = 1;
nodes = (
(903,0,l),
(1003,571,l),
(1080,571,l),
(1110,740,l),
(54,740,l),
(24,571,l),
(487,571,l),
(482,540,ls),
(472,484,o),
(418,419,o),
(352,415,qs),
(328,413,o),
(280,430,o),
(252,469,o),
(258,498,q),
(65,498,l),
(48,377,o),
(184,261,o),
(300,259,q),
(306,167,o),
(426,63,o),
(532,63,qs),
(644,63,o),
(720,121,q),
(699,0,l)
);
}
);
userData = {
assembly = "NPUSHB[ ]	/* 85 values pushed */
8 1 3 5 12 1 2 1 2 76 0 5 4 3 4 5 3 128 0 9 2 9 134 0 7 8 6 2 0 4 7 0 103 0 4 0 3 1 4 3 105 10 1 1 2 2 1 89 10 1 1 1 2 97 0 2 1 2 81 0 0 36 35 34 33 32 31 30 29 26 25 21 20 18 17 15 13 0 11 0 10 19 11 6 23 
CALL[ ]	/* CallFunction */";
};
width = 1034;
}
);
note = dvEyelash_YA;
},
{
glyphname = dvEyelash_HA;
lastChange = "2022-10-20 15:49:47 +0000";
layers = (
{
layerId = m01;
shapes = (
{
closed = 1;
nodes = (
(573,70,o),
(541,50,o),
(522,50,qs),
(500,50,o),
(472,84,o),
(478,118,qs),
(484,150,o),
(524,184,o),
(546,184,qs),
(567,184,o),
(591,162,o),
(590,144,q),
(785,144,l),
(793,237,o),
(691,344,o),
(579,344,qs),
(560,344,o),
(550,343,q),
(545,351,o),
(547,360,qs),
(549,374,o),
(570,388,o),
(585,388,qs),
(752,388,l),
(785,571,l),
(905,571,l),
(935,740,l),
(65,740,l),
(35,571,l),
(591,571,l),
(584,531,l),
(536,531,ls),
(468,531,o),
(375,473,o),
(358,425,q),
(347,422,o),
(330,422,qs),
(296,422,o),
(261,461,o),
(267,492,q),
(74,492,l),
(63,422,o),
(111,318,o),
(206,263,o),
(266,263,qs),
(338,263,o),
(386,288,q),
(344,260,o),
(289,175,o),
(279,121,qs),
(267,48,o),
(311,-60,o),
(417,-117,o),
(492,-117,qs),
(597,-117,o),
(752,-9,o),
(775,86,q),
(580,86,l)
);
}
);
userData = {
assembly = "PUSHB[ ]	/* 7 values pushed */
39 10 2 1 9 1 76 
MPPEM[ ]	/* MeasurePixelPerEm */
PUSHB[ ]	/* 1 value pushed */
18 
LT[ ]	/* LessThan */
IF[ ]	/* If */
NPUSHB[ ]	/* 77 values pushed */
0 4 5 2 5 4 2 128 0 2 3 3 2 112 0 8 3 9 3 8 9 128 0 10 11 13 11 10 114 14 1 13 12 12 13 112 0 6 7 1 5 4 6 5 103 0 3 0 1 11 3 1 106 0 9 0 11 10 9 11 105 0 12 0 0 12 89 0 12 12 0 98 0 0 12 0 82 
ELSE[ ]	/* Else */
MPPEM[ ]	/* MeasurePixelPerEm */
PUSHB[ ]	/* 1 value pushed */
32 
LT[ ]	/* LessThan */
IF[ ]	/* If */
NPUSHB[ ]	/* 78 values pushed */
0 4 5 2 5 4 2 128 0 2 3 5 2 3 126 0 8 3 9 3 8 9 128 0 10 11 13 11 10 114 14 1 13 12 12 13 112 0 6 7 1 5 4 6 5 103 0 3 0 1 11 3 1 106 0 9 0 11 10 9 11 105 0 12 0 0 12 89 0 12 12 0 98 0 0 12 0 82 
ELSE[ ]	/* Else */
MPPEM[ ]	/* MeasurePixelPerEm */
PUSHB[ ]	/* 1 value pushed */
35 
LT[ ]	/* LessThan */
IF[ ]	/* If */
NPUSHB[ ]	/* 79 values pushed */
0 4 5 2 5 4 2 128 0 2 3 5 2 3 126 0 8 3 9 3 8 9 128 0 10 11 13 11 10 13 128 14 1 13 12 12 13 112 0 6 7 1 5 4 6 5 103 0 3 0 1 11 3 1 106 0 9 0 11 10 9 11 105 0 12 0 0 12 89 0 12 12 0 98 0 0 12 0 82 
ELSE[ ]	/* Else */
NPUSHB[ ]	/* 80 values pushed */
0 4 5 2 5 4 2 128 0 2 3 5 2 3 126 0 8 3 9 3 8 9 128 0 10 11 13 11 10 13 128 14 1 13 12 11 13 12 126 0 6 7 1 5 4 6 5 103 0 3 0 1 11 3 1 106 0 9 0 11 10 9 11 105 0 12 0 0 12 89 0 12 12 0 98 0 0 12 0 82 
EIF[ ]	/* EndIf */
EIF[ ]	/* EndIf */
EIF[ ]	/* EndIf */
NPUSHB[ ]	/* 26 values pushed */
0 0 0 57 0 57 55 53 49 47 45 44 42 40 33 17 17 17 35 34 19 39 34 15 6 31 
CALL[ ]	/* CallFunction */";
};
width = 849;
}
);
note = dvEyelash_HA;
},
{
glyphname = dvmII.aLong;
lastChange = "2022-10-20 15:49:47 +0000";
layers = (
{
layerId = m01;
shapes = (
{
closed = 1;
nodes = (
(-336,696,l),
(-327,748,ls),
(-317,806,o),
(-216,883,o),
(-86,883,qs),
(47,883,o),
(121,806,o),
(111,748,qs),
(110,740,l),
(27,740,l),
(-3,571,l),
(74,571,l),
(-27,0,l),
(177,0,l),
(278,571,l),
(354,571,l),
(384,740,l),
(308,740,l),
(312,763,ls),
(335,897,o),
(164,1054,o),
(-56,1054,qs),
(-269,1054,o),
(-496,899,o),
(-520,763,qs),
(-532,696,l)
);
}
);
userData = {
assembly = "NPUSHB[ ]	/* 51 values pushed */
0 7 1 2 1 7 2 128 0 3 2 3 134 0 0 0 6 1 0 6 105 5 1 1 7 2 1 87 5 1 1 1 2 95 4 1 2 1 2 79 19 35 17 17 17 17 19 34 8 6 30 
CALL[ ]	/* CallFunction */";
};
width = 335;
}
);
note = dvmII.aLong;
},
{
glyphname = dvmII_Anusvara;
lastChange = "2022-10-20 15:49:47 +0000";
layers = (
{
layerId = m01;
shapes = (
{
closed = 1;
nodes = (
(-42,696,l),
(-28,775,ls),
(-20,819,o),
(19,882,o),
(65,882,qs),
(108,882,o),
(124,819,o),
(116,775,qs),
(110,740,l),
(27,740,l),
(-3,571,l),
(74,571,l),
(-27,0,l),
(177,0,l),
(278,571,l),
(354,571,l),
(384,740,l),
(308,740,l),
(312,765,ls),
(363,1053,o),
(95,1053,qs),
(-48,1053,o),
(-204,900,o),
(-228,765,qs),
(-240,696,l)
);
},
{
closed = 1;
nodes = (
(508,782,o),
(587,848,o),
(595,895,qs),
(603,943,o),
(548,1009,o),
(500,1009,qs),
(453,1009,o),
(375,943,o),
(367,895,qs),
(359,848,o),
(413,782,o),
(460,782,qs)
);
}
);
userData = {
assembly = "NPUSHB[ ]	/* 67 values pushed */
0 7 1 2 1 7 2 128 0 3 2 3 134 0 0 0 6 9 0 6 105 0 8 10 1 9 1 8 9 105 5 1 1 7 2 1 87 5 1 1 1 2 95 4 1 2 1 2 79 25 25 25 36 25 35 37 19 35 17 17 17 17 18 34 11 6 31 
CALL[ ]	/* CallFunction */";
};
width = 335;
}
);
note = dvmII_Anusvara;
},
{
glyphname = dvmII_Reph;
lastChange = "2022-10-20 15:49:47 +0000";
layers = (
{
layerId = m01;
shapes = (
{
closed = 1;
nodes = (
(-42,696,l),
(-28,775,ls),
(-20,819,o),
(19,882,o),
(65,882,qs),
(108,882,o),
(124,819,o),
(116,775,qs),
(110,740,l),
(27,740,l),
(-3,571,l),
(74,571,l),
(-27,0,l),
(177,0,l),
(278,571,l),
(354,571,l),
(384,740,l),
(308,740,l),
(322,822,ls),
(326,845,o),
(348,877,o),
(374,877,qs),
(397,877,o),
(410,845,o),
(402,812,q),
(583,812,l),
(611,921,o),
(537,1038,o),
(454,1038,qs),
(350,1038,o),
(295,964,q),
(245,1053,o),
(95,1053,qs),
(-48,1053,o),
(-204,900,o),
(-228,765,qs),
(-240,696,l)
);
}
);
userData = {
assembly = "PUSHB[ ]	/* 6 values pushed */
5 1 9 1 1 76 
MPPEM[ ]	/* MeasurePixelPerEm */
PUSHB[ ]	/* 1 value pushed */
20 
LT[ ]	/* LessThan */
IF[ ]	/* If */
NPUSHB[ ]	/* 55 values pushed */
0 2 3 4 3 2 114 0 10 4 5 4 10 5 128 0 6 5 6 134 0 0 0 9 3 0 9 105 0 1 0 3 2 1 3 105 8 1 4 10 5 4 87 8 1 4 4 5 95 7 1 5 4 5 79 
ELSE[ ]	/* Else */
NPUSHB[ ]	/* 56 values pushed */
0 2 3 4 3 2 4 128 0 10 4 5 4 10 5 128 0 6 5 6 134 0 0 0 9 3 0 9 105 0 1 0 3 2 1 3 105 8 1 4 10 5 4 87 8 1 4 4 5 95 7 1 5 4 5 79 
EIF[ ]	/* EndIf */
NPUSHB[ ]	/* 16 values pushed */
36 35 32 30 17 17 17 17 19 34 18 34 34 11 6 31 
CALL[ ]	/* CallFunction */";
};
width = 335;
}
);
note = dvmII_Reph;
},
{
glyphname = dvmII_Reph_Anusvara;
lastChange = "2022-10-20 15:49:47 +0000";
layers = (
{
layerId = m01;
shapes = (
{
closed = 1;
nodes = (
(307,740,l),
(320,812,ls),
(327,852,o),
(379,901,o),
(416,901,qs),
(451,901,o),
(483,865,o),
(482,841,q),
(645,841,l),
(663,902,o),
(635,1001,o),
(551,1058,o),
(487,1058,qs),
(422,1058,o),
(325,1007,o),
(294,965,q),
(242,1053,o),
(94,1053,qs),
(-49,1053,o),
(-205,900,o),
(-228,765,qs),
(-241,696,l),
(-43,696,l),
(-29,775,ls),
(-21,819,o),
(18,882,o),
(64,882,qs),
(107,882,o),
(123,819,o),
(115,775,qs),
(109,740,l),
(26,740,l),
(-4,571,l),
(73,571,l),
(-27,0,l),
(177,0,l),
(277,571,l),
(353,571,l),
(383,740,l)
);
},
{
closed = 1;
nodes = (
(412,768,o),
(447,797,o),
(451,817,qs),
(454,838,o),
(430,867,o),
(409,867,qs),
(389,867,o),
(354,838,o),
(351,817,qs),
(347,797,o),
(371,768,o),
(391,768,qs)
);
}
);
userData = {
assembly = "PUSHB[ ]	/* 6 values pushed */
22 1 9 6 1 76 
MPPEM[ ]	/* MeasurePixelPerEm */
PUSHB[ ]	/* 1 value pushed */
21 
LT[ ]	/* LessThan */
IF[ ]	/* If */
NPUSHB[ ]	/* 64 values pushed */
0 8 11 12 9 8 114 0 5 3 0 3 5 0 128 0 1 0 1 134 0 7 0 9 4 7 9 105 0 6 0 4 11 6 4 105 0 11 13 1 12 3 11 12 105 10 1 3 5 0 3 87 10 1 3 3 0 95 2 1 0 3 0 79 
ELSE[ ]	/* Else */
NPUSHB[ ]	/* 65 values pushed */
0 8 11 12 11 8 12 128 0 5 3 0 3 5 0 128 0 1 0 1 134 0 7 0 9 4 7 9 105 0 6 0 4 11 6 4 105 0 11 13 1 12 3 11 12 105 10 1 3 5 0 3 87 10 1 3 3 0 95 2 1 0 3 0 79 
EIF[ ]	/* EndIf */
NPUSHB[ ]	/* 24 values pushed */
39 39 39 50 39 49 45 43 38 37 34 32 19 35 35 19 35 17 17 17 16 14 6 31 
CALL[ ]	/* CallFunction */";
};
width = 335;
}
);
note = dvmII_Reph_Anusvara;
},
{
glyphname = dvmII_Anusvara.aLong;
lastChange = "2022-10-20 15:49:47 +0000";
layers = (
{
layerId = m01;
shapes = (
{
closed = 1;
nodes = (
(-336,696,l),
(-327,748,ls),
(-317,806,o),
(-216,883,o),
(-86,883,qs),
(47,883,o),
(121,806,o),
(111,748,qs),
(110,740,l),
(27,740,l),
(-3,571,l),
(74,571,l),
(-27,0,l),
(177,0,l),
(278,571,l),
(354,571,l),
(384,740,l),
(308,740,l),
(312,763,ls),
(335,897,o),
(164,1054,o),
(-56,1054,qs),
(-269,1054,o),
(-496,899,o),
(-520,763,qs),
(-532,696,l)
);
},
{
closed = 1;
nodes = (
(508,782,o),
(587,848,o),
(595,895,qs),
(603,943,o),
(548,1009,o),
(500,1009,qs),
(453,1009,o),
(375,943,o),
(367,895,qs),
(359,848,o),
(413,782,o),
(460,782,qs)
);
}
);
userData = {
assembly = "NPUSHB[ ]	/* 67 values pushed */
0 7 1 2 1 7 2 128 0 3 2 3 134 0 0 0 6 9 0 6 105 0 8 10 1 9 1 8 9 105 5 1 1 7 2 1 87 5 1 1 1 2 95 4 1 2 1 2 79 26 26 26 37 26 36 37 19 35 17 17 17 17 19 34 11 6 31 
CALL[ ]	/* CallFunction */";
};
width = 335;
}
);
note = dvmII_Anusvara.aLong;
},
{
glyphname = dvmII_Reph.aLong;
lastChange = "2022-10-20 15:49:47 +0000";
layers = (
{
layerId = m01;
shapes = (
{
closed = 1;
nodes = (
(-336,696,l),
(-327,748,ls),
(-317,806,o),
(-216,883,o),
(-86,883,qs),
(47,883,o),
(121,806,o),
(111,748,qs),
(110,740,l),
(27,740,l),
(-3,571,l),
(74,571,l),
(-27,0,l),
(177,0,l),
(278,571,l),
(354,571,l),
(384,740,l),
(308,740,l),
(322,822,ls),
(326,845,o),
(348,877,o),
(374,877,qs),
(397,877,o),
(410,845,o),
(402,812,q),
(583,812,l),
(610,921,o),
(537,1038,o),
(454,1038,qs),
(391,1038,o),
(305,985,o),
(280,942,q),
(199,1054,o),
(-56,1054,qs),
(-269,1054,o),
(-496,899,o),
(-520,763,qs),
(-532,696,l)
);
}
);
userData = {
assembly = "PUSHB[ ]	/* 6 values pushed */
5 1 9 1 1 76 
MPPEM[ ]	/* MeasurePixelPerEm */
PUSHB[ ]	/* 1 value pushed */
20 
LT[ ]	/* LessThan */
IF[ ]	/* If */
NPUSHB[ ]	/* 55 values pushed */
0 2 3 4 3 2 114 0 10 4 5 4 10 5 128 0 6 5 6 134 0 0 0 9 3 0 9 105 0 1 0 3 2 1 3 105 8 1 4 10 5 4 87 8 1 4 4 5 95 7 1 5 4 5 79 
ELSE[ ]	/* Else */
NPUSHB[ ]	/* 56 values pushed */
0 2 3 4 3 2 4 128 0 10 4 5 4 10 5 128 0 6 5 6 134 0 0 0 9 3 0 9 105 0 1 0 3 2 1 3 105 8 1 4 10 5 4 87 8 1 4 4 5 95 7 1 5 4 5 79 
EIF[ ]	/* EndIf */
NPUSHB[ ]	/* 16 values pushed */
37 36 33 31 17 17 17 17 19 34 18 35 34 11 6 31 
CALL[ ]	/* CallFunction */";
};
width = 335;
}
);
note = dvmII_Reph.aLong;
},
{
glyphname = dvmII_Reph_Anusvara.aLong;
lastChange = "2022-10-20 15:49:47 +0000";
layers = (
{
layerId = m01;
shapes = (
{
closed = 1;
nodes = (
(307,740,l),
(320,812,ls),
(327,852,o),
(379,901,o),
(416,901,qs),
(451,901,o),
(483,865,o),
(482,841,q),
(645,841,l),
(663,902,o),
(635,1001,o),
(551,1058,o),
(487,1058,qs),
(413,1058,o),
(309,994,o),
(280,943,q),
(197,1054,o),
(-56,1054,qs),
(-269,1054,o),
(-497,899,o),
(-521,763,qs),
(-533,696,l),
(-337,696,l),
(-327,748,ls),
(-317,806,o),
(-217,883,o),
(-87,883,qs),
(46,883,o),
(121,806,o),
(111,748,qs),
(109,740,l),
(26,740,l),
(-4,571,l),
(73,571,l),
(-27,0,l),
(177,0,l),
(277,571,l),
(353,571,l),
(383,740,l)
);
},
{
closed = 1;
nodes = (
(412,768,o),
(447,797,o),
(451,817,qs),
(454,838,o),
(430,867,o),
(409,867,qs),
(389,867,o),
(354,838,o),
(351,817,qs),
(347,797,o),
(371,768,o),
(391,768,qs)
);
}
);
userData = {
assembly = "PUSHB[ ]	/* 6 values pushed */
22 1 9 6 1 76 
MPPEM[ ]	/* MeasurePixelPerEm */
PUSHB[ ]	/* 1 value pushed */
10 
LT[ ]	/* LessThan */
IF[ ]	/* If */
NPUSHB[ ]	/* 64 values pushed */
0 8 11 12 9 8 114 0 5 3 0 3 5 0 128 0 1 0 1 134 0 7 0 9 4 7 9 105 0 6 0 4 11 6 4 105 0 11 13 1 12 3 11 12 105 10 1 3 5 0 3 87 10 1 3 3 0 95 2 1 0 3 0 79 
ELSE[ ]	/* Else */
MPPEM[ ]	/* MeasurePixelPerEm */
PUSHB[ ]	/* 1 value pushed */
11 
LT[ ]	/* LessThan */
IF[ ]	/* If */
NPUSHB[ ]	/* 63 values pushed */
0 8 11 12 9 8 114 0 5 3 0 3 5 0 128 0 1 0 1 134 0 9 4 6 9 89 7 1 6 0 4 11 6 4 105 0 11 13 1 12 3 11 12 105 10 1 3 5 0 3 87 10 1 3 3 0 95 2 1 0 3 0 79 
ELSE[ ]	/* Else */
MPPEM[ ]	/* MeasurePixelPerEm */
PUSHB[ ]	/* 1 value pushed */
21 
LT[ ]	/* LessThan */
IF[ ]	/* If */
NPUSHB[ ]	/* 64 values pushed */
0 8 11 12 9 8 114 0 5 3 0 3 5 0 128 0 1 0 1 134 0 7 0 9 4 7 9 105 0 6 0 4 11 6 4 105 0 11 13 1 12 3 11 12 105 10 1 3 5 0 3 87 10 1 3 3 0 95 2 1 0 3 0 79 
ELSE[ ]	/* Else */
NPUSHB[ ]	/* 65 values pushed */
0 8 11 12 11 8 12 128 0 5 3 0 3 5 0 128 0 1 0 1 134 0 7 0 9 4 7 9 105 0 6 0 4 11 6 4 105 0 11 13 1 12 3 11 12 105 10 1 3 5 0 3 87 10 1 3 3 0 95 2 1 0 3 0 79 
EIF[ ]	/* EndIf */
EIF[ ]	/* EndIf */
EIF[ ]	/* EndIf */
NPUSHB[ ]	/* 24 values pushed */
39 39 39 50 39 49 45 43 38 37 34 32 19 35 35 19 35 17 17 17 16 14 6 31 
CALL[ ]	/* CallFunction */";
};
width = 335;
}
);
note = dvmII_Reph_Anusvara.aLong;
},
{
glyphname = dvmE_Anusvara;
lastChange = "2022-10-20 15:49:47 +0000";
layers = (
{
layerId = m01;
shapes = (
{
closed = 1;
nodes = (
(-137,859,o),
(-212,973,o),
(-310,1011,o),
(-401,1012,qs),
(-457,1012,l),
(-485,849,l),
(-426,849,ls),
(-384,849,o),
(-339,832,o),
(-307,787,o),
(-283,735,q),
(-93,735,l)
);
},
{
closed = 1;
nodes = (
(54,787,o),
(132,853,o),
(140,900,qs),
(149,948,o),
(94,1014,o),
(46,1014,qs),
(-1,1014,o),
(-79,948,o),
(-88,900,qs),
(-96,853,o),
(-41,787,o),
(6,787,qs)
);
}
);
userData = {
assembly = "MPPEM[ ]	/* MeasurePixelPerEm */
PUSHB[ ]	/* 1 value pushed */
9 
LT[ ]	/* LessThan */
IF[ ]	/* If */
NPUSHB[ ]	/* 27 values pushed */
5 1 2 4 2 134 3 1 1 0 0 4 1 0 105 3 1 1 1 4 97 6 1 4 1 4 81 
ELSE[ ]	/* Else */
MPPEM[ ]	/* MeasurePixelPerEm */
PUSHB[ ]	/* 1 value pushed */
10 
LT[ ]	/* LessThan */
IF[ ]	/* If */
NPUSHB[ ]	/* 31 values pushed */
5 1 2 4 2 134 0 3 1 4 3 89 0 1 0 0 4 1 0 105 0 3 3 4 97 6 1 4 3 4 81 
ELSE[ ]	/* Else */
NPUSHB[ ]	/* 27 values pushed */
5 1 2 4 2 134 3 1 1 0 0 4 1 0 105 3 1 1 1 4 97 6 1 4 1 4 81 
EIF[ ]	/* EndIf */
EIF[ ]	/* EndIf */
NPUSHB[ ]	/* 19 values pushed */
12 12 0 0 12 23 12 22 18 16 0 11 0 11 33 35 7 6 24 
CALL[ ]	/* CallFunction */";
};
width = 0;
}
);
note = dvmE_Anusvara;
},
{
glyphname = dvmE_Reph;
lastChange = "2022-10-20 15:49:47 +0000";
layers = (
{
layerId = m01;
shapes = (
{
closed = 1;
nodes = (
(-95,742,ls),
(-107,776,o),
(-102,808,qs),
(-98,831,o),
(-71,859,o),
(-49,859,qs),
(-27,859,o),
(-12,827,o),
(-18,805,q),
(154,805,l),
(170,863,o),
(152,958,o),
(82,1014,o),
(23,1014,qs),
(-48,1014,o),
(-138,943,o),
(-158,888,q),
(-186,940,o),
(-250,993,o),
(-334,1011,o),
(-401,1012,qs),
(-457,1012,l),
(-485,849,l),
(-426,849,ls),
(-384,849,o),
(-339,832,o),
(-307,787,o),
(-283,735,q),
(-93,735,l)
);
}
);
userData = {
assembly = "PUSHB[ ]	/* 6 values pushed */
11 1 4 1 1 76 
MPPEM[ ]	/* MeasurePixelPerEm */
PUSHB[ ]	/* 1 value pushed */
9 
LT[ ]	/* LessThan */
IF[ ]	/* If */
NPUSHB[ ]	/* 32 values pushed */
0 3 0 5 4 3 114 6 1 5 5 132 2 1 1 0 4 0 1 4 105 2 1 1 1 0 97 0 0 1 0 81 
ELSE[ ]	/* Else */
MPPEM[ ]	/* MeasurePixelPerEm */
PUSHB[ ]	/* 1 value pushed */
10 
LT[ ]	/* LessThan */
IF[ ]	/* If */
NPUSHB[ ]	/* 36 values pushed */
0 3 0 5 4 3 114 6 1 5 5 132 0 1 4 0 1 89 0 2 0 4 0 2 4 105 0 1 1 0 97 0 0 1 0 81 
ELSE[ ]	/* Else */
MPPEM[ ]	/* MeasurePixelPerEm */
PUSHB[ ]	/* 1 value pushed */
24 
LT[ ]	/* LessThan */
IF[ ]	/* If */
NPUSHB[ ]	/* 32 values pushed */
0 3 0 5 4 3 114 6 1 5 5 132 2 1 1 0 4 0 1 4 105 2 1 1 1 0 97 0 0 1 0 81 
ELSE[ ]	/* Else */
NPUSHB[ ]	/* 33 values pushed */
0 3 0 5 0 3 5 128 6 1 5 5 132 2 1 1 0 4 0 1 4 105 2 1 1 1 0 97 0 0 1 0 81 
EIF[ ]	/* EndIf */
EIF[ ]	/* EndIf */
EIF[ ]	/* EndIf */
NPUSHB[ ]	/* 14 values pushed */
0 0 0 28 0 28 34 19 37 33 35 7 6 27 
CALL[ ]	/* CallFunction */";
};
width = 0;
}
);
note = dvmE_Reph;
},
{
glyphname = dvmE_Reph_Anusvara;
lastChange = "2022-10-20 15:49:47 +0000";
layers = (
{
layerId = m01;
shapes = (
{
closed = 1;
nodes = (
(-98,747,ls),
(-112,787,o),
(-106,822,qs),
(-100,856,o),
(-48,902,o),
(-14,902,qs),
(28,902,o),
(61,849,o),
(53,814,q),
(189,814,l),
(206,879,o),
(181,976,o),
(99,1029,o),
(36,1029,qs),
(-40,1029,o),
(-142,957,o),
(-167,901,q),
(-194,947,o),
(-256,994,o),
(-338,1011,o),
(-402,1012,qs),
(-458,1012,l),
(-487,849,l),
(-428,849,ls),
(-386,849,o),
(-341,832,o),
(-309,787,o),
(-284,735,q),
(-94,735,l)
);
},
{
closed = 1;
nodes = (
(-17,770,o),
(18,799,o),
(22,819,qs),
(26,840,o),
(1,869,o),
(-20,869,qs),
(-40,869,o),
(-74,840,o),
(-78,819,qs),
(-82,799,o),
(-58,770,o),
(-38,770,qs)
);
}
);
userData = {
assembly = "PUSHB[ ]	/* 6 values pushed */
11 1 6 4 1 76 
MPPEM[ ]	/* MeasurePixelPerEm */
PUSHB[ ]	/* 1 value pushed */
15 
LT[ ]	/* LessThan */
IF[ ]	/* If */
NPUSHB[ ]	/* 46 values pushed */
0 3 0 7 4 3 114 8 1 5 7 5 134 0 2 0 4 6 2 4 105 0 6 0 7 6 89 0 1 0 0 3 1 0 105 0 6 6 7 97 9 1 7 6 7 81 
ELSE[ ]	/* Else */
NPUSHB[ ]	/* 47 values pushed */
0 3 0 7 0 3 7 128 8 1 5 7 5 134 0 2 0 4 6 2 4 105 0 6 0 7 6 89 0 1 0 0 3 1 0 105 0 6 6 7 97 9 1 7 6 7 81 
EIF[ ]	/* EndIf */
NPUSHB[ ]	/* 22 values pushed */
29 29 0 0 29 40 29 39 35 33 0 28 0 28 34 19 37 33 35 10 6 27 
CALL[ ]	/* CallFunction */";
};
width = 0;
}
);
note = dvmE_Reph_Anusvara;
},
{
glyphname = dvmAI_Anusvara;
lastChange = "2022-10-20 15:49:47 +0000";
layers = (
{
layerId = m01;
shapes = (
{
closed = 1;
nodes = (
(-100,737,l),
(-162,915,o),
(-231,1053,o),
(-315,1091,o),
(-406,1091,qs),
(-466,1091,l),
(-488,965,l),
(-423,965,ls),
(-386,965,o),
(-344,956,o),
(-301,919,o),
(-282,877,q),
(-305,896,o),
(-344,912,o),
(-390,916,o),
(-441,916,qs),
(-497,916,l),
(-519,791,l),
(-458,791,ls),
(-407,791,o),
(-370,788,o),
(-342,777,o),
(-311,759,qs),
(-274,737,l)
);
},
{
closed = 1;
nodes = (
(51,783,o),
(130,849,o),
(138,896,qs),
(146,944,o),
(91,1010,o),
(43,1010,qs),
(-4,1010,o),
(-82,944,o),
(-90,896,qs),
(-98,849,o),
(-44,783,o),
(3,783,qs)
);
}
);
userData = {
assembly = "NPUSHB[ ]	/* 59 values pushed */
11 1 0 1 1 76 0 4 6 4 134 0 5 2 6 5 89 0 3 0 2 1 3 2 105 0 1 0 0 6 1 0 105 0 5 5 6 97 7 1 6 5 6 81 24 24 24 35 24 34 37 19 33 38 33 35 8 6 28 
CALL[ ]	/* CallFunction */";
};
width = 0;
}
);
note = dvmAI_Anusvara;
},
{
glyphname = dvmAI_Reph;
lastChange = "2022-10-20 15:49:47 +0000";
layers = (
{
layerId = m01;
shapes = (
{
closed = 1;
nodes = (
(-100,737,l),
(-104,748,ls),
(-113,781,o),
(-109,808,qs),
(-105,831,o),
(-78,859,o),
(-56,859,qs),
(-34,859,o),
(-19,827,o),
(-25,805,q),
(128,805,l),
(144,863,o),
(129,958,o),
(66,1014,o),
(13,1014,qs),
(-53,1014,o),
(-137,951,o),
(-159,901,q),
(-194,991,o),
(-255,1070,o),
(-331,1091,o),
(-406,1091,qs),
(-466,1091,l),
(-488,965,l),
(-423,965,ls),
(-386,965,o),
(-344,956,o),
(-301,919,o),
(-282,877,q),
(-305,896,o),
(-344,912,o),
(-390,916,o),
(-441,916,qs),
(-497,916,l),
(-519,791,l),
(-458,791,ls),
(-407,791,o),
(-370,788,o),
(-342,777,o),
(-311,759,qs),
(-274,737,l)
);
}
);
userData = {
assembly = "PUSHB[ ]	/* 7 values pushed */
22 11 2 6 1 1 76 
MPPEM[ ]	/* MeasurePixelPerEm */
PUSHB[ ]	/* 1 value pushed */
24 
LT[ ]	/* LessThan */
IF[ ]	/* If */
NPUSHB[ ]	/* 44 values pushed */
0 5 6 0 6 5 114 0 7 0 7 134 0 3 0 2 1 3 2 105 0 1 6 0 1 89 0 4 0 6 5 4 6 105 0 1 1 0 97 0 0 1 0 81 
ELSE[ ]	/* Else */
NPUSHB[ ]	/* 45 values pushed */
0 5 6 0 6 5 0 128 0 7 0 7 134 0 3 0 2 1 3 2 105 0 1 6 0 1 89 0 4 0 6 5 4 6 105 0 1 1 0 97 0 0 1 0 81 
EIF[ ]	/* EndIf */
NPUSHB[ ]	/* 11 values pushed */
21 34 19 37 33 38 33 35 8 6 30 
CALL[ ]	/* CallFunction */";
};
width = 0;
}
);
note = dvmAI_Reph;
},
{
glyphname = dvmAI_Reph_Anusvara;
lastChange = "2022-10-20 15:49:47 +0000";
layers = (
{
layerId = m01;
shapes = (
{
closed = 1;
nodes = (
(-100,737,l),
(-102,741,o),
(-101,742,q),
(-110,768,o),
(-115,799,o),
(-112,818,qs),
(-105,855,o),
(-55,902,o),
(-20,902,qs),
(22,902,o),
(56,849,o),
(47,814,q),
(183,814,l),
(200,876,o),
(176,974,o),
(94,1029,o),
(30,1029,qs),
(-40,1029,o),
(-138,963,o),
(-163,912,q),
(-198,996,o),
(-257,1071,o),
(-332,1091,o),
(-406,1091,qs),
(-466,1091,l),
(-488,965,l),
(-423,965,ls),
(-386,965,o),
(-344,956,o),
(-301,919,o),
(-282,877,q),
(-305,896,o),
(-344,912,o),
(-390,916,o),
(-441,916,qs),
(-497,916,l),
(-519,791,l),
(-458,791,ls),
(-407,791,o),
(-370,788,o),
(-342,777,o),
(-311,759,qs),
(-274,737,l)
);
},
{
closed = 1;
nodes = (
(-22,770,o),
(13,799,o),
(16,819,qs),
(20,840,o),
(-5,869,o),
(-26,869,qs),
(-46,869,o),
(-80,840,o),
(-84,819,qs),
(-87,799,o),
(-63,770,o),
(-43,770,qs)
);
}
);
userData = {
assembly = "NPUSHB[ ]	/* 10 values pushed */
22 1 6 1 11 1 8 6 2 76 
MPPEM[ ]	/* MeasurePixelPerEm */
PUSHB[ ]	/* 1 value pushed */
15 
LT[ ]	/* LessThan */
IF[ ]	/* If */
NPUSHB[ ]	/* 53 values pushed */
0 5 8 0 6 5 114 0 7 9 7 134 0 3 0 2 1 3 2 105 0 4 0 6 8 4 6 105 0 8 5 9 8 89 0 1 0 0 9 1 0 105 0 8 8 9 97 10 1 9 8 9 81 
ELSE[ ]	/* Else */
NPUSHB[ ]	/* 54 values pushed */
0 5 8 0 8 5 0 128 0 7 9 7 134 0 3 0 2 1 3 2 105 0 4 0 6 8 4 6 105 0 8 5 9 8 89 0 1 0 0 9 1 0 105 0 8 8 9 97 10 1 9 8 9 81 
EIF[ ]	/* EndIf */
NPUSHB[ ]	/* 18 values pushed */
43 43 43 54 43 53 37 53 34 19 37 33 38 33 35 11 6 31 
CALL[ ]	/* CallFunction */";
};
width = 0;
}
);
note = dvmAI_Reph_Anusvara;
},
{
glyphname = dvmO_Anusvara;
lastChange = "2022-10-20 15:49:47 +0000";
layers = (
{
layerId = m01;
shapes = (
{
closed = 1;
nodes = (
(181,0,l),
(281,571,l),
(357,571,l),
(387,740,l),
(306,740,l),
(262,861,o),
(189,974,o),
(91,1011,o),
(0,1012,qs),
(-56,1012,l),
(-85,849,l),
(-26,849,ls),
(16,849,o),
(60,832,o),
(92,789,o),
(116,740,q),
(30,740,l),
(0,571,l),
(77,571,l),
(-23,0,l)
);
},
{
closed = 1;
nodes = (
(454,787,o),
(533,853,o),
(541,900,qs),
(550,948,o),
(494,1014,o),
(446,1014,qs),
(399,1014,o),
(322,948,o),
(313,900,qs),
(305,853,o),
(359,787,o),
(406,787,qs)
);
}
);
userData = {
assembly = "MPPEM[ ]	/* MeasurePixelPerEm */
PUSHB[ ]	/* 1 value pushed */
9 
LT[ ]	/* LessThan */
IF[ ]	/* If */
NPUSHB[ ]	/* 40 values pushed */
0 6 0 6 134 0 2 8 3 2 89 7 1 3 9 1 8 1 3 8 105 4 1 1 0 0 1 87 4 1 1 1 0 95 5 1 0 1 0 79 
ELSE[ ]	/* Else */
MPPEM[ ]	/* MeasurePixelPerEm */
PUSHB[ ]	/* 1 value pushed */
10 
LT[ ]	/* LessThan */
IF[ ]	/* If */
NPUSHB[ ]	/* 41 values pushed */
0 6 0 6 134 0 3 0 2 8 3 2 105 0 7 9 1 8 1 7 8 105 4 1 1 0 0 1 87 4 1 1 1 0 95 5 1 0 1 0 79 
ELSE[ ]	/* Else */
NPUSHB[ ]	/* 40 values pushed */
0 6 0 6 134 0 2 8 3 2 89 7 1 3 9 1 8 1 3 8 105 4 1 1 0 0 1 87 4 1 1 1 0 95 5 1 0 1 0 79 
EIF[ ]	/* EndIf */
EIF[ ]	/* EndIf */
NPUSHB[ ]	/* 17 values pushed */
20 20 20 31 20 30 37 17 17 19 33 35 17 16 10 6 30 
CALL[ ]	/* CallFunction */";
};
width = 335;
}
);
note = dvmO_Anusvara;
},
{
glyphname = dvmO_Reph;
lastChange = "2022-10-20 15:49:47 +0000";
layers = (
{
layerId = m01;
shapes = (
{
closed = 1;
nodes = (
(181,0,l),
(281,571,l),
(357,571,l),
(387,740,l),
(306,740,l),
(305,742,ls),
(293,776,o),
(299,808,qs),
(303,831,o),
(330,859,o),
(352,859,qs),
(374,859,o),
(388,827,o),
(383,805,q),
(555,805,l),
(571,863,o),
(553,958,o),
(482,1014,o),
(423,1014,qs),
(352,1014,o),
(263,943,o),
(243,888,q),
(214,940,o),
(151,993,o),
(67,1011,o),
(0,1012,qs),
(-56,1012,l),
(-85,849,l),
(-26,849,ls),
(16,849,o),
(60,832,o),
(92,789,o),
(116,740,q),
(30,740,l),
(0,571,l),
(77,571,l),
(-23,0,l)
);
}
);
userData = {
assembly = "PUSHB[ ]	/* 6 values pushed */
14 1 6 3 1 76 
MPPEM[ ]	/* MeasurePixelPerEm */
PUSHB[ ]	/* 1 value pushed */
9 
LT[ ]	/* LessThan */
IF[ ]	/* If */
NPUSHB[ ]	/* 46 values pushed */
0 5 2 1 6 5 114 0 9 0 9 134 0 6 2 3 6 89 4 1 3 0 2 5 3 2 105 7 1 1 0 0 1 87 7 1 1 1 0 95 8 1 0 1 0 79 
ELSE[ ]	/* Else */
MPPEM[ ]	/* MeasurePixelPerEm */
PUSHB[ ]	/* 1 value pushed */
10 
LT[ ]	/* LessThan */
IF[ ]	/* If */
NPUSHB[ ]	/* 47 values pushed */
0 5 2 1 6 5 114 0 9 0 9 134 0 4 0 6 2 4 6 105 0 3 0 2 5 3 2 105 7 1 1 0 0 1 87 7 1 1 1 0 95 8 1 0 1 0 79 
ELSE[ ]	/* Else */
MPPEM[ ]	/* MeasurePixelPerEm */
PUSHB[ ]	/* 1 value pushed */
24 
LT[ ]	/* LessThan */
IF[ ]	/* If */
NPUSHB[ ]	/* 46 values pushed */
0 5 2 1 6 5 114 0 9 0 9 134 0 6 2 3 6 89 4 1 3 0 2 5 3 2 105 7 1 1 0 0 1 87 7 1 1 1 0 95 8 1 0 1 0 79 
ELSE[ ]	/* Else */
NPUSHB[ ]	/* 47 values pushed */
0 5 2 1 2 5 1 128 0 9 0 9 134 0 6 2 3 6 89 4 1 3 0 2 5 3 2 105 7 1 1 0 0 1 87 7 1 1 1 0 95 8 1 0 1 0 79 
EIF[ ]	/* EndIf */
EIF[ ]	/* EndIf */
EIF[ ]	/* EndIf */
NPUSHB[ ]	/* 14 values pushed */
36 35 17 36 34 19 37 33 35 17 16 10 6 31 
CALL[ ]	/* CallFunction */";
};
width = 335;
}
);
note = dvmO_Reph;
},
{
glyphname = dvmO_Reph_Anusvara;
lastChange = "2022-10-20 15:49:47 +0000";
layers = (
{
layerId = m01;
shapes = (
{
closed = 1;
nodes = (
(280,571,l),
(356,571,l),
(386,740,l),
(305,740,l),
(303,747,ls),
(289,787,o),
(295,822,qs),
(301,856,o),
(352,902,o),
(386,902,qs),
(428,902,o),
(462,849,o),
(454,814,q),
(590,814,l),
(607,879,o),
(581,976,o),
(500,1029,o),
(437,1029,qs),
(361,1029,o),
(259,957,o),
(234,901,q),
(207,947,o),
(145,994,o),
(63,1011,o),
(-1,1012,qs),
(-57,1012,l),
(-86,849,l),
(-27,849,ls),
(15,849,o),
(59,832,o),
(90,789,o),
(115,740,q),
(29,740,l),
(-1,571,l),
(76,571,l),
(-25,0,l),
(179,0,l)
);
},
{
closed = 1;
nodes = (
(384,770,o),
(419,799,o),
(423,819,qs),
(426,840,o),
(402,869,o),
(381,869,qs),
(361,869,o),
(326,840,o),
(323,819,qs),
(319,799,o),
(343,770,o),
(363,770,qs)
);
}
);
userData = {
assembly = "PUSHB[ ]	/* 6 values pushed */
15 1 10 6 1 76 
MPPEM[ ]	/* MeasurePixelPerEm */
PUSHB[ ]	/* 1 value pushed */
15 
LT[ ]	/* LessThan */
IF[ ]	/* If */
NPUSHB[ ]	/* 57 values pushed */
0 5 2 11 6 5 114 12 1 9 0 9 134 0 4 0 6 10 4 6 105 0 3 0 2 5 3 2 105 0 10 13 1 11 1 10 11 105 7 1 1 0 0 1 87 7 1 1 1 0 95 8 1 0 1 0 79 
ELSE[ ]	/* Else */
NPUSHB[ ]	/* 58 values pushed */
0 5 2 11 2 5 11 128 12 1 9 0 9 134 0 4 0 6 10 4 6 105 0 3 0 2 5 3 2 105 0 10 13 1 11 1 10 11 105 7 1 1 0 0 1 87 7 1 1 1 0 95 8 1 0 1 0 79 
EIF[ ]	/* EndIf */
NPUSHB[ ]	/* 26 values pushed */
37 37 0 0 37 48 37 47 43 41 0 36 0 36 17 21 34 19 37 33 35 17 17 14 6 31 
CALL[ ]	/* CallFunction */";
};
width = 335;
}
);
note = dvmO_Reph_Anusvara;
},
{
glyphname = dvmAU_Anusvara;
lastChange = "2022-10-20 15:49:47 +0000";
layers = (
{
layerId = m01;
shapes = (
{
closed = 1;
nodes = (
(174,0,l),
(274,571,l),
(350,571,l),
(380,740,l),
(292,740,l),
(232,917,o),
(162,1053,o),
(79,1091,o),
(-12,1091,qs),
(-72,1091,l),
(-94,965,l),
(-29,965,ls),
(8,965,o),
(50,956,o),
(93,919,o),
(112,877,q),
(89,896,o),
(50,912,o),
(4,916,o),
(-47,916,qs),
(-103,916,l),
(-125,791,l),
(-64,791,ls),
(-13,791,o),
(24,788,o),
(52,776,o),
(82,758,qs),
(114,740,l),
(23,740,l),
(-7,571,l),
(70,571,l),
(-30,0,l)
);
},
{
closed = 1;
nodes = (
(445,783,o),
(524,849,o),
(532,896,qs),
(540,944,o),
(485,1010,o),
(437,1010,qs),
(390,1010,o),
(312,944,o),
(304,896,qs),
(296,849,o),
(350,783,o),
(397,783,qs)
);
}
);
userData = {
assembly = "NPUSHB[ ]	/* 75 values pushed */
15 1 2 3 1 76 0 8 0 8 134 0 5 0 4 3 5 4 105 0 3 0 2 10 3 2 105 0 9 11 1 10 1 9 10 105 6 1 1 0 0 1 87 6 1 1 1 0 95 7 1 0 1 0 79 32 32 32 43 32 42 38 36 17 17 19 33 38 33 36 17 16 12 6 31 
CALL[ ]	/* CallFunction */";
};
width = 335;
}
);
note = dvmAU_Anusvara;
},
{
glyphname = dvmAU_Reph;
lastChange = "2022-10-20 15:49:47 +0000";
layers = (
{
layerId = m01;
shapes = (
{
closed = 1;
nodes = (
(174,0,l),
(274,571,l),
(350,571,l),
(380,740,l),
(292,740,l),
(290,748,ls),
(281,781,o),
(285,808,qs),
(289,831,o),
(316,859,o),
(338,859,qs),
(360,859,o),
(375,827,o),
(369,805,q),
(522,805,l),
(538,863,o),
(523,958,o),
(460,1014,o),
(407,1014,qs),
(341,1014,o),
(257,951,o),
(235,901,q),
(200,991,o),
(138,1070,o),
(63,1091,o),
(-12,1091,qs),
(-72,1091,l),
(-94,965,l),
(-29,965,ls),
(8,965,o),
(50,956,o),
(93,919,o),
(112,877,q),
(89,896,o),
(50,912,o),
(4,916,o),
(-47,916,qs),
(-103,916,l),
(-125,791,l),
(-64,791,ls),
(-13,791,o),
(24,788,o),
(52,776,o),
(82,758,qs),
(114,740,l),
(23,740,l),
(-7,571,l),
(70,571,l),
(-30,0,l)
);
}
);
userData = {
assembly = "PUSHB[ ]	/* 7 values pushed */
26 15 2 8 3 1 76 
MPPEM[ ]	/* MeasurePixelPerEm */
PUSHB[ ]	/* 1 value pushed */
24 
LT[ ]	/* LessThan */
IF[ ]	/* If */
NPUSHB[ ]	/* 55 values pushed */
0 7 8 2 8 7 114 0 11 0 11 134 0 5 0 4 3 5 4 105 0 6 0 8 7 6 8 105 0 3 0 2 1 3 2 105 9 1 1 0 0 1 87 9 1 1 1 0 95 10 1 0 1 0 79 
ELSE[ ]	/* Else */
NPUSHB[ ]	/* 56 values pushed */
0 7 8 2 8 7 2 128 0 11 0 11 134 0 5 0 4 3 5 4 105 0 6 0 8 7 6 8 105 0 3 0 2 1 3 2 105 9 1 1 0 0 1 87 9 1 1 1 0 95 10 1 0 1 0 79 
EIF[ ]	/* EndIf */
NPUSHB[ ]	/* 18 values pushed */
48 47 46 45 44 43 34 19 37 33 38 33 36 17 16 12 6 31 
CALL[ ]	/* CallFunction */";
};
width = 335;
}
);
note = dvmAU_Reph;
},
{
glyphname = dvmAU_Reph_Anusvara;
lastChange = "2022-10-20 15:49:47 +0000";
layers = (
{
layerId = m01;
shapes = (
{
closed = 1;
nodes = (
(174,0,l),
(274,571,l),
(350,571,l),
(380,740,l),
(292,740,l),
(290,746,ls),
(283,768,o),
(279,799,o),
(282,818,qs),
(289,855,o),
(339,902,o),
(374,902,qs),
(416,902,o),
(450,849,o),
(441,814,q),
(577,814,l),
(594,876,o),
(570,974,o),
(488,1029,o),
(424,1029,qs),
(354,1029,o),
(256,963,o),
(231,912,q),
(196,996,o),
(137,1071,o),
(62,1091,o),
(-12,1091,qs),
(-72,1091,l),
(-94,965,l),
(-29,965,ls),
(8,965,o),
(50,956,o),
(93,919,o),
(112,877,q),
(89,896,o),
(50,912,o),
(4,916,o),
(-47,916,qs),
(-103,916,l),
(-125,791,l),
(-64,791,ls),
(-13,791,o),
(24,788,o),
(52,776,o),
(82,758,qs),
(114,740,l),
(23,740,l),
(-7,571,l),
(70,571,l),
(-30,0,l)
);
},
{
closed = 1;
nodes = (
(372,770,o),
(407,799,o),
(410,819,qs),
(414,840,o),
(389,869,o),
(368,869,qs),
(348,869,o),
(314,840,o),
(310,819,qs),
(307,799,o),
(331,770,o),
(351,770,qs)
);
}
);
userData = {
assembly = "NPUSHB[ ]	/* 10 values pushed */
26 1 8 3 15 1 12 8 2 76 
MPPEM[ ]	/* MeasurePixelPerEm */
PUSHB[ ]	/* 1 value pushed */
15 
LT[ ]	/* LessThan */
IF[ ]	/* If */
NPUSHB[ ]	/* 64 values pushed */
0 7 12 2 8 7 114 0 11 0 11 134 0 5 0 4 3 5 4 105 0 6 0 8 12 6 8 105 0 3 0 2 13 3 2 105 0 12 14 1 13 1 12 13 105 9 1 1 0 0 1 87 9 1 1 1 0 95 10 1 0 1 0 79 
ELSE[ ]	/* Else */
NPUSHB[ ]	/* 65 values pushed */
0 7 12 2 12 7 2 128 0 11 0 11 134 0 5 0 4 3 5 4 105 0 6 0 8 12 6 8 105 0 3 0 2 13 3 2 105 0 12 14 1 13 1 12 13 105 9 1 1 0 0 1 87 9 1 1 1 0 95 10 1 0 1 0 79 
EIF[ ]	/* EndIf */
NPUSHB[ ]	/* 26 values pushed */
50 50 50 61 50 60 56 54 49 48 47 46 45 44 34 19 37 33 38 33 36 17 16 15 6 31 
CALL[ ]	/* CallFunction */";
};
width = 335;
}
);
note = dvmAU_Reph_Anusvara;
},
{
glyphname = dvmEcandra_Anusvara;
lastChange = "2022-10-20 15:49:47 +0000";
layers = (
{
layerId = m01;
shapes = (
{
closed = 1;
nodes = (
(-69,807,o),
(87,926,o),
(107,1040,q),
(-56,1040,l),
(-63,1000,o),
(-125,950,o),
(-171,950,qs),
(-217,950,o),
(-263,1000,o),
(-256,1040,q),
(-417,1040,l),
(-437,926,o),
(-323,807,o),
(-196,807,qs)
);
},
{
closed = 1;
nodes = (
(-134,989,o),
(-84,1031,o),
(-79,1062,qs),
(-74,1092,o),
(-108,1135,o),
(-140,1135,qs),
(-169,1135,o),
(-220,1092,o),
(-225,1062,qs),
(-230,1032,o),
(-196,989,o),
(-166,989,qs)
);
}
);
userData = {
assembly = "MPPEM[ ]	/* MeasurePixelPerEm */
PUSHB[ ]	/* 1 value pushed */
14 
LT[ ]	/* LessThan */
IF[ ]	/* If */
NPUSHB[ ]	/* 34 values pushed */
2 1 0 4 5 1 0 114 0 4 7 1 5 1 4 5 105 0 1 3 3 1 89 0 1 1 3 98 6 1 3 1 3 82 
ELSE[ ]	/* Else */
NPUSHB[ ]	/* 35 values pushed */
2 1 0 4 5 4 0 5 128 0 4 7 1 5 1 4 5 105 0 1 3 3 1 89 0 1 1 3 98 6 1 3 1 3 82 
EIF[ ]	/* EndIf */
NPUSHB[ ]	/* 20 values pushed */
14 14 0 0 14 25 14 24 20 18 0 13 0 12 18 34 18 8 6 25 
CALL[ ]	/* CallFunction */";
};
width = 0;
}
);
note = dvmEcandra_Anusvara;
},
{
glyphname = dvmOcandra_Anusvara;
lastChange = "2022-10-20 15:49:47 +0000";
layers = (
{
layerId = m01;
shapes = (
{
closed = 1;
nodes = (
(-34,0,l),
(170,0,l),
(271,571,l),
(347,571,l),
(376,740,l),
(19,740,l),
(-10,571,l),
(67,571,l)
);
},
{
closed = 1;
nodes = (
(337,807,o),
(493,926,o),
(513,1040,q),
(350,1040,l),
(343,1000,o),
(281,950,o),
(235,950,qs),
(189,950,o),
(143,1000,o),
(150,1040,q),
(-11,1040,l),
(-31,926,o),
(83,807,o),
(210,807,qs)
);
},
{
closed = 1;
nodes = (
(272,989,o),
(322,1031,o),
(327,1062,qs),
(332,1092,o),
(298,1135,o),
(266,1135,qs),
(237,1135,o),
(186,1092,o),
(181,1062,qs),
(176,1032,o),
(211,989,o),
(240,989,qs)
);
}
);
userData = {
assembly = "MPPEM[ ]	/* MeasurePixelPerEm */
PUSHB[ ]	/* 1 value pushed */
14 
LT[ ]	/* LessThan */
IF[ ]	/* If */
NPUSHB[ ]	/* 49 values pushed */
6 1 4 8 9 5 4 114 0 2 1 2 134 0 8 12 1 9 5 8 9 105 0 5 11 1 7 0 5 7 106 0 0 1 1 0 87 0 0 0 1 95 10 3 2 1 0 1 79 
ELSE[ ]	/* Else */
NPUSHB[ ]	/* 50 values pushed */
6 1 4 8 9 8 4 9 128 0 2 1 2 134 0 8 12 1 9 5 8 9 105 0 5 11 1 7 0 5 7 106 0 0 1 1 0 87 0 0 0 1 95 10 3 2 1 0 1 79 
EIF[ ]	/* EndIf */
NPUSHB[ ]	/* 32 values pushed */
22 22 8 8 0 0 22 33 22 32 28 26 8 21 8 20 18 17 15 13 11 10 0 7 0 7 17 17 17 13 6 25 
CALL[ ]	/* CallFunction */";
};
width = 335;
}
);
note = dvmOcandra_Anusvara;
},
{
glyphname = dvRA_mU;
lastChange = "2022-10-20 15:49:47 +0000";
layers = (
{
layerId = m01;
shapes = (
{
closed = 1;
nodes = (
(25,571,l),
(308,571,l),
(304,545,ls),
(294,493,o),
(233,438,o),
(161,438,qs),
(63,438,l),
(22,209,ls),
(11,147,o),
(48,48,o),
(143,-9,o),
(217,-9,qs),
(320,-9,o),
(455,106,o),
(472,203,qs),
(475,221,l),
(280,221,l),
(275,196,ls),
(273,182,o),
(256,164,o),
(243,164,qs),
(216,164,o),
(223,199,qs),
(236,276,l),
(567,276,ls),
(585,276,o),
(601,260,o),
(599,247,qs),
(594,217,o),
(554,217,qs),
(543,217,o),
(525,219,q),
(497,58,l),
(518,54,o),
(544,54,qs),
(636,54,o),
(763,156,o),
(778,240,qs),
(813,438,o),
(579,438,qs),
(468,438,l),
(498,489,o),
(508,545,qs),
(512,571,l),
(869,571,l),
(899,740,l),
(55,740,l)
);
}
);
userData = {
assembly = "MPPEM[ ]	/* MeasurePixelPerEm */
PUSHB[ ]	/* 1 value pushed */
10 
LT[ ]	/* LessThan */
IF[ ]	/* If */
NPUSHB[ ]	/* 10 values pushed */
14 1 3 6 13 1 2 5 2 76 
ELSE[ ]	/* Else */
MPPEM[ ]	/* MeasurePixelPerEm */
PUSHB[ ]	/* 1 value pushed */
11 
LT[ ]	/* LessThan */
IF[ ]	/* If */
NPUSHB[ ]	/* 10 values pushed */
14 1 3 4 13 1 2 5 2 76 
ELSE[ ]	/* Else */
NPUSHB[ ]	/* 10 values pushed */
14 1 3 6 13 1 2 5 2 76 
EIF[ ]	/* EndIf */
EIF[ ]	/* EndIf */
MPPEM[ ]	/* MeasurePixelPerEm */
PUSHB[ ]	/* 1 value pushed */
10 
LT[ ]	/* LessThan */
IF[ ]	/* If */
NPUSHB[ ]	/* 50 values pushed */
0 6 4 3 5 6 114 11 1 10 9 1 0 1 10 0 103 8 1 1 0 4 6 1 4 103 0 5 2 7 5 89 0 3 0 2 7 3 2 105 0 5 5 7 98 0 7 5 7 82 
ELSE[ ]	/* Else */
MPPEM[ ]	/* MeasurePixelPerEm */
PUSHB[ ]	/* 1 value pushed */
11 
LT[ ]	/* LessThan */
IF[ ]	/* If */
NPUSHB[ ]	/* 44 values pushed */
11 1 10 9 1 0 1 10 0 103 8 1 1 0 4 3 1 4 103 0 5 2 7 5 89 6 1 3 0 2 7 3 2 105 0 5 5 7 98 0 7 5 7 82 
ELSE[ ]	/* Else */
MPPEM[ ]	/* MeasurePixelPerEm */
PUSHB[ ]	/* 1 value pushed */
22 
LT[ ]	/* LessThan */
IF[ ]	/* If */
NPUSHB[ ]	/* 50 values pushed */
0 6 4 3 5 6 114 11 1 10 9 1 0 1 10 0 103 8 1 1 0 4 6 1 4 103 0 5 2 7 5 89 0 3 0 2 7 3 2 105 0 5 5 7 98 0 7 5 7 82 
ELSE[ ]	/* Else */
NPUSHB[ ]	/* 51 values pushed */
0 6 4 3 4 6 3 128 11 1 10 9 1 0 1 10 0 103 8 1 1 0 4 6 1 4 103 0 5 2 7 5 89 0 3 0 2 7 3 2 105 0 5 5 7 98 0 7 5 7 82 
EIF[ ]	/* EndIf */
EIF[ ]	/* EndIf */
EIF[ ]	/* EndIf */
NPUSHB[ ]	/* 20 values pushed */
0 0 0 46 0 46 45 44 36 35 19 34 35 35 35 35 17 12 6 31 
CALL[ ]	/* CallFunction */";
};
width = 821;
}
);
note = dvRA_mU;
},
{
glyphname = dvRA_mUU;
lastChange = "2022-10-20 15:49:47 +0000";
layers = (
{
layerId = m01;
shapes = (
{
closed = 1;
nodes = (
(25,571,l),
(308,571,l),
(304,545,ls),
(294,493,o),
(233,438,o),
(161,438,qs),
(63,438,l),
(22,209,ls),
(11,147,o),
(48,48,o),
(143,-9,o),
(217,-9,qs),
(320,-9,o),
(455,106,o),
(472,203,qs),
(475,221,l),
(280,221,l),
(275,196,ls),
(273,182,o),
(256,164,o),
(243,164,qs),
(216,164,o),
(223,199,qs),
(236,276,l),
(465,276,ls),
(505,276,o),
(540,233,o),
(533,198,qs),
(519,116,l),
(708,116,l),
(723,203,ls),
(743,312,o),
(639,438,o),
(516,438,qs),
(468,438,l),
(498,489,o),
(508,545,qs),
(512,571,l),
(824,571,l),
(854,740,l),
(55,740,l)
);
}
);
userData = {
assembly = "MPPEM[ ]	/* MeasurePixelPerEm */
PUSHB[ ]	/* 1 value pushed */
22 
LT[ ]	/* LessThan */
IF[ ]	/* If */
NPUSHB[ ]	/* 50 values pushed */
0 5 3 4 4 5 114 0 2 4 6 4 2 6 128 10 1 9 8 1 0 1 9 0 103 7 1 1 0 3 5 1 3 103 0 4 2 6 4 89 0 4 4 6 98 0 6 4 6 82 
ELSE[ ]	/* Else */
NPUSHB[ ]	/* 51 values pushed */
0 5 3 4 3 5 4 128 0 2 4 6 4 2 6 128 10 1 9 8 1 0 1 9 0 103 7 1 1 0 3 5 1 3 103 0 4 2 6 4 89 0 4 4 6 98 0 6 4 6 82 
EIF[ ]	/* EndIf */
NPUSHB[ ]	/* 18 values pushed */
0 0 0 40 0 40 19 36 35 19 34 35 19 35 17 11 6 31 
CALL[ ]	/* CallFunction */";
};
width = 777;
}
);
note = dvRA_mUU;
},
{
glyphname = dvmI.a01;
lastChange = "2022-10-20 15:49:47 +0000";
layers = (
{
layerId = m01;
shapes = (
{
closed = 1;
nodes = (
(278,571,l),
(354,571,l),
(384,740,l),
(307,740,l),
(326,809,o),
(433,888,o),
(503,888,qs),
(552,888,o),
(623,845,o),
(655,765,o),
(645,710,qs),
(643,696,l),
(841,696,l),
(844,714,ls),
(861,808,o),
(802,962,o),
(650,1053,o),
(532,1053,qs),
(417,1053,o),
(238,971,o),
(125,829,o),
(105,740,q),
(27,740,l),
(-3,571,l),
(74,571,l),
(-27,0,l),
(177,0,l)
);
}
);
userData = {
assembly = "NPUSHB[ ]	/* 57 values pushed */
0 3 1 0 1 3 0 128 8 1 7 0 7 134 0 2 0 4 1 2 4 105 5 1 1 3 0 1 87 5 1 1 1 0 95 6 1 0 1 0 79 0 0 0 26 0 26 17 18 36 20 35 17 17 9 6 29 
CALL[ ]	/* CallFunction */";
};
width = 335;
}
);
note = dvmI.a01;
},
{
glyphname = dvmI.a02;
lastChange = "2022-10-20 15:49:47 +0000";
layers = (
{
layerId = m01;
shapes = (
{
closed = 1;
nodes = (
(278,571,l),
(354,571,l),
(384,740,l),
(307,740,l),
(326,811,o),
(444,889,o),
(531,889,qs),
(625,889,o),
(718,793,o),
(703,708,qs),
(700,694,l),
(899,694,l),
(903,713,ls),
(920,809,o),
(857,964,o),
(691,1054,o),
(560,1054,qs),
(434,1054,o),
(244,973,o),
(126,831,o),
(105,740,q),
(27,740,l),
(-3,571,l),
(74,571,l),
(-27,0,l),
(177,0,l)
);
}
);
userData = {
assembly = "NPUSHB[ ]	/* 57 values pushed */
0 3 1 0 1 3 0 128 8 1 7 0 7 134 0 2 0 4 1 2 4 105 5 1 1 3 0 1 87 5 1 1 1 0 95 6 1 0 1 0 79 0 0 0 25 0 25 17 18 35 20 35 17 17 9 6 29 
CALL[ ]	/* CallFunction */";
};
width = 335;
}
);
note = dvmI.a02;
},
{
glyphname = dvmI.a03;
lastChange = "2022-10-20 15:49:47 +0000";
layers = (
{
layerId = m01;
shapes = (
{
closed = 1;
nodes = (
(278,571,l),
(354,571,l),
(383,740,l),
(306,740,l),
(327,813,o),
(455,890,o),
(558,890,qs),
(671,890,o),
(776,794,o),
(760,705,qs),
(758,692,l),
(958,692,l),
(961,710,ls),
(979,809,o),
(912,965,o),
(733,1055,o),
(589,1055,qs),
(451,1055,o),
(248,974,o),
(126,832,o),
(104,740,q),
(26,740,l),
(-3,571,l),
(74,571,l),
(-27,0,l),
(177,0,l)
);
}
);
userData = {
assembly = "NPUSHB[ ]	/* 57 values pushed */
0 3 1 0 1 3 0 128 8 1 7 0 7 134 0 2 0 4 1 2 4 105 5 1 1 3 0 1 87 5 1 1 1 0 95 6 1 0 1 0 79 0 0 0 25 0 25 17 18 35 20 35 17 17 9 6 29 
CALL[ ]	/* CallFunction */";
};
width = 335;
}
);
note = dvmI.a03;
},
{
glyphname = dvmI.a04;
lastChange = "2022-10-20 15:49:47 +0000";
layers = (
{
layerId = m01;
shapes = (
{
closed = 1;
nodes = (
(278,571,l),
(354,571,l),
(383,740,l),
(306,740,l),
(349,891,o),
(585,891,qs),
(718,891,o),
(835,795,o),
(819,703,qs),
(817,691,l),
(1016,691,l),
(1019,708,ls),
(1037,809,o),
(966,966,o),
(774,1056,o),
(616,1056,qs),
(394,1056,o),
(139,885,o),
(104,740,q),
(26,740,l),
(-3,571,l),
(74,571,l),
(-27,0,l),
(177,0,l)
);
}
);
userData = {
assembly = "NPUSHB[ ]	/* 57 values pushed */
0 3 1 0 1 3 0 128 8 1 7 0 7 134 0 2 0 4 1 2 4 105 5 1 1 3 0 1 87 5 1 1 1 0 95 6 1 0 1 0 79 0 0 0 23 0 23 17 17 35 20 34 17 17 9 6 29 
CALL[ ]	/* CallFunction */";
};
width = 335;
}
);
note = dvmI.a04;
},
{
glyphname = dvmI.a05;
lastChange = "2022-10-20 15:49:47 +0000";
layers = (
{
layerId = m01;
shapes = (
{
closed = 1;
nodes = (
(277,571,l),
(353,571,l),
(383,740,l),
(306,740,l),
(328,815,o),
(476,892,o),
(613,892,qs),
(911,892,o),
(877,701,qs),
(875,689,l),
(1074,689,l),
(1077,706,ls),
(1095,809,o),
(1020,967,o),
(815,1057,o),
(645,1057,qs),
(405,1057,o),
(139,887,o),
(104,740,q),
(26,740,l),
(-4,571,l),
(73,571,l),
(-27,0,l),
(177,0,l)
);
}
);
userData = {
assembly = "NPUSHB[ ]	/* 57 values pushed */
0 3 1 0 1 3 0 128 8 1 7 0 7 134 0 2 0 4 1 2 4 105 5 1 1 3 0 1 87 5 1 1 1 0 95 6 1 0 1 0 79 0 0 0 23 0 23 17 18 34 20 34 17 17 9 6 29 
CALL[ ]	/* CallFunction */";
};
width = 335;
}
);
note = dvmI.a05;
},
{
glyphname = dvmI.a06;
lastChange = "2022-10-20 15:49:47 +0000";
layers = (
{
layerId = m01;
shapes = (
{
closed = 1;
nodes = (
(277,571,l),
(353,571,l),
(383,740,l),
(306,740,l),
(329,816,o),
(486,893,o),
(640,893,qs),
(811,893,o),
(951,796,o),
(934,699,qs),
(932,687,l),
(1132,687,l),
(1135,704,ls),
(1164,867,o),
(945,1058,o),
(673,1058,qs),
(416,1058,o),
(139,889,o),
(104,740,q),
(26,740,l),
(-4,571,l),
(73,571,l),
(-27,0,l),
(177,0,l)
);
}
);
userData = {
assembly = "NPUSHB[ ]	/* 57 values pushed */
0 3 1 0 1 3 0 128 8 1 7 0 7 134 0 2 0 4 1 2 4 105 5 1 1 3 0 1 87 5 1 1 1 0 95 6 1 0 1 0 79 0 0 0 23 0 23 17 18 35 19 34 17 17 9 6 29 
CALL[ ]	/* CallFunction */";
};
width = 335;
}
);
note = dvmI.a06;
},
{
glyphname = dvmI.a07;
lastChange = "2022-10-20 15:49:47 +0000";
layers = (
{
layerId = m01;
shapes = (
{
closed = 1;
nodes = (
(277,571,l),
(353,571,l),
(383,740,l),
(306,740,l),
(329,818,o),
(497,893,o),
(668,893,qs),
(859,893,o),
(1010,797,o),
(993,697,qs),
(991,685,l),
(1190,685,l),
(1193,702,ls),
(1222,868,o),
(992,1058,o),
(702,1058,qs),
(427,1058,o),
(141,892,o),
(104,740,q),
(26,740,l),
(-4,571,l),
(73,571,l),
(-27,0,l),
(177,0,l)
);
}
);
userData = {
assembly = "NPUSHB[ ]	/* 57 values pushed */
0 3 1 0 1 3 0 128 8 1 7 0 7 134 0 2 0 4 1 2 4 105 5 1 1 3 0 1 87 5 1 1 1 0 95 6 1 0 1 0 79 0 0 0 23 0 23 17 18 35 19 34 17 17 9 6 29 
CALL[ ]	/* CallFunction */";
};
width = 335;
}
);
note = dvmI.a07;
},
{
glyphname = dvmI.a08;
lastChange = "2022-10-20 15:49:47 +0000";
layers = (
{
layerId = m01;
shapes = (
{
closed = 1;
nodes = (
(277,571,l),
(353,571,l),
(383,740,l),
(306,740,l),
(321,792,o),
(406,860,o),
(568,894,o),
(696,894,qs),
(837,894,o),
(1002,851,o),
(1063,763,o),
(1051,695,qs),
(1049,684,l),
(1248,684,l),
(1251,700,ls),
(1314,1059,o),
(731,1059,qs),
(437,1059,o),
(141,894,o),
(104,740,q),
(26,740,l),
(-4,571,l),
(73,571,l),
(-27,0,l),
(177,0,l)
);
}
);
userData = {
assembly = "NPUSHB[ ]	/* 57 values pushed */
0 3 1 0 1 3 0 128 8 1 7 0 7 134 0 2 0 4 1 2 4 105 5 1 1 3 0 1 87 5 1 1 1 0 95 6 1 0 1 0 79 0 0 0 24 0 24 17 19 36 18 34 17 17 9 6 29 
CALL[ ]	/* CallFunction */";
};
width = 335;
}
);
note = dvmI.a08;
},
{
glyphname = dvmI.a09;
lastChange = "2022-10-20 15:49:47 +0000";
layers = (
{
layerId = m01;
shapes = (
{
closed = 1;
nodes = (
(277,571,l),
(353,571,l),
(383,740,l),
(306,740,l),
(321,793,o),
(410,861,o),
(582,895,o),
(722,895,qs),
(877,895,o),
(1054,851,o),
(1119,763,o),
(1107,692,qs),
(1105,682,l),
(1306,682,l),
(1308,697,ls),
(1339,870,o),
(1086,1060,o),
(758,1060,qs),
(447,1060,o),
(142,896,o),
(104,740,q),
(26,740,l),
(-4,571,l),
(73,571,l),
(-27,0,l),
(177,0,l)
);
}
);
userData = {
assembly = "NPUSHB[ ]	/* 57 values pushed */
0 3 1 0 1 3 0 128 8 1 7 0 7 134 0 2 0 4 1 2 4 105 5 1 1 3 0 1 87 5 1 1 1 0 95 6 1 0 1 0 79 0 0 0 25 0 25 17 19 36 19 34 17 17 9 6 29 
CALL[ ]	/* CallFunction */";
};
width = 335;
}
);
note = dvmI.a09;
},
{
glyphname = dvmI.a10;
lastChange = "2022-10-20 15:49:47 +0000";
layers = (
{
layerId = m01;
shapes = (
{
closed = 1;
nodes = (
(277,571,l),
(353,571,l),
(383,740,l),
(306,740,l),
(321,794,o),
(414,862,o),
(598,896,o),
(750,896,qs),
(918,896,o),
(1108,852,o),
(1178,762,o),
(1165,690,qs),
(1163,680,l),
(1363,680,l),
(1366,695,ls),
(1397,871,o),
(1135,1061,o),
(787,1061,qs),
(564,1061,o),
(277,985,o),
(128,844,o),
(104,740,q),
(26,740,l),
(-4,571,l),
(73,571,l),
(-28,0,l),
(176,0,l)
);
}
);
userData = {
assembly = "NPUSHB[ ]	/* 57 values pushed */
0 3 1 0 1 3 0 128 8 1 7 0 7 134 0 2 0 4 1 2 4 105 5 1 1 3 0 1 87 5 1 1 1 0 95 6 1 0 1 0 79 0 0 0 26 0 26 17 19 36 19 35 17 17 9 6 29 
CALL[ ]	/* CallFunction */";
};
width = 335;
}
);
note = dvmI.a10;
},
{
glyphname = dvmI.a11;
lastChange = "2022-10-20 15:49:47 +0000";
layers = (
{
layerId = m01;
shapes = (
{
closed = 1;
nodes = (
(277,571,l),
(353,571,l),
(383,740,l),
(306,740,l),
(322,794,o),
(419,863,o),
(615,897,o),
(779,897,qs),
(960,897,o),
(1162,853,o),
(1237,762,o),
(1224,688,qs),
(1222,678,l),
(1422,678,l),
(1425,693,ls),
(1445,810,o),
(1348,973,o),
(1065,1062,o),
(815,1062,qs),
(580,1062,o),
(282,987,o),
(129,845,o),
(104,740,q),
(26,740,l),
(-4,571,l),
(73,571,l),
(-28,0,l),
(176,0,l)
);
}
);
userData = {
assembly = "NPUSHB[ ]	/* 57 values pushed */
0 3 1 0 1 3 0 128 8 1 7 0 7 134 0 2 0 4 1 2 4 105 5 1 1 3 0 1 87 5 1 1 1 0 95 6 1 0 1 0 79 0 0 0 27 0 27 17 19 36 20 35 17 17 9 6 29 
CALL[ ]	/* CallFunction */";
};
width = 335;
}
);
note = dvmI.a11;
},
{
glyphname = dvmI.a12;
lastChange = "2022-10-20 15:49:47 +0000";
layers = (
{
layerId = m01;
shapes = (
{
closed = 1;
nodes = (
(277,571,l),
(353,571,l),
(383,740,l),
(306,740,l),
(322,795,o),
(422,863,o),
(631,898,o),
(806,898,qs),
(1001,898,o),
(1217,853,o),
(1295,761,o),
(1282,686,qs),
(1281,677,l),
(1481,677,l),
(1483,691,ls),
(1504,810,o),
(1402,974,o),
(1107,1063,o),
(844,1063,qs),
(596,1063,o),
(286,988,o),
(130,847,o),
(104,740,q),
(26,740,l),
(-4,571,l),
(73,571,l),
(-28,0,l),
(176,0,l)
);
}
);
userData = {
assembly = "NPUSHB[ ]	/* 57 values pushed */
0 3 1 0 1 3 0 128 8 1 7 0 7 134 0 2 0 4 1 2 4 105 5 1 1 3 0 1 87 5 1 1 1 0 95 6 1 0 1 0 79 0 0 0 27 0 27 17 19 36 20 35 17 17 9 6 29 
CALL[ ]	/* CallFunction */";
};
width = 335;
}
);
note = dvmI.a12;
},
{
glyphname = dvmI.a13;
lastChange = "2022-10-20 15:49:47 +0000";
layers = (
{
layerId = m01;
shapes = (
{
closed = 1;
nodes = (
(277,571,l),
(353,571,l),
(383,740,l),
(306,740,l),
(322,795,o),
(427,864,o),
(646,899,o),
(833,899,qs),
(1041,899,o),
(1270,854,o),
(1353,762,o),
(1339,685,qs),
(1337,675,l),
(1539,675,l),
(1542,689,ls),
(1563,810,o),
(1457,975,o),
(1149,1064,o),
(872,1064,qs),
(612,1064,o),
(291,990,o),
(130,848,o),
(104,740,q),
(26,740,l),
(-4,571,l),
(73,571,l),
(-28,0,l),
(176,0,l)
);
}
);
userData = {
assembly = "NPUSHB[ ]	/* 57 values pushed */
0 3 1 0 1 3 0 128 8 1 7 0 7 134 0 2 0 4 1 2 4 105 5 1 1 3 0 1 87 5 1 1 1 0 95 6 1 0 1 0 79 0 0 0 27 0 27 17 19 36 20 35 17 17 9 6 29 
CALL[ ]	/* CallFunction */";
};
width = 335;
}
);
note = dvmI.a13;
},
{
glyphname = dvmI.a14;
lastChange = "2022-10-20 15:49:47 +0000";
layers = (
{
layerId = m01;
shapes = (
{
closed = 1;
nodes = (
(277,571,l),
(353,571,l),
(383,740,l),
(307,740,l),
(323,796,o),
(432,865,o),
(663,900,o),
(861,900,qs),
(1082,900,o),
(1324,855,o),
(1411,761,o),
(1397,682,qs),
(1396,674,l),
(1597,673,l),
(1599,686,ls),
(1621,810,o),
(1511,976,o),
(1191,1065,o),
(901,1065,qs),
(628,1065,o),
(296,992,o),
(130,850,o),
(104,740,q),
(26,740,l),
(-4,571,l),
(73,571,l),
(-28,0,l),
(176,0,l)
);
}
);
userData = {
assembly = "NPUSHB[ ]	/* 57 values pushed */
0 3 1 0 1 3 0 128 8 1 7 0 7 134 0 2 0 4 1 2 4 105 5 1 1 3 0 1 87 5 1 1 1 0 95 6 1 0 1 0 79 0 0 0 27 0 27 17 19 36 20 35 17 17 9 6 29 
CALL[ ]	/* CallFunction */";
};
width = 335;
}
);
note = dvmI.a14;
},
{
glyphname = dvmI.a15;
lastChange = "2022-10-20 15:49:47 +0000";
layers = (
{
layerId = m01;
shapes = (
{
closed = 1;
nodes = (
(277,571,l),
(353,571,l),
(382,740,l),
(306,740,l),
(324,797,o),
(435,866,o),
(678,901,o),
(889,901,qs),
(1124,901,o),
(1378,856,o),
(1470,761,o),
(1456,680,qs),
(1455,672,l),
(1656,672,l),
(1658,685,ls),
(1680,810,o),
(1566,977,o),
(1232,1066,o),
(929,1066,qs),
(644,1066,o),
(299,993,o),
(130,851,o),
(103,740,q),
(25,740,l),
(-4,571,l),
(73,571,l),
(-28,0,l),
(176,0,l)
);
}
);
userData = {
assembly = "NPUSHB[ ]	/* 57 values pushed */
0 3 1 0 1 3 0 128 8 1 7 0 7 134 0 2 0 4 1 2 4 105 5 1 1 3 0 1 87 5 1 1 1 0 95 6 1 0 1 0 79 0 0 0 27 0 27 17 19 36 20 35 17 17 9 6 29 
CALL[ ]	/* CallFunction */";
};
width = 335;
}
);
note = dvmI.a15;
},
{
glyphname = dvmI.a16;
lastChange = "2022-10-20 15:49:47 +0000";
layers = (
{
layerId = m01;
shapes = (
{
closed = 1;
nodes = (
(277,571,l),
(353,571,l),
(382,740,l),
(306,740,l),
(324,798,o),
(440,868,o),
(694,902,o),
(916,902,qs),
(1165,902,o),
(1432,857,o),
(1527,761,o),
(1512,678,qs),
(1511,671,l),
(1714,671,l),
(1716,683,ls),
(1739,811,o),
(1621,978,o),
(1274,1067,o),
(957,1067,qs),
(660,1067,o),
(303,995,o),
(130,853,o),
(103,740,q),
(25,740,l),
(-4,571,l),
(73,571,l),
(-28,0,l),
(176,0,l)
);
}
);
userData = {
assembly = "NPUSHB[ ]	/* 57 values pushed */
0 3 1 0 1 3 0 128 8 1 7 0 7 134 0 2 0 4 1 2 4 105 5 1 1 3 0 1 87 5 1 1 1 0 95 6 1 0 1 0 79 0 0 0 27 0 27 17 19 36 20 35 17 17 9 6 29 
CALL[ ]	/* CallFunction */";
};
width = 335;
}
);
note = dvmI.a16;
},
{
glyphname = dvmI.a17;
lastChange = "2022-10-20 15:49:47 +0000";
layers = (
{
layerId = m01;
shapes = (
{
closed = 1;
nodes = (
(277,571,l),
(353,571,l),
(382,740,l),
(306,740,l),
(324,799,o),
(444,868,o),
(709,903,o),
(944,903,qs),
(1205,903,o),
(1486,857,o),
(1586,760,o),
(1571,676,qs),
(1570,669,l),
(1772,669,l),
(1774,681,ls),
(1797,811,o),
(1675,979,o),
(1315,1068,o),
(985,1068,qs),
(675,1068,o),
(307,996,o),
(130,854,o),
(103,740,q),
(25,740,l),
(-4,571,l),
(73,571,l),
(-28,0,l),
(176,0,l)
);
}
);
userData = {
assembly = "NPUSHB[ ]	/* 57 values pushed */
0 3 1 0 1 3 0 128 8 1 7 0 7 134 0 2 0 4 1 2 4 105 5 1 1 3 0 1 87 5 1 1 1 0 95 6 1 0 1 0 79 0 0 0 27 0 27 17 19 36 20 35 17 17 9 6 29 
CALL[ ]	/* CallFunction */";
};
width = 335;
}
);
note = dvmI.a17;
},
{
glyphname = dvmI.a18;
lastChange = "2022-10-20 15:49:47 +0000";
layers = (
{
layerId = m01;
shapes = (
{
closed = 1;
nodes = (
(276,571,l),
(352,571,l),
(382,740,l),
(306,740,l),
(325,799,o),
(448,869,o),
(725,904,o),
(972,904,qs),
(1247,904,o),
(1540,858,o),
(1645,759,o),
(1630,674,qs),
(1628,667,l),
(1829,667,l),
(1831,679,ls),
(1855,811,o),
(1731,980,o),
(1358,1069,o),
(1014,1069,qs),
(692,1069,o),
(313,998,o),
(132,856,o),
(103,740,q),
(25,740,l),
(-5,571,l),
(72,571,l),
(-28,0,l),
(176,0,l)
);
}
);
userData = {
assembly = "NPUSHB[ ]	/* 57 values pushed */
0 3 1 0 1 3 0 128 8 1 7 0 7 134 0 2 0 4 1 2 4 105 5 1 1 3 0 1 87 5 1 1 1 0 95 6 1 0 1 0 79 0 0 0 27 0 27 17 19 36 20 35 17 17 9 6 29 
CALL[ ]	/* CallFunction */";
};
width = 335;
}
);
note = dvmI.a18;
},
{
glyphname = dvmI.a19;
lastChange = "2022-10-20 15:49:47 +0000";
layers = (
{
layerId = m01;
shapes = (
{
closed = 1;
nodes = (
(276,571,l),
(352,571,l),
(382,740,l),
(306,740,l),
(325,800,o),
(452,870,o),
(740,905,o),
(998,905,qs),
(1286,905,o),
(1593,859,o),
(1701,759,o),
(1686,672,qs),
(1685,665,l),
(1887,665,l),
(1889,677,ls),
(1913,811,o),
(1784,981,o),
(1398,1070,o),
(1041,1070,qs),
(707,1070,o),
(317,999,o),
(132,857,o),
(103,740,q),
(25,740,l),
(-5,571,l),
(72,571,l),
(-28,0,l),
(176,0,l)
);
}
);
userData = {
assembly = "NPUSHB[ ]	/* 57 values pushed */
0 3 1 0 1 3 0 128 8 1 7 0 7 134 0 2 0 4 1 2 4 105 5 1 1 3 0 1 87 5 1 1 1 0 95 6 1 0 1 0 79 0 0 0 27 0 27 17 19 36 20 35 17 17 9 6 29 
CALL[ ]	/* CallFunction */";
};
width = 335;
}
);
note = dvmI.a19;
},
{
glyphname = dvmI.a20;
lastChange = "2022-10-20 15:49:47 +0000";
layers = (
{
layerId = m01;
shapes = (
{
closed = 1;
nodes = (
(276,571,l),
(352,571,l),
(382,740,l),
(306,740,l),
(326,800,o),
(457,871,o),
(756,906,o),
(1025,906,qs),
(1328,906,o),
(1647,859,o),
(1759,758,o),
(1744,669,qs),
(1743,664,l),
(1946,664,l),
(1947,674,ls),
(1972,811,o),
(1839,982,o),
(1441,1071,o),
(1070,1071,qs),
(723,1071,o),
(321,1001,o),
(132,858,o),
(103,740,q),
(25,740,l),
(-5,571,l),
(72,571,l),
(-28,0,l),
(176,0,l)
);
}
);
userData = {
assembly = "NPUSHB[ ]	/* 57 values pushed */
0 3 1 0 1 3 0 128 8 1 7 0 7 134 0 2 0 4 1 2 4 105 5 1 1 3 0 1 87 5 1 1 1 0 95 6 1 0 1 0 79 0 0 0 27 0 27 17 19 36 20 35 17 17 9 6 29 
CALL[ ]	/* CallFunction */";
};
width = 335;
}
);
note = dvmI.a20;
},
{
glyphname = dvmI.a21;
lastChange = "2022-10-20 15:49:47 +0000";
layers = (
{
layerId = m01;
shapes = (
{
closed = 1;
nodes = (
(276,571,l),
(352,571,l),
(382,740,l),
(306,740,l),
(326,801,o),
(460,871,o),
(771,906,o),
(1053,906,qs),
(1369,906,o),
(1701,859,o),
(1818,758,o),
(1802,667,qs),
(1801,662,l),
(2003,662,l),
(2005,672,ls),
(2029,811,o),
(1893,983,o),
(1483,1072,o),
(1099,1072,qs),
(738,1072,o),
(324,1003,o),
(132,860,o),
(103,740,q),
(25,740,l),
(-5,571,l),
(72,571,l),
(-29,0,l),
(175,0,l)
);
}
);
userData = {
assembly = "NPUSHB[ ]	/* 57 values pushed */
0 3 1 0 1 3 0 128 8 1 7 0 7 134 0 2 0 4 1 2 4 105 5 1 1 3 0 1 87 5 1 1 1 0 95 6 1 0 1 0 79 0 0 0 27 0 27 17 19 36 20 35 17 17 9 6 29 
CALL[ ]	/* CallFunction */";
};
width = 335;
}
);
note = dvmI.a21;
},
{
glyphname = dvmI.a22;
lastChange = "2022-10-20 15:49:47 +0000";
layers = (
{
layerId = m01;
shapes = (
{
closed = 1;
nodes = (
(276,571,l),
(352,571,l),
(382,740,l),
(306,740,l),
(326,801,o),
(464,872,o),
(787,907,o),
(1081,907,qs),
(1410,907,o),
(1755,860,o),
(1877,757,o),
(1861,665,qs),
(1860,660,l),
(2062,660,l),
(2064,670,ls),
(2088,811,o),
(1948,984,o),
(1525,1073,o),
(1127,1073,qs),
(754,1073,o),
(328,1004,o),
(132,861,o),
(103,740,q),
(25,740,l),
(-5,571,l),
(72,571,l),
(-29,0,l),
(175,0,l)
);
}
);
userData = {
assembly = "NPUSHB[ ]	/* 57 values pushed */
0 3 1 0 1 3 0 128 8 1 7 0 7 134 0 2 0 4 1 2 4 105 5 1 1 3 0 1 87 5 1 1 1 0 95 6 1 0 1 0 79 0 0 0 27 0 27 17 19 36 20 35 17 17 9 6 29 
CALL[ ]	/* CallFunction */";
};
width = 335;
}
);
note = dvmI.a22;
},
{
glyphname = dvmI.a23;
lastChange = "2022-10-20 15:49:47 +0000";
layers = (
{
layerId = m01;
shapes = (
{
closed = 1;
nodes = (
(276,571,l),
(352,571,l),
(382,740,l),
(306,740,l),
(326,802,o),
(468,873,o),
(802,908,o),
(1108,908,qs),
(1452,908,o),
(1809,861,o),
(1934,757,o),
(1917,663,qs),
(1916,658,l),
(2120,658,l),
(2122,668,ls),
(2147,811,o),
(2003,985,o),
(1567,1074,o),
(1155,1074,qs),
(770,1074,o),
(334,1005,o),
(132,863,o),
(103,740,q),
(25,740,l),
(-5,571,l),
(72,571,l),
(-29,0,l),
(175,0,l)
);
}
);
userData = {
assembly = "NPUSHB[ ]	/* 57 values pushed */
0 3 1 0 1 3 0 128 8 1 7 0 7 134 0 2 0 4 1 2 4 105 5 1 1 3 0 1 87 5 1 1 1 0 95 6 1 0 1 0 79 0 0 0 27 0 27 17 19 36 20 35 17 17 9 6 29 
CALL[ ]	/* CallFunction */";
};
width = 335;
}
);
note = dvmI.a23;
},
{
glyphname = dvmI.a24;
lastChange = "2022-10-20 15:49:47 +0000";
layers = (
{
layerId = m01;
shapes = (
{
closed = 1;
nodes = (
(276,571,l),
(352,571,l),
(382,740,l),
(306,740,l),
(326,803,o),
(472,874,o),
(818,909,o),
(1137,909,qs),
(1494,909,o),
(1863,862,o),
(1993,756,o),
(1976,661,qs),
(1975,657,l),
(2178,657,l),
(2180,666,ls),
(2205,811,o),
(2057,986,o),
(1609,1075,o),
(1184,1075,qs),
(785,1075,o),
(337,1007,o),
(133,864,o),
(103,740,q),
(25,740,l),
(-5,571,l),
(72,571,l),
(-29,0,l),
(175,0,l)
);
}
);
userData = {
assembly = "NPUSHB[ ]	/* 57 values pushed */
0 3 1 0 1 3 0 128 8 1 7 0 7 134 0 2 0 4 1 2 4 105 5 1 1 3 0 1 87 5 1 1 1 0 95 6 1 0 1 0 79 0 0 0 27 0 27 17 19 36 20 35 17 17 9 6 29 
CALL[ ]	/* CallFunction */";
};
width = 335;
}
);
note = dvmI.a24;
},
{
glyphname = exclam;
lastChange = "2022-10-20 15:49:47 +0000";
layers = (
{
layerId = m01;
shapes = (
{
closed = 1;
nodes = (
(116,281,o),
(127,281,qs),
(297,281,ls),
(308,281,o),
(309,291,qs),
(414,745,ls),
(415,755,o),
(406,755,qs),
(184,755,ls),
(175,755,o),
(174,745,qs),
(117,291,ls)
);
},
{
closed = 1;
nodes = (
(315,149,o),
(257,212,o),
(200,212,qs),
(142,212,o),
(60,149,o),
(52,101,qs),
(44,54,o),
(103,-8,o),
(161,-8,qs),
(218,-8,o),
(299,54,o),
(307,101,qs)
);
}
);
userData = {
assembly = "NPUSHB[ ]	/* 26 values pushed */
0 0 0 1 3 0 1 103 0 3 3 2 97 0 2 2 35 2 78 36 35 51 49 4 8 26 
CALL[ ]	/* CallFunction */";
};
width = 455;
}
);
note = exclam;
unicode = 33;
},
{
glyphname = quotedbl;
lastChange = "2022-10-20 15:49:47 +0000";
layers = (
{
layerId = m01;
shapes = (
{
closed = 1;
nodes = (
(27,568,o),
(38,568,qs),
(166,568,ls),
(177,568,o),
(179,578,qs),
(228,793,ls),
(230,803,o),
(221,803,qs),
(66,803,ls),
(57,803,o),
(55,793,qs),
(29,578,ls)
);
},
{
closed = 1;
nodes = (
(272,568,o),
(283,568,qs),
(411,568,ls),
(422,568,o),
(424,578,qs),
(473,793,ls),
(475,803,o),
(466,803,qs),
(311,803,ls),
(302,803,o),
(300,793,qs),
(274,578,ls)
);
}
);
userData = {
assembly = "NPUSHB[ ]	/* 26 values pushed */
2 1 0 1 1 0 87 2 1 0 0 1 95 3 1 1 0 1 79 51 51 51 49 4 8 26 
CALL[ ]	/* CallFunction */";
};
width = 490;
}
);
note = quotedbl;
unicode = 34;
},
{
glyphname = numbersign;
lastChange = "2022-10-20 15:49:47 +0000";
layers = (
{
layerId = m01;
shapes = (
{
closed = 1;
nodes = (
(532,326,o),
(499,326,qs),
(431,326,ls),
(413,326,o),
(400,346,o),
(407,364,qs),
(417,390,ls),
(428,421,o),
(461,421,qs),
(529,421,ls),
(547,421,o),
(560,401,o),
(553,383,qs),
(544,357,ls)
);
},
{
closed = 1;
nodes = (
(404,0,o),
(415,0,qs),
(601,0,ls),
(611,0,o),
(613,9,qs),
(645,93,ls),
(657,124,o),
(690,124,qs),
(802,124,ls),
(812,124,o),
(813,134,qs),
(845,316,ls),
(847,326,o),
(837,326,qs),
(776,326,ls),
(758,326,o),
(745,346,o),
(752,364,qs),
(762,390,ls),
(773,421,o),
(806,421,qs),
(922,421,ls),
(932,421,o),
(934,431,qs),
(966,613,ls),
(968,623,o),
(958,623,qs),
(892,623,ls),
(874,623,o),
(860,643,o),
(867,661,qs),
(894,729,ls),
(898,740,o),
(887,740,qs),
(701,740,ls),
(692,740,o),
(689,731,qs),
(659,654,ls),
(648,623,o),
(615,623,qs),
(547,623,ls),
(529,623,o),
(515,643,o),
(522,661,qs),
(549,729,ls),
(553,740,o),
(542,740,qs),
(357,740,ls),
(348,740,o),
(345,731,qs),
(315,654,ls),
(304,623,o),
(271,623,qs),
(123,623,l),
(87,421,l),
(185,421,ls),
(203,421,o),
(216,401,o),
(209,383,qs),
(200,357,ls),
(188,326,o),
(155,326,qs),
(12,326,ls),
(2,326,o),
(0,316,qs),
(-32,134,ls),
(-33,124,o),
(-23,124,qs),
(69,124,ls),
(87,124,o),
(100,104,o),
(93,86,qs),
(64,11,ls),
(60,0,o),
(71,0,qs),
(256,0,ls),
(266,0,o),
(268,9,qs),
(300,93,ls),
(312,124,o),
(345,124,qs),
(413,124,ls),
(431,124,o),
(444,104,o),
(437,86,qs),
(408,11,ls)
);
}
);
userData = {
assembly = "MPPEM[ ]	/* MeasurePixelPerEm */
PUSHB[ ]	/* 1 value pushed */
11 
LT[ ]	/* LessThan */
IF[ ]	/* If */
NPUSHB[ ]	/* 38 values pushed */
10 1 8 7 7 8 112 11 9 2 7 12 6 2 0 1 7 0 104 13 5 2 1 14 4 2 2 3 1 2 103 15 1 3 3 29 3 78 
ELSE[ ]	/* Else */
NPUSHB[ ]	/* 37 values pushed */
10 1 8 7 8 133 11 9 2 7 12 6 2 0 1 7 0 104 13 5 2 1 14 4 2 2 3 1 2 103 15 1 3 3 29 3 78 
EIF[ ]	/* EndIf */
NPUSHB[ ]	/* 26 values pushed */
98 95 92 89 86 83 79 76 73 70 66 63 60 57 51 33 36 51 52 51 52 52 50 16 8 31 
CALL[ ]	/* CallFunction */";
};
width = 933;
}
);
note = numbersign;
unicode = 35;
},
{
glyphname = dollar;
lastChange = "2022-10-20 15:49:47 +0000";
layers = (
{
layerId = m01;
shapes = (
{
closed = 1;
nodes = (
(283,-87,l),
(297,-7,l),
(384,-5,o),
(518,53,o),
(600,149,o),
(611,209,qs),
(623,279,o),
(568,367,o),
(479,412,o),
(408,435,qs),
(377,445,l),
(394,542,l),
(412,529,o),
(410,491,q),
(649,491,l),
(660,594,o),
(543,711,o),
(425,719,q),
(439,800,l),
(377,800,l),
(363,719,l),
(287,716,o),
(156,664,o),
(67,569,o),
(56,504,qs),
(43,429,o),
(102,338,o),
(194,294,o),
(268,273,qs),
(284,269,l),
(266,171,l),
(241,186,o),
(245,227,q),
(9,227,l),
(-2,124,o),
(121,6,o),
(235,-5,q),
(221,-87,l)
);
},
{
closed = 1;
nodes = (
(367,170,o),
(327,162,q),
(342,248,l),
(378,230,o),
(373,204,qs)
);
},
{
closed = 1;
nodes = (
(301,544,o),
(333,550,q),
(319,470,l),
(291,488,o),
(296,514,qs)
);
}
);
userData = {
assembly = "NPUSHB[ ]	/* 62 values pushed */
45 25 2 4 1 44 39 26 7 4 0 4 40 6 0 3 5 0 3 76 0 0 4 5 4 0 5 128 0 2 0 6 2 6 99 0 4 4 1 97 3 1 1 1 34 77 0 5 5 35 5 78 17 27 18 17 17 27 19 7 8 29 
CALL[ ]	/* CallFunction */";
};
width = 665;
}
);
note = dollar;
unicode = 36;
},
{
glyphname = percent;
lastChange = "2022-10-20 15:49:47 +0000";
layers = (
{
layerId = m01;
shapes = (
{
closed = 1;
nodes = (
(38,452,o),
(122,360,o),
(203,360,qs),
(283,360,o),
(398,452,o),
(414,540,qs),
(429,628,o),
(346,721,o),
(266,721,qs),
(185,721,o),
(69,628,o),
(54,540,qs)
);
},
{
closed = 1;
nodes = (
(260,592,o),
(274,566,o),
(270,540,qs),
(265,515,o),
(242,489,o),
(224,489,qs),
(190,489,o),
(199,540,qs),
(208,592,o),
(242,592,qs)
);
},
{
closed = 1;
nodes = (
(114,0,l),
(326,0,l),
(825,711,l),
(613,711,l)
);
},
{
closed = 1;
nodes = (
(510,83,o),
(594,-10,o),
(674,-10,qs),
(755,-10,o),
(869,83,o),
(884,171,qs),
(900,259,o),
(818,352,o),
(737,352,qs),
(657,352,o),
(541,259,o),
(525,171,qs)
);
},
{
closed = 1;
nodes = (
(731,223,o),
(745,196,o),
(740,171,qs),
(736,145,o),
(712,119,o),
(695,119,qs),
(660,119,o),
(669,171,qs),
(679,223,o),
(714,223,qs)
);
}
);
userData = {
assembly = "MPPEM[ ]	/* MeasurePixelPerEm */
PUSHB[ ]	/* 1 value pushed */
24 
LT[ ]	/* LessThan */
IF[ ]	/* If */
NPUSHB[ ]	/* 42 values pushed */
0 2 0 1 6 2 1 105 0 6 12 1 9 8 6 9 106 10 1 3 3 0 97 11 5 2 0 0 34 77 0 8 8 4 97 7 1 4 4 29 4 78 
ELSE[ ]	/* Else */
NPUSHB[ ]	/* 50 values pushed */
0 2 0 1 6 2 1 105 0 6 12 1 9 8 6 9 106 11 1 5 5 28 77 10 1 3 3 0 97 0 0 0 34 77 0 4 4 29 77 0 8 8 7 97 0 7 7 35 7 78 
EIF[ ]	/* EndIf */
NPUSHB[ ]	/* 32 values pushed */
38 38 22 22 12 12 38 47 38 46 42 40 35 33 29 27 22 25 22 25 24 23 12 21 12 20 37 36 33 13 8 25 
CALL[ ]	/* CallFunction */";
};
width = 938;
}
);
note = percent;
unicode = 37;
},
{
glyphname = ampersand;
lastChange = "2022-10-20 15:49:47 +0000";
layers = (
{
layerId = m01;
shapes = (
{
closed = 1;
nodes = (
(628,524,o),
(629,534,qs),
(635,584,o),
(595,669,o),
(498,721,o),
(423,721,qs),
(347,721,o),
(228,668,o),
(155,578,o),
(146,524,qs),
(135,461,o),
(171,404,q),
(103,370,o),
(21,268,o),
(10,207,qs),
(-1,143,o),
(49,44,o),
(167,-10,o),
(253,-10,qs),
(380,-10,o),
(483,46,q),
(520,5,ls),
(524,0,o),
(531,0,qs),
(750,0,ls),
(757,0,o),
(762,7,o),
(757,12,qs),
(630,162,l),
(700,240,o),
(755,340,qs),
(764,354,ls),
(767,359,o),
(763,366,o),
(758,366,qs),
(564,366,ls),
(555,366,o),
(550,358,q),
(550,357,l),
(533,323,o),
(515,296,q),
(381,452,ls),
(344,494,o),
(350,526,qs),
(353,543,o),
(379,562,o),
(395,562,qs),
(408,562,o),
(426,548,o),
(426,534,qs),
(426,524,o),
(436,524,qs),
(618,524,ls)
);
},
{
closed = 1;
nodes = (
(259,165,o),
(221,201,o),
(225,227,qs),
(228,243,o),
(251,274,o),
(270,286,q),
(368,176,l),
(335,165,o),
(299,165,qs)
);
}
);
userData = {
assembly = "NPUSHB[ ]	/* 17 values pushed */
40 1 2 0 55 54 11 3 6 2 31 23 2 3 6 3 76 
MPPEM[ ]	/* MeasurePixelPerEm */
PUSHB[ ]	/* 1 value pushed */
24 
LT[ ]	/* LessThan */
IF[ ]	/* If */
NPUSHB[ ]	/* 42 values pushed */
0 1 5 0 0 1 114 7 1 0 0 5 98 0 5 5 34 77 0 2 2 3 97 4 1 3 3 29 77 8 1 6 6 3 97 4 1 3 3 29 3 78 
ELSE[ ]	/* Else */
MPPEM[ ]	/* MeasurePixelPerEm */
PUSHB[ ]	/* 1 value pushed */
33 
LT[ ]	/* LessThan */
IF[ ]	/* If */
NPUSHB[ ]	/* 40 values pushed */
0 1 5 0 0 1 114 7 1 0 0 5 98 0 5 5 34 77 0 2 2 3 95 0 3 3 29 77 8 1 6 6 4 97 0 4 4 35 4 78 
ELSE[ ]	/* Else */
NPUSHB[ ]	/* 41 values pushed */
0 1 5 0 5 1 0 128 7 1 0 0 5 98 0 5 5 34 77 0 2 2 3 95 0 3 3 29 77 8 1 6 6 4 97 0 4 4 35 4 78 
EIF[ ]	/* EndIf */
EIF[ ]	/* EndIf */
NPUSHB[ ]	/* 25 values pushed */
53 53 1 0 53 61 53 60 47 45 34 32 28 26 17 15 6 4 0 52 1 51 9 8 22 
CALL[ ]	/* CallFunction */";
};
width = 831;
}
);
note = ampersand;
unicode = 38;
},
{
glyphname = quotesingle;
lastChange = "2022-10-20 15:49:47 +0000";
layers = (
{
layerId = m01;
shapes = (
{
closed = 1;
nodes = (
(37,568,o),
(48,568,qs),
(176,568,ls),
(187,568,o),
(189,578,qs),
(238,793,ls),
(240,803,o),
(231,803,qs),
(76,803,ls),
(67,803,o),
(65,793,qs),
(39,578,ls)
);
}
);
userData = {
assembly = "NPUSHB[ ]	/* 21 values pushed */
0 0 1 1 0 87 0 0 0 1 95 0 1 0 1 79 51 49 2 8 24 
CALL[ ]	/* CallFunction */";
};
width = 265;
}
);
note = quotesingle;
unicode = 39;
},
{
glyphname = parenleft;
lastChange = "2022-10-20 15:49:47 +0000";
layers = (
{
layerId = m01;
shapes = (
{
closed = 1;
nodes = (
(329,-209,l),
(250,-107,o),
(189,180,o),
(216,333,qs),
(243,485,o),
(405,772,o),
(520,874,q),
(524,895,l),
(310,895,l),
(198,804,o),
(35,506,o),
(4,333,qs),
(-27,160,o),
(32,-138,o),
(112,-229,q),
(326,-229,l)
);
}
);
userData = {
assembly = "NPUSHB[ ]	/* 34 values pushed */
14 8 2 1 0 1 76 0 0 1 1 0 87 0 0 0 1 95 2 1 1 0 1 79 0 0 0 15 0 15 22 3 8 23 
CALL[ ]	/* CallFunction */";
};
width = 463;
}
);
note = parenleft;
unicode = 40;
},
{
glyphname = parenright;
lastChange = "2022-10-20 15:49:47 +0000";
layers = (
{
layerId = m01;
shapes = (
{
closed = 1;
nodes = (
(-58,-209,l),
(57,-107,o),
(220,180,o),
(247,333,qs),
(274,485,o),
(212,772,o),
(133,874,q),
(137,895,l),
(351,895,l),
(431,804,o),
(490,506,o),
(459,333,qs),
(428,160,o),
(265,-138,o),
(153,-229,q),
(-61,-229,l)
);
}
);
userData = {
assembly = "NPUSHB[ ]	/* 34 values pushed */
14 8 2 1 0 1 76 0 0 1 1 0 87 0 0 0 1 95 2 1 1 0 1 79 0 0 0 15 0 15 22 3 8 23 
CALL[ ]	/* CallFunction */";
};
width = 463;
}
);
note = parenright;
unicode = 41;
},
{
glyphname = asterisk;
lastChange = "2022-10-20 15:49:47 +0000";
layers = (
{
layerId = m01;
shapes = (
{
closed = 1;
nodes = (
(390,744,o),
(379,744,qs),
(260,744,ls),
(255,744,o),
(249,738,o),
(249,733,qs),
(254,668,ls),
(256,654,o),
(239,645,o),
(230,655,qs),
(187,700,ls),
(184,704,o),
(176,703,o),
(173,698,q),
(99,597,ls),
(96,593,o),
(98,586,o),
(103,584,qs),
(157,567,ls),
(170,563,o),
(167,547,o),
(152,542,qs),
(90,522,ls),
(79,519,o),
(82,509,qs),
(126,400,l),
(127,395,o),
(135,394,o),
(140,398,qs),
(192,443,ls),
(205,454,o),
(218,446,o),
(212,431,qs),
(187,371,ls),
(182,360,o),
(193,360,qs),
(310,360,ls),
(315,360,o),
(321,366,o),
(320,371,q),
(317,432,ls),
(316,446,o),
(333,455,o),
(341,445,qs),
(379,399,ls),
(382,395,o),
(390,396,o),
(393,401,q),
(473,508,ls),
(480,518,o),
(471,521,qs),
(415,540,ls),
(403,545,o),
(406,561,o),
(419,565,qs),
(482,585,ls),
(487,587,o),
(491,594,o),
(490,598,qs),
(451,699,ls),
(448,709,o),
(438,701,qs),
(377,654,ls),
(364,644,o),
(351,653,o),
(357,667,qs),
(385,733,ls)
);
}
);
userData = {
assembly = "NPUSHB[ ]	/* 31 values pushed */
60 26 7 3 0 1 1 76 0 1 0 0 1 87 0 1 1 0 95 0 0 1 0 79 65 62 31 28 2 8 22 
CALL[ ]	/* CallFunction */";
};
width = 561;
}
);
note = asterisk;
unicode = 42;
},
{
glyphname = plus;
lastChange = "2022-10-20 15:49:47 +0000";
layers = (
{
layerId = m01;
shapes = (
{
closed = 1;
nodes = (
(214,595,o),
(212,585,qs),
(191,466,ls),
(187,441,o),
(162,441,qs),
(48,441,ls),
(38,441,o),
(36,431,qs),
(4,248,ls),
(2,238,o),
(12,238,qs),
(126,238,ls),
(151,238,o),
(147,213,qs),
(126,95,ls),
(124,85,o),
(134,85,qs),
(327,85,ls),
(337,85,o),
(339,95,qs),
(360,213,ls),
(364,238,o),
(389,238,qs),
(503,238,ls),
(513,238,o),
(515,248,qs),
(547,431,ls),
(549,441,o),
(539,441,qs),
(425,441,ls),
(400,441,o),
(404,466,qs),
(425,585,ls),
(427,595,o),
(417,595,qs),
(224,595,ls)
);
}
);
userData = {
assembly = "NPUSHB[ ]	/* 47 values pushed */
6 1 0 1 3 0 87 5 1 1 4 1 2 3 1 2 103 6 1 0 0 3 95 0 3 0 3 79 1 0 31 28 25 22 19 16 13 10 7 4 0 35 1 34 7 8 22 
CALL[ ]	/* CallFunction */";
};
width = 551;
}
);
note = plus;
unicode = 43;
},
{
glyphname = comma;
lastChange = "2022-10-20 15:49:47 +0000";
layers = (
{
layerId = m01;
shapes = (
{
closed = 1;
nodes = (
(2,-155,o),
(7,-161,o),
(11,-161,qs),
(137,-161,ls),
(146,-161,o),
(150,-153,qs),
(336,194,l),
(341,205,o),
(330,205,qs),
(131,205,ls),
(123,205,o),
(120,196,qs),
(4,-150,ls)
);
}
);
userData = {
assembly = "NPUSHB[ ]	/* 21 values pushed */
0 0 1 1 0 87 0 0 0 1 95 0 1 0 1 79 35 49 2 8 24 
CALL[ ]	/* CallFunction */";
};
width = 348;
}
);
note = comma;
unicode = 44;
},
{
glyphname = hyphen;
lastChange = "2022-10-20 15:49:47 +0000";
layers = (
{
layerId = m01;
shapes = (
{
closed = 1;
nodes = (
(33,270,o),
(43,270,qs),
(437,270,ls),
(447,270,o),
(449,280,qs),
(471,403,ls),
(473,413,o),
(463,413,qs),
(69,413,ls),
(59,413,o),
(57,403,qs),
(35,280,ls)
);
}
);
userData = {
assembly = "NPUSHB[ ]	/* 21 values pushed */
0 0 1 1 0 87 0 0 0 1 95 0 1 0 1 79 51 49 2 8 24 
CALL[ ]	/* CallFunction */";
};
width = 576;
}
);
note = hyphen;
unicode = 45;
},
{
glyphname = period;
lastChange = "2022-10-20 15:49:47 +0000";
layers = (
{
layerId = m01;
shapes = (
{
closed = 1;
nodes = (
(295,149,o),
(236,212,o),
(179,212,qs),
(121,212,o),
(40,149,o),
(32,101,qs),
(24,54,o),
(83,-8,o),
(141,-8,qs),
(198,-8,o),
(279,54,o),
(287,101,qs)
);
}
);
userData = {
assembly = "NPUSHB[ ]	/* 16 values pushed */
0 1 1 0 97 0 0 0 35 0 78 36 33 2 8 24 
CALL[ ]	/* CallFunction */";
};
width = 319;
}
);
note = period;
unicode = 46;
},
{
glyphname = slash;
lastChange = "2022-10-20 15:49:47 +0000";
layers = (
{
layerId = m01;
shapes = (
{
closed = 1;
nodes = (
(-137,-198,o),
(-127,-198,qs),
(66,-198,ls),
(75,-198,o),
(79,-189,qs),
(539,944,ls),
(543,955,o),
(533,955,qs),
(341,955,ls),
(332,955,o),
(328,946,qs),
(-133,-187,ls)
);
}
);
userData = {
assembly = "NPUSHB[ ]	/* 14 values pushed */
0 0 1 0 133 0 1 1 118 51 49 2 8 24 
CALL[ ]	/* CallFunction */";
};
width = 399;
}
);
note = slash;
unicode = 47;
},
{
glyphname = zero;
lastChange = "2022-10-20 15:49:47 +0000";
layers = (
{
layerId = m01;
shapes = (
{
closed = 1;
nodes = (
(2,203,o),
(113,4,o),
(266,4,qs),
(418,4,o),
(602,203,o),
(632,376,qs),
(662,548,o),
(550,747,o),
(398,747,qs),
(245,747,o),
(63,549,o),
(32,376,qs)
);
},
{
closed = 1;
nodes = (
(399,295,o),
(353,214,o),
(304,214,qs),
(254,214,o),
(236,295,o),
(250,376,qs),
(264,456,o),
(310,537,o),
(360,537,qs),
(409,537,o),
(427,456,o),
(413,376,qs)
);
}
);
userData = {
assembly = "NPUSHB[ ]	/* 26 values pushed */
0 0 0 2 3 0 2 105 0 3 3 1 97 0 1 1 29 1 78 36 36 36 33 4 8 26 
CALL[ ]	/* CallFunction */";
};
width = 662;
}
);
note = zero;
unicode = 48;
},
{
glyphname = one;
lastChange = "2022-10-20 15:49:47 +0000";
layers = (
{
layerId = m01;
shapes = (
{
closed = 1;
nodes = (
(285,0,l),
(406,686,ls),
(409,708,o),
(390,731,o),
(368,731,qs),
(122,731,l),
(38,523,l),
(99,523,ls),
(121,523,o),
(140,500,o),
(136,478,qs),
(52,0,l)
);
}
);
userData = {
assembly = "MPPEM[ ]	/* MeasurePixelPerEm */
PUSHB[ ]	/* 1 value pushed */
22 
LT[ ]	/* LessThan */
IF[ ]	/* If */
NPUSHB[ ]	/* 16 values pushed */
0 0 0 1 95 0 1 1 28 77 0 2 2 29 2 78 
ELSE[ ]	/* Else */
NPUSHB[ ]	/* 14 values pushed */
0 1 0 0 2 1 0 105 0 2 2 29 2 78 
EIF[ ]	/* EndIf */
PUSHB[ ]	/* 6 values pushed */
19 33 34 3 8 25 
CALL[ ]	/* CallFunction */";
};
width = 399;
}
);
note = one;
unicode = 49;
},
{
glyphname = two;
lastChange = "2022-10-20 15:49:47 +0000";
layers = (
{
layerId = m01;
shapes = (
{
closed = 1;
nodes = (
(470,10,ls),
(480,10,o),
(482,20,qs),
(504,144,ls),
(508,166,o),
(489,189,o),
(467,189,qs),
(283,189,l),
(390,250,o),
(551,427,o),
(568,528,qs),
(585,624,o),
(488,747,o),
(360,747,qs),
(249,747,o),
(76,620,o),
(44,488,qs),
(43,478,o),
(53,478,qs),
(215,478,ls),
(235,478,o),
(258,500,o),
(268,523,qs),
(283,561,o),
(312,561,qs),
(329,561,o),
(346,535,o),
(341,511,qs),
(329,440,o),
(144,277,o),
(-8,177,q),
(-37,10,l)
);
}
);
userData = {
assembly = "PUSHB[ ]	/* 6 values pushed */
0 1 4 3 1 76 
MPPEM[ ]	/* MeasurePixelPerEm */
PUSHB[ ]	/* 1 value pushed */
15 
LT[ ]	/* LessThan */
IF[ ]	/* If */
NPUSHB[ ]	/* 26 values pushed */
0 1 0 3 0 1 114 0 2 0 0 1 2 0 105 0 3 3 4 95 0 4 4 29 4 78 
ELSE[ ]	/* Else */
MPPEM[ ]	/* MeasurePixelPerEm */
PUSHB[ ]	/* 1 value pushed */
50 
LT[ ]	/* LessThan */
IF[ ]	/* If */
NPUSHB[ ]	/* 27 values pushed */
0 1 0 3 0 1 3 128 0 2 0 0 1 2 0 105 0 3 3 4 95 0 4 4 29 4 78 
ELSE[ ]	/* Else */
NPUSHB[ ]	/* 32 values pushed */
0 1 0 3 0 1 3 128 0 2 0 0 1 2 0 105 0 3 4 4 3 87 0 3 3 4 95 0 4 3 4 79 
EIF[ ]	/* EndIf */
EIF[ ]	/* EndIf */
PUSHB[ ]	/* 8 values pushed */
36 37 35 51 37 5 8 27 
CALL[ ]	/* CallFunction */";
};
width = 566;
}
);
note = two;
unicode = 50;
},
{
glyphname = three;
lastChange = "2022-10-20 15:49:47 +0000";
layers = (
{
layerId = m01;
shapes = (
{
closed = 1;
nodes = (
(262,502,o),
(285,521,o),
(298,543,qs),
(310,564,o),
(332,564,qs),
(348,564,o),
(365,540,o),
(361,515,qs),
(350,457,o),
(283,461,qs),
(272,461,ls),
(247,461,o),
(243,436,qs),
(220,307,ls),
(215,282,o),
(240,282,qs),
(252,282,ls),
(296,282,o),
(328,253,o),
(323,225,qs),
(320,203,o),
(291,176,o),
(273,176,qs),
(234,176,o),
(228,207,qs),
(225,229,o),
(210,249,o),
(190,249,qs),
(26,249,ls),
(16,249,o),
(14,239,qs),
(-3,112,o),
(124,-7,o),
(251,-7,qs),
(327,-7,o),
(447,47,o),
(524,145,o),
(536,209,qs),
(556,322,o),
(462,368,qs),
(452,373,o),
(453,382,o),
(465,387,qs),
(505,405,o),
(571,482,o),
(582,543,qs),
(592,601,o),
(551,693,o),
(448,747,o),
(369,747,qs),
(250,747,o),
(96,627,o),
(70,512,qs),
(68,502,o),
(78,502,qs),
(243,502,ls)
);
}
);
userData = {
assembly = "MPPEM[ ]	/* MeasurePixelPerEm */
PUSHB[ ]	/* 1 value pushed */
17 
LT[ ]	/* LessThan */
IF[ ]	/* If */
NPUSHB[ ]	/* 42 values pushed */
8 1 0 7 6 7 0 114 0 3 5 4 4 3 114 0 1 0 7 0 1 7 105 0 6 0 5 3 6 5 105 0 4 4 2 98 0 2 2 35 2 78 
ELSE[ ]	/* Else */
MPPEM[ ]	/* MeasurePixelPerEm */
PUSHB[ ]	/* 1 value pushed */
20 
LT[ ]	/* LessThan */
IF[ ]	/* If */
NPUSHB[ ]	/* 43 values pushed */
8 1 0 7 6 7 0 114 0 3 5 4 5 3 4 128 0 1 0 7 0 1 7 105 0 6 0 5 3 6 5 105 0 4 4 2 98 0 2 2 35 2 78 
ELSE[ ]	/* Else */
NPUSHB[ ]	/* 44 values pushed */
8 1 0 7 6 7 0 6 128 0 3 5 4 5 3 4 128 0 1 0 7 0 1 7 105 0 6 0 5 3 6 5 105 0 4 4 2 98 0 2 2 35 2 78 
EIF[ ]	/* EndIf */
EIF[ ]	/* EndIf */
NPUSHB[ ]	/* 23 values pushed */
1 0 51 49 46 43 40 37 33 31 28 25 22 20 6 4 0 55 1 54 9 8 22 
CALL[ ]	/* CallFunction */";
};
width = 615;
}
);
note = three;
unicode = 51;
},
{
glyphname = four;
lastChange = "2022-10-20 15:49:47 +0000";
layers = (
{
layerId = m01;
shapes = (
{
closed = 1;
nodes = (
(303,10,ls),
(302,0,o),
(312,0,qs),
(516,0,ls),
(526,0,o),
(527,10,qs),
(545,110,l),
(607,110,ls),
(617,110,o),
(619,120,qs),
(649,292,ls),
(651,302,o),
(641,302,qs),
(624,302,ls),
(602,302,o),
(583,325,o),
(587,347,qs),
(651,710,ls),
(652,720,o),
(642,720,qs),
(413,720,l),
(41,295,l),
(8,110,l),
(321,110,l)
);
},
{
closed = 1;
nodes = (
(265,302,l),
(402,467,l),
(373,302,l)
);
}
);
userData = {
assembly = "NPUSHB[ ]	/* 10 values pushed */
24 1 1 0 1 1 2 1 2 76 
MPPEM[ ]	/* MeasurePixelPerEm */
PUSHB[ ]	/* 1 value pushed */
41 
LT[ ]	/* LessThan */
IF[ ]	/* If */
NPUSHB[ ]	/* 22 values pushed */
5 1 1 6 4 2 2 3 1 2 106 0 0 0 28 77 0 3 3 29 3 78 
ELSE[ ]	/* Else */
NPUSHB[ ]	/* 22 values pushed */
0 0 1 0 133 5 1 1 6 4 2 2 3 1 2 106 0 3 3 29 3 78 
EIF[ ]	/* EndIf */
NPUSHB[ ]	/* 15 values pushed */
0 0 26 25 0 23 0 23 50 35 52 34 7 8 26 
CALL[ ]	/* CallFunction */";
};
width = 704;
}
);
note = four;
unicode = 52;
},
{
glyphname = five;
lastChange = "2022-10-20 15:49:47 +0000";
layers = (
{
layerId = m01;
shapes = (
{
closed = 1;
nodes = (
(158,731,o),
(157,721,qs),
(79,283,l),
(295,283,l),
(298,296,o),
(323,316,o),
(344,316,qs),
(369,316,o),
(391,286,o),
(386,257,qs),
(380,226,o),
(350,190,o),
(325,190,qs),
(304,190,o),
(286,211,o),
(285,225,qs),
(286,234,o),
(277,234,qs),
(80,234,ls),
(70,234,o),
(68,224,qs),
(57,158,o),
(106,57,o),
(219,0,o),
(303,0,qs),
(421,0,o),
(579,133,o),
(600,253,qs),
(612,318,o),
(584,425,o),
(502,489,o),
(434,489,qs),
(396,489,o),
(331,469,o),
(309,452,q),
(322,526,ls),
(324,536,o),
(334,536,qs),
(569,536,ls),
(591,536,o),
(618,559,o),
(622,581,qs),
(647,721,ls),
(648,731,o),
(638,731,qs),
(168,731,ls)
);
}
);
userData = {
assembly = "PUSHB[ ]	/* 6 values pushed */
10 1 6 2 1 76 
MPPEM[ ]	/* MeasurePixelPerEm */
PUSHB[ ]	/* 1 value pushed */
22 
LT[ ]	/* LessThan */
IF[ ]	/* If */
NPUSHB[ ]	/* 50 values pushed */
0 2 1 6 1 2 6 128 0 6 7 1 6 7 126 0 7 4 1 7 4 126 0 4 5 5 4 112 0 1 1 0 95 8 1 0 0 28 77 0 5 5 3 98 0 3 3 29 3 78 
ELSE[ ]	/* Else */
MPPEM[ ]	/* MeasurePixelPerEm */
PUSHB[ ]	/* 1 value pushed */
29 
LT[ ]	/* LessThan */
IF[ ]	/* If */
NPUSHB[ ]	/* 48 values pushed */
0 2 1 6 1 2 6 128 0 6 7 1 6 7 126 0 7 4 1 7 4 126 0 4 5 5 4 112 8 1 0 0 1 2 0 1 103 0 5 5 3 98 0 3 3 29 3 78 
ELSE[ ]	/* Else */
NPUSHB[ ]	/* 49 values pushed */
0 2 1 6 1 2 6 128 0 6 7 1 6 7 126 0 7 4 1 7 4 126 0 4 5 1 4 5 126 8 1 0 0 1 2 0 1 103 0 5 5 3 98 0 3 3 29 3 78 
EIF[ ]	/* EndIf */
EIF[ ]	/* EndIf */
NPUSHB[ ]	/* 23 values pushed */
1 0 42 41 39 37 33 31 28 25 21 19 14 12 8 5 0 45 1 44 9 8 22 
CALL[ ]	/* CallFunction */";
};
width = 660;
}
);
note = five;
unicode = 53;
},
{
glyphname = six;
lastChange = "2022-10-20 15:49:47 +0000";
layers = (
{
layerId = m01;
shapes = (
{
closed = 1;
nodes = (
(592,509,o),
(598,515,o),
(598,519,q),
(606,615,o),
(508,744,o),
(392,744,qs),
(295,744,o),
(160,664,o),
(74,496,o),
(51,360,qs),
(20,186,o),
(108,-7,o),
(265,-7,qs),
(344,-7,o),
(470,53,o),
(553,164,o),
(566,239,qs),
(586,351,o),
(492,469,o),
(396,469,qs),
(353,469,o),
(279,437,o),
(256,409,q),
(270,490,o),
(309,567,o),
(347,567,qs),
(375,567,o),
(384,546,qs),
(393,526,o),
(411,509,o),
(429,509,qs),
(587,509,ls)
);
},
{
closed = 1;
nodes = (
(338,299,o),
(364,269,o),
(360,242,qs),
(354,212,o),
(318,183,o),
(290,183,qs),
(262,183,o),
(236,212,o),
(242,242,qs),
(246,269,o),
(284,299,o),
(311,299,qs)
);
}
);
userData = {
assembly = "PUSHB[ ]	/* 6 values pushed */
8 1 6 2 1 76 
MPPEM[ ]	/* MeasurePixelPerEm */
PUSHB[ ]	/* 1 value pushed */
13 
LT[ ]	/* LessThan */
IF[ ]	/* If */
NPUSHB[ ]	/* 38 values pushed */
7 1 0 1 2 1 0 114 0 2 8 1 6 5 2 6 105 0 1 1 4 97 0 4 4 34 77 0 5 5 3 97 0 3 3 35 3 78 
ELSE[ ]	/* Else */
MPPEM[ ]	/* MeasurePixelPerEm */
PUSHB[ ]	/* 1 value pushed */
15 
LT[ ]	/* LessThan */
IF[ ]	/* If */
NPUSHB[ ]	/* 36 values pushed */
7 1 0 1 2 1 0 114 0 4 0 1 0 4 1 105 0 2 8 1 6 5 2 6 105 0 5 5 3 97 0 3 3 35 3 78 
ELSE[ ]	/* Else */
MPPEM[ ]	/* MeasurePixelPerEm */
PUSHB[ ]	/* 1 value pushed */
20 
LT[ ]	/* LessThan */
IF[ ]	/* If */
NPUSHB[ ]	/* 38 values pushed */
7 1 0 1 2 1 0 114 0 2 8 1 6 5 2 6 105 0 1 1 4 97 0 4 4 34 77 0 5 5 3 97 0 3 3 35 3 78 
ELSE[ ]	/* Else */
MPPEM[ ]	/* MeasurePixelPerEm */
PUSHB[ ]	/* 1 value pushed */
22 
LT[ ]	/* LessThan */
IF[ ]	/* If */
NPUSHB[ ]	/* 36 values pushed */
7 1 0 1 2 1 0 114 0 4 0 1 0 4 1 105 0 2 8 1 6 5 2 6 105 0 5 5 3 97 0 3 3 35 3 78 
ELSE[ ]	/* Else */
NPUSHB[ ]	/* 37 values pushed */
7 1 0 1 2 1 0 2 128 0 4 0 1 0 4 1 105 0 2 8 1 6 5 2 6 105 0 5 5 3 97 0 3 3 35 3 78 
EIF[ ]	/* EndIf */
EIF[ ]	/* EndIf */
EIF[ ]	/* EndIf */
EIF[ ]	/* EndIf */
NPUSHB[ ]	/* 25 values pushed */
32 32 1 0 32 43 32 42 38 36 26 24 19 17 12 10 6 4 0 31 1 30 9 8 22 
CALL[ ]	/* CallFunction */";
};
width = 633;
}
);
note = six;
unicode = 54;
},
{
glyphname = seven;
lastChange = "2022-10-20 15:49:47 +0000";
layers = (
{
layerId = m01;
shapes = (
{
closed = 1;
nodes = (
(82,731,o),
(81,721,qs),
(57,586,ls),
(53,564,o),
(72,541,o),
(94,541,qs),
(250,541,ls),
(276,541,o),
(290,513,o),
(276,489,qs),
(-11,12,ls),
(-14,7,o),
(-10,0,o),
(-5,0,qs),
(202,0,ls),
(210,0,o),
(214,8,qs),
(538,568,l),
(559,686,ls),
(562,708,o),
(543,731,o),
(521,731,qs),
(92,731,ls)
);
}
);
userData = {
assembly = "PUSHB[ ]	/* 6 values pushed */
4 1 2 0 1 76 
MPPEM[ ]	/* MeasurePixelPerEm */
PUSHB[ ]	/* 1 value pushed */
22 
LT[ ]	/* LessThan */
IF[ ]	/* If */
NPUSHB[ ]	/* 17 values pushed */
0 2 2 0 95 3 1 0 0 28 77 0 1 1 29 1 78 
ELSE[ ]	/* Else */
NPUSHB[ ]	/* 15 values pushed */
3 1 0 0 2 1 0 2 103 0 1 1 29 1 78 
EIF[ ]	/* EndIf */
NPUSHB[ ]	/* 13 values pushed */
1 0 17 14 8 6 0 22 1 21 4 8 22 
CALL[ ]	/* CallFunction */";
};
width = 512;
}
);
note = seven;
unicode = 55;
},
{
glyphname = eight;
lastChange = "2022-10-20 15:49:47 +0000";
layers = (
{
layerId = m01;
shapes = (
{
closed = 1;
nodes = (
(44,343,o),
(23,225,qs),
(9,149,o),
(67,43,o),
(185,-11,o),
(261,-11,qs),
(337,-11,o),
(475,43,o),
(569,149,o),
(583,225,qs),
(604,343,o),
(513,402,q),
(557,425,o),
(615,500,o),
(624,552,qs),
(634,606,o),
(591,694,o),
(482,747,o),
(395,747,qs),
(308,747,o),
(179,694,o),
(106,606,o),
(96,552,qs),
(87,500,o),
(119,425,o),
(155,402,q)
);
},
{
closed = 1;
nodes = (
(324,456,o),
(303,486,o),
(308,515,qs),
(313,543,o),
(345,576,o),
(365,576,qs),
(385,576,o),
(405,543,o),
(400,515,qs),
(395,486,o),
(364,456,o),
(344,456,qs)
);
},
{
closed = 1;
nodes = (
(347,307,o),
(375,268,o),
(370,238,qs),
(365,208,o),
(324,170,o),
(293,170,qs),
(262,170,o),
(235,208,o),
(240,238,qs),
(245,268,o),
(287,307,o),
(317,307,qs)
);
}
);
userData = {
assembly = "NPUSHB[ ]	/* 56 values pushed */
25 13 2 5 3 1 76 0 0 0 2 3 0 2 105 6 1 3 7 1 5 4 3 5 105 0 4 4 1 97 0 1 1 35 1 78 38 38 26 26 38 49 38 48 44 42 26 37 26 36 42 43 37 8 8 25 
CALL[ ]	/* CallFunction */";
};
width = 657;
}
);
note = eight;
unicode = 56;
},
{
glyphname = nine;
lastChange = "2022-10-20 15:49:47 +0000";
layers = (
{
layerId = m01;
shapes = (
{
closed = 1;
nodes = (
(27,228,o),
(21,222,o),
(21,218,q),
(17,158,o),
(61,56,o),
(162,-7,o),
(239,-7,qs),
(382,-7,o),
(537,191,o),
(572,389,qs),
(603,561,o),
(512,747,o),
(354,747,qs),
(276,747,o),
(149,687,o),
(66,576,o),
(53,501,qs),
(33,388,o),
(128,268,o),
(223,268,qs),
(266,268,o),
(340,300,o),
(363,328,q),
(348,245,o),
(312,170,o),
(275,170,qs),
(245,170,o),
(236,192,qs),
(226,212,o),
(208,228,o),
(190,228,qs),
(32,228,ls)
);
},
{
closed = 1;
nodes = (
(281,438,o),
(254,468,o),
(259,495,qs),
(264,525,o),
(300,554,o),
(328,554,qs),
(356,554,o),
(382,525,o),
(377,495,qs),
(372,468,o),
(335,438,o),
(308,438,qs)
);
}
);
userData = {
assembly = "PUSHB[ ]	/* 6 values pushed */
8 1 2 6 1 76 
MPPEM[ ]	/* MeasurePixelPerEm */
PUSHB[ ]	/* 1 value pushed */
22 
LT[ ]	/* LessThan */
IF[ ]	/* If */
NPUSHB[ ]	/* 36 values pushed */
7 1 0 2 1 1 0 114 0 3 0 5 6 3 5 105 8 1 6 0 2 0 6 2 105 0 1 1 4 98 0 4 4 35 4 78 
ELSE[ ]	/* Else */
NPUSHB[ ]	/* 37 values pushed */
7 1 0 2 1 2 0 1 128 0 3 0 5 6 3 5 105 8 1 6 0 2 0 6 2 105 0 1 1 4 98 0 4 4 35 4 78 
EIF[ ]	/* EndIf */
NPUSHB[ ]	/* 25 values pushed */
32 32 1 0 32 43 32 42 38 36 25 23 19 17 12 10 6 4 0 31 1 30 9 8 22 
CALL[ ]	/* CallFunction */";
};
width = 597;
}
);
note = nine;
unicode = 57;
},
{
glyphname = colon;
lastChange = "2022-10-20 15:49:47 +0000";
layers = (
{
layerId = m01;
shapes = (
{
closed = 1;
nodes = (
(260,149,o),
(201,212,o),
(144,212,qs),
(86,212,o),
(5,149,o),
(-3,101,qs),
(-11,54,o),
(48,-8,o),
(106,-8,qs),
(163,-8,o),
(244,54,o),
(252,101,qs)
);
},
{
closed = 1;
nodes = (
(330,545,o),
(271,608,o),
(214,608,qs),
(156,608,o),
(75,545,o),
(67,497,qs),
(58,450,o),
(118,388,o),
(176,388,qs),
(233,388,o),
(313,450,o),
(322,497,qs)
);
}
);
userData = {
assembly = "NPUSHB[ ]	/* 26 values pushed */
0 3 0 2 1 3 2 105 0 1 1 0 97 0 0 0 35 0 78 36 36 36 33 4 8 26 
CALL[ ]	/* CallFunction */";
};
width = 319;
}
);
note = colon;
unicode = 58;
},
{
glyphname = semicolon;
lastChange = "2022-10-20 15:49:47 +0000";
layers = (
{
layerId = m01;
shapes = (
{
closed = 1;
nodes = (
(378,530,o),
(319,593,o),
(262,593,qs),
(204,593,o),
(123,530,o),
(115,482,qs),
(107,435,o),
(166,373,o),
(224,373,qs),
(281,373,o),
(362,435,o),
(370,482,qs)
);
},
{
closed = 1;
nodes = (
(-12,-161,l),
(134,-161,l),
(330,205,l),
(110,205,l)
);
}
);
userData = {
assembly = "MPPEM[ ]	/* MeasurePixelPerEm */
PUSHB[ ]	/* 1 value pushed */
22 
LT[ ]	/* LessThan */
IF[ ]	/* If */
NPUSHB[ ]	/* 19 values pushed */
4 1 3 0 2 3 2 99 0 0 0 1 97 0 1 1 37 0 78 
ELSE[ ]	/* Else */
NPUSHB[ ]	/* 26 values pushed */
0 1 0 0 3 1 0 105 4 1 3 2 2 3 87 4 1 3 3 2 95 0 2 3 2 79 
EIF[ ]	/* EndIf */
NPUSHB[ ]	/* 12 values pushed */
12 12 12 15 12 15 20 36 33 5 8 25 
CALL[ ]	/* CallFunction */";
};
width = 385;
}
);
note = semicolon;
unicode = 59;
},
{
glyphname = less;
lastChange = "2022-10-20 15:49:47 +0000";
layers = (
{
layerId = m01;
shapes = (
{
closed = 1;
nodes = (
(303,330,o),
(307,350,o),
(315,358,qs),
(503,544,ls),
(508,549,o),
(505,556,o),
(499,556,qs),
(245,556,ls),
(238,556,o),
(232,550,qs),
(38,358,ls),
(30,350,o),
(26,330,o),
(32,322,qs),
(158,131,ls),
(162,125,o),
(169,125,qs),
(423,125,ls),
(429,125,o),
(434,133,o),
(431,137,qs),
(309,322,ls)
);
}
);
userData = {
assembly = "NPUSHB[ ]	/* 22 values pushed */
0 1 0 1 1 76 0 0 0 1 95 0 1 1 31 0 78 40 34 2 8 24 
CALL[ ]	/* CallFunction */";
};
width = 497;
}
);
note = less;
unicode = 60;
},
{
glyphname = equal;
lastChange = "2022-10-20 15:49:47 +0000";
layers = (
{
layerId = m01;
shapes = (
{
closed = 1;
nodes = (
(-22,99,o),
(-12,99,qs),
(554,99,ls),
(564,99,o),
(565,109,qs),
(597,290,ls),
(599,300,o),
(589,300,qs),
(23,300,ls),
(13,300,o),
(11,290,qs),
(-21,109,ls)
);
},
{
closed = 1;
nodes = (
(27,379,o),
(37,379,qs),
(603,379,ls),
(613,379,o),
(615,389,qs),
(647,570,ls),
(648,580,o),
(638,580,qs),
(72,580,ls),
(62,580,o),
(61,570,qs),
(29,389,ls)
);
}
);
userData = {
assembly = "MPPEM[ ]	/* MeasurePixelPerEm */
PUSHB[ ]	/* 1 value pushed */
31 
LT[ ]	/* LessThan */
IF[ ]	/* If */
NPUSHB[ ]	/* 18 values pushed */
0 0 0 1 0 1 99 0 3 3 2 95 0 2 2 31 3 78 
ELSE[ ]	/* Else */
NPUSHB[ ]	/* 24 values pushed */
0 2 0 3 0 2 3 103 0 0 1 1 0 87 0 0 0 1 95 0 1 0 1 79 
EIF[ ]	/* EndIf */
PUSHB[ ]	/* 7 values pushed */
51 51 51 49 4 8 26 
CALL[ ]	/* CallFunction */";
};
width = 626;
}
);
note = equal;
unicode = 61;
},
{
glyphname = greater;
lastChange = "2022-10-20 15:49:47 +0000";
layers = (
{
layerId = m01;
shapes = (
{
closed = 1;
nodes = (
(-11,133,o),
(-8,125,o),
(-2,125,qs),
(252,125,ls),
(260,125,o),
(265,131,q),
(459,322,l),
(468,330,o),
(472,350,o),
(465,358,q),
(339,550,l),
(336,556,o),
(328,556,qs),
(74,556,ls),
(68,556,o),
(63,549,o),
(66,544,qs),
(188,358,l),
(195,350,o),
(191,330,o),
(182,322,q),
(-6,137,ls)
);
}
);
userData = {
assembly = "NPUSHB[ ]	/* 16 values pushed */
0 1 1 0 95 0 0 0 31 1 78 40 38 2 8 24 
CALL[ ]	/* CallFunction */";
};
width = 497;
}
);
note = greater;
unicode = 62;
},
{
glyphname = question;
lastChange = "2022-10-20 15:49:47 +0000";
layers = (
{
layerId = m01;
shapes = (
{
closed = 1;
nodes = (
(256,548,o),
(259,558,qs),
(264,574,o),
(285,593,o),
(303,593,qs),
(318,593,o),
(334,573,o),
(332,556,qs),
(327,525,o),
(260,498,o),
(199,498,qs),
(115,498,l),
(86,296,ls),
(84,286,o),
(94,286,qs),
(270,286,ls),
(275,286,o),
(282,292,o),
(283,296,qs),
(299,357,l),
(395,359,o),
(533,467,o),
(548,555,qs),
(567,662,o),
(452,773,o),
(341,773,qs),
(257,773,o),
(133,715,o),
(58,617,o),
(49,558,qs),
(47,548,o),
(57,548,qs),
(246,548,ls)
);
},
{
closed = 1;
nodes = (
(288,149,o),
(229,212,o),
(172,212,qs),
(114,212,o),
(33,149,o),
(24,101,qs),
(16,54,o),
(75,-8,o),
(133,-8,qs),
(190,-8,o),
(271,54,o),
(279,101,qs)
);
}
);
userData = {
assembly = "MPPEM[ ]	/* MeasurePixelPerEm */
PUSHB[ ]	/* 1 value pushed */
27 
LT[ ]	/* LessThan */
IF[ ]	/* If */
NPUSHB[ ]	/* 43 values pushed */
0 5 1 0 0 5 114 0 2 4 3 4 2 3 128 0 1 8 1 0 4 1 0 103 0 4 0 3 7 4 3 103 0 7 7 6 97 0 6 6 35 6 78 
ELSE[ ]	/* Else */
NPUSHB[ ]	/* 44 values pushed */
0 5 1 0 1 5 0 128 0 2 4 3 4 2 3 128 0 1 8 1 0 4 1 0 103 0 4 0 3 7 4 3 103 0 7 7 6 97 0 6 6 35 6 78 
EIF[ ]	/* EndIf */
NPUSHB[ ]	/* 23 values pushed */
1 0 42 40 36 34 28 26 22 20 18 15 12 11 7 5 0 32 1 31 9 8 22 
CALL[ ]	/* CallFunction */";
};
width = 538;
}
);
note = question;
unicode = 63;
},
{
glyphname = at;
lastChange = "2022-10-20 15:49:47 +0000";
layers = (
{
layerId = m01;
shapes = (
{
closed = 1;
nodes = (
(825,-4,o),
(964,80,o),
(1054,225,o),
(1070,315,qs),
(1089,424,o),
(1018,593,o),
(848,687,o),
(727,687,qs),
(568,687,o),
(283,546,o),
(89,295,o),
(61,136,qs),
(41,22,o),
(108,-151,o),
(272,-245,o),
(391,-245,qs),
(513,-245,o),
(623,-203,qs),
(634,-198,o),
(633,-190,qs),
(624,-105,ls),
(619,-62,o),
(573,-76,qs),
(501,-96,o),
(427,-96,qs),
(312,-96,o),
(204,38,o),
(224,152,qs),
(242,257,o),
(377,436,o),
(574,541,o),
(682,541,qs),
(762,541,o),
(871,483,o),
(918,378,o),
(906,309,qs),
(892,235,o),
(834,138,o),
(794,138,qs),
(753,138,o),
(776,201,qs),
(837,373,ls),
(845,396,o),
(828,422,o),
(805,422,qs),
(691,422,ls),
(682,422,o),
(679,413,qs),
(662,364,l),
(657,393,o),
(608,427,o),
(567,427,qs),
(505,427,o),
(392,350,o),
(314,224,o),
(301,153,qs),
(288,77,o),
(355,-7,o),
(428,-7,qs),
(481,-7,o),
(571,34,o),
(603,73,q),
(613,36,o),
(683,-4,o),
(738,-4,qs)
);
},
{
closed = 1;
nodes = (
(602,191,o),
(553,147,o),
(528,147,qs),
(508,147,o),
(490,173,o),
(493,195,qs),
(499,229,o),
(547,274,o),
(573,274,qs),
(592,274,o),
(612,247,o),
(608,224,qs)
);
}
);
userData = {
assembly = "MPPEM[ ]	/* MeasurePixelPerEm */
PUSHB[ ]	/* 1 value pushed */
45 
LT[ ]	/* LessThan */
IF[ ]	/* If */
NPUSHB[ ]	/* 10 values pushed */
15 1 9 1 2 1 0 3 2 76 
ELSE[ ]	/* Else */
NPUSHB[ ]	/* 10 values pushed */
15 1 9 2 2 1 0 3 2 76 
EIF[ ]	/* EndIf */
MPPEM[ ]	/* MeasurePixelPerEm */
PUSHB[ ]	/* 1 value pushed */
24 
LT[ ]	/* LessThan */
IF[ ]	/* If */
NPUSHB[ ]	/* 40 values pushed */
2 1 1 0 9 3 1 9 105 0 5 0 6 5 6 102 0 4 4 7 97 0 7 7 28 77 10 1 3 3 0 98 11 8 2 0 0 35 0 78 
ELSE[ ]	/* Else */
MPPEM[ ]	/* MeasurePixelPerEm */
PUSHB[ ]	/* 1 value pushed */
27 
LT[ ]	/* LessThan */
IF[ ]	/* If */
NPUSHB[ ]	/* 38 values pushed */
0 7 0 4 1 7 4 105 2 1 1 0 9 3 1 9 105 0 5 0 6 5 6 102 10 1 3 3 0 98 11 8 2 0 0 35 0 78 
ELSE[ ]	/* Else */
MPPEM[ ]	/* MeasurePixelPerEm */
PUSHB[ ]	/* 1 value pushed */
45 
LT[ ]	/* LessThan */
IF[ ]	/* If */
NPUSHB[ ]	/* 45 values pushed */
0 10 9 3 9 10 3 128 0 7 0 4 1 7 4 105 2 1 1 0 9 10 1 9 105 0 5 0 6 5 6 102 0 3 3 0 98 11 8 2 0 0 35 0 78 
ELSE[ ]	/* Else */
NPUSHB[ ]	/* 52 values pushed */
0 2 1 9 1 2 9 128 0 10 9 3 9 10 3 128 0 7 0 4 1 7 4 105 0 1 0 9 10 1 9 105 0 5 0 6 5 6 102 0 3 3 0 98 11 8 2 0 0 35 0 78 
EIF[ ]	/* EndIf */
EIF[ ]	/* EndIf */
EIF[ ]	/* EndIf */
NPUSHB[ ]	/* 21 values pushed */
0 0 74 72 68 66 0 64 0 63 38 39 37 37 36 52 37 36 12 8 30 
CALL[ ]	/* CallFunction */";
};
width = 1129;
}
);
note = at;
unicode = 64;
},
{
glyphname = A;
lastChange = "2022-10-20 15:49:47 +0000";
layers = (
{
layerId = m01;
shapes = (
{
closed = 1;
nodes = (
(296,273,ls),
(289,273,o),
(287,277,o),
(290,284,cs),
(377,443,ls),
(382,451,o),
(390,451,o),
(391,443,cs),
(422,284,ls),
(423,277,o),
(419,273,o),
(412,273,cs)
);
},
{
closed = 1;
nodes = (
(472,35,ls),
(477,12,o),
(491,0,o),
(517,0,cs),
(648,0,ls),
(659,0,o),
(665,6,o),
(663,16,cs),
(527,678,ls),
(522,701,o),
(508,713,o),
(482,713,cs),
(384,713,ls),
(358,713,o),
(340,701,o),
(327,678,cs),
(-45,16,ls),
(-51,6,o),
(-47,0,o),
(-36,0,cs),
(94,0,ls),
(120,0,o),
(138,11,o),
(151,35,cs),
(211,139,ls),
(214,145,o),
(219,147,o),
(224,147,cs),
(440,147,ls),
(445,147,o),
(450,145,o),
(451,139,cs)
);
}
);
userData = {
assembly = "MPPEM[ ]	/* MeasurePixelPerEm */
PUSHB[ ]	/* 1 value pushed */
50 
LT[ ]	/* LessThan */
IF[ ]	/* If */
NPUSHB[ ]	/* 27 values pushed */
7 1 5 0 2 1 5 2 103 0 4 4 0 97 0 0 0 34 77 6 3 2 1 1 29 1 78 
ELSE[ ]	/* Else */
NPUSHB[ ]	/* 27 values pushed */
6 3 2 1 2 1 134 7 1 5 0 2 1 5 2 103 0 4 4 0 97 0 0 0 34 4 78 
EIF[ ]	/* EndIf */
NPUSHB[ ]	/* 20 values pushed */
33 33 0 0 33 44 33 43 39 38 0 32 0 31 53 53 54 8 8 25 
CALL[ ]	/* CallFunction */";
};
width = 744;
}
);
note = A;
unicode = 65;
},
{
glyphname = B;
lastChange = "2022-10-20 15:49:47 +0000";
layers = (
{
layerId = m01;
shapes = (
{
closed = 1;
nodes = (
(-10,-1,o),
(-2,-10,o),
(4,-10,qs),
(321,-10,ls),
(396,-10,o),
(531,43,o),
(621,136,o),
(631,193,qs),
(642,252,o),
(570,332,o),
(513,357,q),
(570,384,o),
(658,464,o),
(667,514,qs),
(676,568,o),
(619,658,o),
(504,710,o),
(430,710,qs),
(130,710,ls),
(124,710,o),
(114,701,o),
(113,695,qs),
(-9,5,ls)
);
},
{
closed = 1;
nodes = (
(287,527,ls),
(290,542,o),
(315,563,o),
(330,563,qs),
(382,563,ls),
(416,563,o),
(452,526,o),
(446,494,qs),
(441,461,o),
(389,420,o),
(356,420,qs),
(268,420,l)
);
},
{
closed = 1;
nodes = (
(238,246,ls),
(240,261,o),
(265,282,o),
(280,282,qs),
(337,282,ls),
(373,282,o),
(424,242,o),
(418,211,qs),
(413,178,o),
(358,136,o),
(325,136,qs),
(218,136,l)
);
}
);
userData = {
assembly = "NPUSHB[ ]	/* 10 values pushed */
0 1 3 0 11 1 5 2 2 76 
MPPEM[ ]	/* MeasurePixelPerEm */
PUSHB[ ]	/* 1 value pushed */
50 
LT[ ]	/* LessThan */
IF[ ]	/* If */
NPUSHB[ ]	/* 31 values pushed */
6 1 2 0 5 4 2 5 105 0 3 3 0 95 0 0 0 28 77 7 1 4 4 1 95 0 1 1 29 1 78 
ELSE[ ]	/* Else */
NPUSHB[ ]	/* 28 values pushed */
6 1 2 0 5 4 2 5 105 7 1 4 0 1 4 1 99 0 3 3 0 95 0 0 0 28 3 78 
EIF[ ]	/* EndIf */
NPUSHB[ ]	/* 21 values pushed */
36 35 24 23 43 40 35 46 36 46 31 28 23 34 24 34 44 50 8 8 24 
CALL[ ]	/* CallFunction */";
};
width = 684;
}
);
note = B;
unicode = 66;
},
{
glyphname = C;
lastChange = "2022-10-20 15:49:47 +0000";
layers = (
{
layerId = m01;
shapes = (
{
closed = 1;
nodes = (
(11,250,o),
(68,86,o),
(210,-5,o),
(317,-5,qs),
(444,-5,o),
(642,124,o),
(693,235,qs),
(701,253,o),
(687,274,o),
(669,274,qs),
(503,274,ls),
(489,274,o),
(468,262,o),
(456,250,qs),
(435,226,o),
(380,200,o),
(349,200,qs),
(293,200,o),
(242,284,o),
(255,355,qs),
(268,426,o),
(347,510,o),
(403,510,qs),
(434,510,o),
(481,484,o),
(494,460,qs),
(500,448,o),
(517,436,o),
(531,436,qs),
(697,436,ls),
(715,436,o),
(737,457,o),
(735,475,qs),
(724,586,o),
(570,715,o),
(443,715,qs),
(336,715,o),
(162,624,o),
(49,460,o),
(30,355,qs)
);
}
);
userData = {
assembly = "MPPEM[ ]	/* MeasurePixelPerEm */
PUSHB[ ]	/* 1 value pushed */
17 
LT[ ]	/* LessThan */
IF[ ]	/* If */
NPUSHB[ ]	/* 34 values pushed */
0 1 2 4 2 1 114 0 4 3 3 4 112 0 2 2 0 97 0 0 0 34 77 0 3 3 5 98 0 5 5 35 5 78 
ELSE[ ]	/* Else */
NPUSHB[ ]	/* 36 values pushed */
0 1 2 4 2 1 4 128 0 4 3 2 4 3 126 0 2 2 0 97 0 0 0 34 77 0 3 3 5 98 0 5 5 35 5 78 
EIF[ ]	/* EndIf */
NPUSHB[ ]	/* 9 values pushed */
36 52 36 36 52 34 6 8 28 
CALL[ ]	/* CallFunction */";
};
width = 753;
}
);
note = C;
unicode = 67;
},
{
glyphname = D;
lastChange = "2022-10-20 15:49:47 +0000";
layers = (
{
layerId = m01;
shapes = (
{
closed = 1;
nodes = (
(11,7,o),
(28,-10,o),
(41,-10,qs),
(285,-10,ls),
(384,-10,o),
(569,88,o),
(697,254,o),
(714,351,qs),
(731,448,o),
(661,613,o),
(510,710,o),
(411,710,qs),
(167,710,ls),
(154,710,o),
(131,693,o),
(129,681,qs),
(13,19,ls)
);
},
{
closed = 1;
nodes = (
(285,508,ls),
(288,525,o),
(310,543,o),
(326,543,qs),
(372,543,ls),
(424,543,o),
(497,493,o),
(528,406,o),
(518,351,qs),
(508,296,o),
(447,208,o),
(356,158,o),
(304,158,qs),
(223,158,l)
);
}
);
userData = {
assembly = "MPPEM[ ]	/* MeasurePixelPerEm */
PUSHB[ ]	/* 1 value pushed */
50 
LT[ ]	/* LessThan */
IF[ ]	/* If */
NPUSHB[ ]	/* 22 values pushed */
0 3 3 0 95 0 0 0 28 77 4 1 2 2 1 95 0 1 1 29 1 78 
ELSE[ ]	/* Else */
NPUSHB[ ]	/* 19 values pushed */
4 1 2 0 1 2 1 99 0 3 3 0 95 0 0 0 28 3 78 
EIF[ ]	/* EndIf */
NPUSHB[ ]	/* 13 values pushed */
18 17 27 24 17 30 18 30 54 50 5 8 24 
CALL[ ]	/* CallFunction */";
};
width = 743;
}
);
note = D;
unicode = 68;
},
{
glyphname = E;
lastChange = "2022-10-20 15:49:47 +0000";
layers = (
{
layerId = m01;
shapes = (
{
closed = 1;
nodes = (
(452,-10,ls),
(462,-10,o),
(463,0,qs),
(485,122,ls),
(488,139,o),
(473,157,o),
(456,157,qs),
(215,157,ls),
(204,157,o),
(197,168,o),
(199,182,qs),
(215,272,ls),
(215,273,o),
(213,273,o),
(212,273,q),
(212,272,o),
(210,272,qs),
(428,272,ls),
(448,272,o),
(464,282,o),
(467,301,qs),
(487,410,ls),
(490,429,o),
(478,439,o),
(458,439,qs),
(240,439,ls),
(242,439,o),
(242,438,q),
(243,438,o),
(245,438,o),
(245,439,qs),
(259,518,ls),
(261,532,o),
(272,543,o),
(283,543,qs),
(524,543,ls),
(541,543,o),
(562,562,o),
(565,578,qs),
(587,700,ls),
(588,710,o),
(578,710,qs),
(116,710,ls),
(110,710,o),
(106,706,o),
(105,700,cs),
(-19,0,ls),
(-20,-6,o),
(-16,-10,o),
(-10,-10,cs)
);
}
);
userData = {
assembly = "MPPEM[ ]	/* MeasurePixelPerEm */
PUSHB[ ]	/* 1 value pushed */
50 
LT[ ]	/* LessThan */
IF[ ]	/* If */
NPUSHB[ ]	/* 29 values pushed */
0 2 0 3 4 2 3 103 0 1 1 0 95 0 0 0 28 77 0 4 4 5 95 0 5 5 29 5 78 
ELSE[ ]	/* Else */
NPUSHB[ ]	/* 26 values pushed */
0 2 0 3 4 2 3 103 0 4 0 5 4 5 99 0 1 1 0 95 0 0 0 28 1 78 
EIF[ ]	/* EndIf */
NPUSHB[ ]	/* 9 values pushed */
52 56 37 115 52 49 6 8 28 
CALL[ ]	/* CallFunction */";
};
width = 556;
}
);
note = E;
unicode = 69;
},
{
glyphname = F;
lastChange = "2022-10-20 15:49:47 +0000";
layers = (
{
layerId = m01;
shapes = (
{
closed = 1;
nodes = (
(-12,0,o),
(-2,0,qs),
(200,0,ls),
(210,0,o),
(211,10,qs),
(255,257,ls),
(257,267,o),
(267,267,qs),
(447,267,ls),
(457,267,o),
(458,277,qs),
(484,424,ls),
(486,434,o),
(476,434,qs),
(296,434,ls),
(286,434,o),
(288,444,qs),
(297,497,ls),
(300,514,o),
(322,532,o),
(338,532,qs),
(546,532,ls),
(563,532,o),
(585,551,o),
(588,567,qs),
(611,698,ls),
(612,708,o),
(602,708,qs),
(147,708,ls),
(131,708,o),
(109,690,o),
(106,673,qs),
(-11,10,ls)
);
}
);
userData = {
assembly = "NPUSHB[ ]	/* 32 values pushed */
0 2 0 3 4 2 3 103 0 1 1 0 95 0 0 0 28 77 0 4 4 29 4 78 51 51 52 52 50 5 8 27 
CALL[ ]	/* CallFunction */";
};
width = 575;
}
);
note = F;
unicode = 70;
},
{
glyphname = G;
lastChange = "2022-10-20 15:49:47 +0000";
layers = (
{
layerId = m01;
shapes = (
{
closed = 1;
nodes = (
(229,715,o),
(67,566,o),
(30,355,cs),
(-7,144,o),
(104,-5,o),
(327,-5,cs),
(510,-5,o),
(628,102,o),
(692,187,c),
(730,399,ls),
(731,405,o),
(728,409,o),
(722,409,cs),
(416,409,ls),
(387,409,o),
(368,393,o),
(363,364,cs),
(345,262,ls),
(344,256,o),
(347,252,o),
(353,252,cs),
(520,252,l),
(479,208,o),
(435,190,o),
(385,190,cs),
(276,190,o),
(236,245,o),
(255,355,cs),
(272,449,o),
(330,510,o),
(416,510,cs),
(446,510,o),
(469,503,o),
(485,490,cs),
(501,476,o),
(514,466,o),
(537,466,cs),
(727,466,ls),
(733,466,o),
(737,470,o),
(738,477,cs),
(738,622,o),
(635,715,o),
(451,715,cs)
);
}
);
userData = {
assembly = "NPUSHB[ ]	/* 47 values pushed */
28 1 3 4 1 76 0 1 2 5 2 1 5 128 0 3 4 3 134 0 5 0 4 3 5 4 103 0 2 2 0 97 0 0 0 34 2 78 52 34 38 36 24 34 6 8 28 
CALL[ ]	/* CallFunction */";
};
width = 752;
}
);
note = G;
unicode = 71;
},
{
glyphname = H;
lastChange = "2022-10-20 15:49:47 +0000";
layers = (
{
layerId = m01;
shapes = (
{
closed = 1;
nodes = (
(453,42,ls),
(448,15,o),
(461,0,o),
(490,0,cs),
(611,0,ls),
(620,0,o),
(627,6,o),
(629,14,cs),
(749,699,ls),
(751,707,o),
(746,713,o),
(737,713,cs),
(586,713,ls),
(577,713,o),
(570,707,o),
(568,699,cs),
(527,467,ls),
(523,439,o),
(504,425,o),
(475,425,cs),
(270,425,ls),
(261,425,o),
(256,431,o),
(258,439,cs),
(298,671,ls),
(303,698,o),
(290,713,o),
(261,713,cs),
(140,713,ls),
(131,713,o),
(124,707,o),
(122,699,cs),
(2,14,ls),
(0,6,o),
(5,0,o),
(14,0,cs),
(165,0,ls),
(174,0,o),
(181,6,o),
(183,14,cs),
(225,255,ls),
(230,282,o),
(249,297,o),
(278,297,cs),
(483,297,ls),
(492,297,o),
(497,292,o),
(495,283,cs)
);
}
);
userData = {
assembly = "NPUSHB[ ]	/* 30 values pushed */
0 3 0 0 1 3 0 103 4 1 2 2 28 77 5 1 1 1 29 1 78 51 52 52 51 52 49 6 8 28 
CALL[ ]	/* CallFunction */";
};
width = 755;
}
);
note = H;
unicode = 72;
},
{
glyphname = I;
lastChange = "2022-10-20 15:49:47 +0000";
layers = (
{
layerId = m01;
shapes = (
{
closed = 1;
nodes = (
(171,-10,ls),
(181,-10,o),
(197,1,o),
(199,10,qs),
(315,665,ls),
(318,685,o),
(295,710,o),
(272,710,qs),
(146,710,ls),
(136,710,o),
(120,699,o),
(118,690,qs),
(-5,-10,l)
);
}
);
userData = {
assembly = "MPPEM[ ]	/* MeasurePixelPerEm */
PUSHB[ ]	/* 1 value pushed */
50 
LT[ ]	/* LessThan */
IF[ ]	/* If */
NPUSHB[ ]	/* 11 values pushed */
0 0 0 28 77 0 1 1 29 1 78 
ELSE[ ]	/* Else */
NPUSHB[ ]	/* 11 values pushed */
0 1 1 0 95 0 0 0 28 1 78 
EIF[ ]	/* EndIf */
PUSHB[ ]	/* 5 values pushed */
53 50 2 8 24 
CALL[ ]	/* CallFunction */";
};
width = 322;
}
);
note = I;
unicode = 73;
},
{
glyphname = J;
lastChange = "2022-10-20 15:49:47 +0000";
layers = (
{
layerId = m01;
shapes = (
{
closed = 1;
nodes = (
(321,251,ls),
(313,205,o),
(293,193,o),
(269,193,cs),
(248,193,o),
(233,201,o),
(228,228,cs),
(225,256,o),
(217,271,o),
(189,271,cs),
(27,271,ls),
(18,271,o),
(11,266,o),
(9,256,cs),
(-16,80,o),
(83,-7,o),
(244,-7,cs),
(400,-7,o),
(512,78,o),
(542,251,cs),
(620,693,ls),
(622,702,o),
(617,708,o),
(608,708,cs),
(447,708,ls),
(418,708,o),
(399,692,o),
(394,663,cs)
);
}
);
userData = {
assembly = "MPPEM[ ]	/* MeasurePixelPerEm */
PUSHB[ ]	/* 1 value pushed */
38 
LT[ ]	/* LessThan */
IF[ ]	/* If */
NPUSHB[ ]	/* 16 values pushed */
0 1 1 28 77 0 0 0 2 98 0 2 2 35 2 78 
ELSE[ ]	/* Else */
NPUSHB[ ]	/* 13 values pushed */
0 0 0 2 0 2 102 0 1 1 28 1 78 
EIF[ ]	/* EndIf */
PUSHB[ ]	/* 6 values pushed */
21 53 37 3 8 25 
CALL[ ]	/* CallFunction */";
};
width = 590;
}
);
note = J;
unicode = 74;
},
{
glyphname = K;
lastChange = "2022-10-20 15:49:47 +0000";
layers = (
{
layerId = m01;
shapes = (
{
closed = 1;
nodes = (
(411,10,ls),
(414,4,o),
(420,0,o),
(428,0,cs),
(658,0,ls),
(670,0,o),
(675,8,o),
(670,18,cs),
(493,351,ls),
(488,363,o),
(491,374,o),
(501,386,cs),
(772,690,ls),
(781,700,o),
(778,708,o),
(766,708,cs),
(549,708,ls),
(541,708,o),
(534,704,o),
(529,698,cs),
(320,455,ls),
(303,435,o),
(287,440,o),
(291,464,cs),
(326,663,ls),
(332,692,o),
(318,708,o),
(289,708,cs),
(127,708,ls),
(118,708,o),
(111,702,o),
(110,693,cs),
(-4,45,ls),
(-10,16,o),
(4,0,o),
(33,0,cs),
(195,0,ls),
(204,0,o),
(211,6,o),
(212,15,cs),
(254,252,ls),
(258,276,o),
(276,282,o),
(286,262,cs)
);
}
);
userData = {
assembly = "NPUSHB[ ]	/* 27 values pushed */
32 18 2 0 1 1 76 2 1 1 1 28 77 3 1 0 0 29 0 78 41 40 52 53 4 8 26 
CALL[ ]	/* CallFunction */";
};
width = 755;
}
);
note = K;
unicode = 75;
},
{
glyphname = L;
lastChange = "2022-10-20 15:49:47 +0000";
layers = (
{
layerId = m01;
shapes = (
{
closed = 1;
nodes = (
(-30,0,o),
(-20,0,qs),
(382,0,ls),
(404,0,o),
(420,13,o),
(424,35,cs),
(444,150,ls),
(445,159,o),
(440,165,o),
(431,165,cs),
(214,165,ls),
(201,165,o),
(192,177,o),
(194,189,qs),
(278,666,ls),
(282,687,o),
(263,710,o),
(241,710,qs),
(106,710,ls),
(96,710,o),
(94,700,qs),
(-28,10,ls)
);
}
);
userData = {
assembly = "MPPEM[ ]	/* MeasurePixelPerEm */
PUSHB[ ]	/* 1 value pushed */
50 
LT[ ]	/* LessThan */
IF[ ]	/* If */
NPUSHB[ ]	/* 16 values pushed */
0 0 0 28 77 0 1 1 2 96 0 2 2 29 2 78 
ELSE[ ]	/* Else */
NPUSHB[ ]	/* 13 values pushed */
0 1 0 2 1 2 100 0 0 0 28 0 78 
EIF[ ]	/* EndIf */
PUSHB[ ]	/* 6 values pushed */
52 53 49 3 8 25 
CALL[ ]	/* CallFunction */";
};
width = 506;
}
);
note = L;
unicode = 76;
},
{
glyphname = M;
lastChange = "2022-10-20 15:49:47 +0000";
layers = (
{
layerId = m01;
shapes = (
{
closed = 1;
nodes = (
(460,28,ls),
(485,28,o),
(504,39,o),
(519,62,cs),
(660,282,ls),
(668,295,o),
(680,294,o),
(677,279,cs),
(636,42,ls),
(631,15,o),
(644,0,o),
(673,0,cs),
(794,0,ls),
(803,0,o),
(810,6,o),
(812,14,cs),
(932,699,ls),
(934,707,o),
(929,713,o),
(920,713,cs),
(796,713,ls),
(771,713,o),
(752,702,o),
(738,680,cs),
(468,264,ls),
(461,252,o),
(451,252,o),
(448,264,cs),
(324,680,ls),
(318,702,o),
(303,713,o),
(278,713,cs),
(153,713,ls),
(144,713,o),
(137,707,o),
(135,699,cs),
(15,14,ls),
(13,6,o),
(18,0,o),
(27,0,cs),
(148,0,ls),
(177,0,o),
(196,15,o),
(201,42,cs),
(243,282,ls),
(246,297,o),
(258,298,o),
(262,286,cs),
(326,62,ls),
(333,39,o),
(348,28,o),
(373,28,cs)
);
}
);
userData = {
assembly = "MPPEM[ ]	/* MeasurePixelPerEm */
PUSHB[ ]	/* 1 value pushed */
24 
LT[ ]	/* LessThan */
IF[ ]	/* If */
NPUSHB[ ]	/* 19 values pushed */
2 1 0 0 34 77 0 1 1 3 95 5 4 2 3 3 29 3 78 
ELSE[ ]	/* Else */
MPPEM[ ]	/* MeasurePixelPerEm */
PUSHB[ ]	/* 1 value pushed */
36 
LT[ ]	/* LessThan */
IF[ ]	/* If */
NPUSHB[ ]	/* 23 values pushed */
2 1 0 0 34 77 5 1 3 3 29 77 0 1 1 4 97 0 4 4 35 4 78 
ELSE[ ]	/* Else */
MPPEM[ ]	/* MeasurePixelPerEm */
PUSHB[ ]	/* 1 value pushed */
45 
LT[ ]	/* LessThan */
IF[ ]	/* If */
NPUSHB[ ]	/* 20 values pushed */
0 1 0 4 1 4 101 2 1 0 0 34 77 5 1 3 3 29 3 78 
ELSE[ ]	/* Else */
NPUSHB[ ]	/* 20 values pushed */
0 1 0 4 1 4 101 5 1 3 3 0 97 2 1 0 0 34 3 78 
EIF[ ]	/* EndIf */
EIF[ ]	/* EndIf */
EIF[ ]	/* EndIf */
NPUSHB[ ]	/* 9 values pushed */
56 57 52 52 20 49 6 8 28 
CALL[ ]	/* CallFunction */";
};
width = 951;
}
);
note = M;
unicode = 77;
},
{
glyphname = N;
lastChange = "2022-10-20 15:49:47 +0000";
layers = (
{
layerId = m01;
shapes = (
{
closed = 1;
nodes = (
(14,42,ls),
(9,15,o),
(22,0,o),
(51,0,cs),
(172,0,ls),
(181,0,o),
(188,6,o),
(190,14,cs),
(260,416,l),
(465,27,ls),
(475,9,o),
(490,0,o),
(514,0,cs),
(629,0,ls),
(638,0,o),
(645,6,o),
(647,14,cs),
(762,671,ls),
(767,698,o),
(754,713,o),
(725,713,cs),
(604,713,ls),
(595,713,o),
(588,707,o),
(586,699,cs),
(516,298,l),
(311,686,ls),
(301,704,o),
(286,713,o),
(262,713,cs),
(147,713,ls),
(138,713,o),
(131,707,o),
(129,699,cs)
);
}
);
userData = {
assembly = "NPUSHB[ ]	/* 36 values pushed */
23 9 2 1 0 1 76 3 4 2 0 0 28 77 2 1 1 1 29 1 78 1 0 20 18 15 12 6 4 0 27 1 26 5 8 22 
CALL[ ]	/* CallFunction */";
};
width = 779;
}
);
note = N;
unicode = 78;
},
{
glyphname = O;
lastChange = "2022-10-20 15:49:47 +0000";
layers = (
{
layerId = m01;
shapes = (
{
closed = 1;
nodes = (
(776,461,o),
(709,627,o),
(559,720,o),
(459,720,qs),
(359,720,o),
(176,627,o),
(48,461,o),
(30,357,qs),
(12,253,o),
(80,87,o),
(231,-7,o),
(331,-7,qs),
(430,-7,o),
(613,87,o),
(740,253,o),
(758,357,qs)
);
},
{
closed = 1;
nodes = (
(269,430,o),
(356,515,o),
(423,515,qs),
(489,515,o),
(546,430,o),
(533,357,qs),
(520,285,o),
(433,200,o),
(367,200,qs),
(300,200,o),
(243,285,o),
(256,357,qs)
);
}
);
userData = {
assembly = "NPUSHB[ ]	/* 28 values pushed */
0 3 3 1 97 0 1 1 34 77 0 2 2 0 97 0 0 0 35 0 78 36 37 38 34 4 8 26 
CALL[ ]	/* CallFunction */";
};
width = 788;
}
);
note = O;
unicode = 79;
},
{
glyphname = P;
lastChange = "2022-10-20 15:49:47 +0000";
layers = (
{
layerId = m01;
shapes = (
{
closed = 1;
nodes = (
(295,485,ls),
(299,507,o),
(326,530,o),
(348,530,qs),
(366,530,ls),
(435,530,o),
(424,465,qs),
(412,400,o),
(343,400,qs),
(280,400,l)
);
},
{
closed = 1;
nodes = (
(668,576,o),
(552,708,o),
(422,708,qs),
(122,708,ls),
(112,708,o),
(111,698,qs),
(-11,10,ls),
(-12,0,o),
(-2,0,qs),
(165,0,ls),
(187,0,o),
(214,23,o),
(218,45,qs),
(247,215,ls),
(249,225,o),
(259,225,qs),
(337,225,ls),
(423,225,o),
(556,289,o),
(637,398,o),
(649,465,qs)
);
}
);
userData = {
assembly = "NPUSHB[ ]	/* 42 values pushed */
5 1 0 0 2 3 0 2 103 0 1 1 4 95 0 4 4 28 77 0 3 3 29 3 78 1 0 28 25 22 19 15 12 6 3 0 9 1 9 6 8 22 
CALL[ ]	/* CallFunction */";
};
width = 649;
}
);
note = P;
unicode = 80;
},
{
glyphname = Q;
lastChange = "2022-10-20 15:49:47 +0000";
layers = (
{
layerId = m01;
shapes = (
{
closed = 1;
nodes = (
(278,430,o),
(365,515,o),
(432,515,qs),
(498,515,o),
(555,430,o),
(543,357,qs),
(530,285,o),
(443,200,o),
(377,200,qs),
(310,200,o),
(253,285,o),
(266,357,qs)
);
},
{
closed = 1;
nodes = (
(786,461,o),
(718,627,o),
(569,720,o),
(469,720,qs),
(369,720,o),
(185,627,o),
(58,461,o),
(40,357,qs),
(21,253,o),
(90,87,o),
(240,-7,o),
(340,-7,qs),
(358,-7,o),
(368,-6,qs),
(395,-4,o),
(405,-28,qs),
(433,-91,ls),
(442,-115,o),
(470,-115,qs),
(689,-115,ls),
(695,-115,o),
(701,-108,o),
(697,-103,qs),
(610,52,ls),
(595,77,o),
(623,102,qs),
(679,151,o),
(754,281,o),
(768,357,qs)
);
}
);
userData = {
assembly = "NPUSHB[ ]	/* 34 values pushed */
0 2 3 2 134 0 1 1 4 97 0 4 4 34 77 0 0 0 3 97 0 3 3 35 3 78 38 37 58 36 33 5 8 27 
CALL[ ]	/* CallFunction */";
};
width = 788;
}
);
note = Q;
unicode = 81;
},
{
glyphname = R;
lastChange = "2022-10-20 15:49:47 +0000";
layers = (
{
layerId = m01;
shapes = (
{
closed = 1;
nodes = (
(438,431,o),
(400,402,o),
(368,402,qs),
(280,402,l),
(295,487,ls),
(298,504,o),
(321,522,o),
(337,522,qs),
(390,522,ls),
(421,522,o),
(448,490,o),
(443,462,qs)
);
},
{
closed = 1;
nodes = (
(149,708,o),
(122,685,o),
(118,663,qs),
(3,10,ls),
(2,0,o),
(12,0,qs),
(200,0,ls),
(210,0,o),
(211,10,qs),
(254,254,l),
(255,254,l),
(282,175,l),
(332,32,ls),
(343,0,o),
(380,0,qs),
(574,0,ls),
(580,0,o),
(585,7,o),
(583,12,qs),
(485,261,ls),
(481,270,o),
(492,275,q),
(567,301,o),
(658,407,o),
(671,476,qs),
(682,542,o),
(640,647,o),
(528,708,o),
(442,708,qs),
(171,708,ls)
);
}
);
userData = {
assembly = "NPUSHB[ ]	/* 47 values pushed */
30 1 3 1 1 76 0 1 0 3 0 1 3 128 0 0 0 2 95 5 1 2 2 28 77 4 1 3 3 29 3 78 13 12 36 33 27 24 12 41 13 40 35 49 6 8 24 
CALL[ ]	/* CallFunction */";
};
width = 670;
}
);
note = R;
unicode = 82;
},
{
glyphname = S;
lastChange = "2022-10-20 15:49:47 +0000";
layers = (
{
layerId = m01;
shapes = (
{
closed = 1;
nodes = (
(584,281,o),
(534,363,o),
(455,409,o),
(393,434,qs),
(339,456,o),
(291,487,o),
(295,511,qs),
(298,528,o),
(320,547,o),
(334,547,qs),
(364,547,o),
(371,522,qs),
(375,505,o),
(389,491,o),
(404,491,qs),
(602,491,ls),
(607,491,o),
(613,497,o),
(612,501,q),
(624,606,o),
(492,720,o),
(365,720,qs),
(288,720,o),
(156,670,o),
(68,573,o),
(56,504,qs),
(43,435,o),
(91,347,o),
(172,301,o),
(236,277,qs),
(289,257,o),
(338,226,o),
(334,201,qs),
(330,183,o),
(302,166,o),
(284,166,qs),
(250,166,o),
(243,195,qs),
(239,212,o),
(225,227,o),
(210,227,qs),
(15,227,ls),
(10,227,o),
(4,221,o),
(4,217,q),
(-4,107,o),
(139,-7,o),
(263,-7,qs),
(347,-7,o),
(479,51,o),
(561,154,o),
(573,219,qs)
);
}
);
userData = {
assembly = "PUSHB[ ]	/* 6 values pushed */
32 1 4 5 1 76 
MPPEM[ ]	/* MeasurePixelPerEm */
PUSHB[ ]	/* 1 value pushed */
20 
LT[ ]	/* LessThan */
IF[ ]	/* If */
NPUSHB[ ]	/* 35 values pushed */
0 5 3 4 4 5 114 0 1 4 2 2 1 114 0 4 4 3 98 0 3 3 34 77 0 2 2 0 98 0 0 0 35 0 78 
ELSE[ ]	/* Else */
MPPEM[ ]	/* MeasurePixelPerEm */
PUSHB[ ]	/* 1 value pushed */
22 
LT[ ]	/* LessThan */
IF[ ]	/* If */
NPUSHB[ ]	/* 36 values pushed */
0 5 3 4 4 5 114 0 1 4 2 4 1 2 128 0 4 4 3 98 0 3 3 34 77 0 2 2 0 98 0 0 0 35 0 78 
ELSE[ ]	/* Else */
NPUSHB[ ]	/* 37 values pushed */
0 5 3 4 3 5 4 128 0 1 4 2 4 1 2 128 0 4 4 3 98 0 3 3 34 77 0 2 2 0 98 0 0 0 35 0 78 
EIF[ ]	/* EndIf */
EIF[ ]	/* EndIf */
NPUSHB[ ]	/* 9 values pushed */
35 52 44 35 52 34 6 8 28 
CALL[ ]	/* CallFunction */";
};
width = 625;
}
);
note = S;
unicode = 83;
},
{
glyphname = T;
lastChange = "2022-10-20 15:49:47 +0000";
layers = (
{
layerId = m01;
shapes = (
{
closed = 1;
nodes = (
(41,532,o),
(51,532,qs),
(192,532,ls),
(209,532,o),
(224,514,o),
(221,497,qs),
(135,10,ls),
(134,0,o),
(144,0,qs),
(346,0,ls),
(356,0,o),
(357,10,qs),
(443,497,ls),
(446,514,o),
(468,532,o),
(484,532,qs),
(627,532,ls),
(637,532,o),
(639,542,qs),
(667,698,ls),
(668,708,o),
(658,708,qs),
(82,708,ls),
(72,708,o),
(71,698,qs),
(43,542,ls)
);
}
);
userData = {
assembly = "NPUSHB[ ]	/* 24 values pushed */
3 1 1 1 0 95 0 0 0 28 77 0 2 2 29 2 78 52 52 51 49 4 8 26 
CALL[ ]	/* CallFunction */";
};
width = 616;
}
);
note = T;
unicode = 84;
},
{
glyphname = U;
lastChange = "2022-10-20 15:49:47 +0000";
layers = (
{
layerId = m01;
shapes = (
{
closed = 1;
nodes = (
(21,207,o),
(74,65,o),
(200,-7,o),
(290,-7,qs),
(380,-7,o),
(539,65,o),
(648,208,o),
(666,309,qs),
(734,698,ls),
(736,708,o),
(726,708,qs),
(560,708,ls),
(538,708,o),
(511,685,o),
(507,663,qs),
(445,309,ls),
(436,260,o),
(380,203,o),
(332,203,qs),
(284,203,o),
(251,260,o),
(260,309,qs),
(322,663,ls),
(326,685,o),
(307,708,o),
(285,708,qs),
(119,708,ls),
(109,708,o),
(107,698,qs),
(39,309,ls)
);
}
);
userData = {
assembly = "NPUSHB[ ]	/* 24 values pushed */
2 1 0 0 28 77 0 1 1 3 97 0 3 3 35 3 78 37 53 37 49 4 8 26 
CALL[ ]	/* CallFunction */";
};
width = 719;
}
);
note = U;
unicode = 85;
},
{
glyphname = V;
lastChange = "2022-10-20 15:49:47 +0000";
layers = (
{
layerId = m01;
shapes = (
{
closed = 1;
nodes = (
(221,40,ls),
(227,14,o),
(246,0,o),
(279,0,cs),
(377,0,ls),
(410,0,o),
(435,14,o),
(449,40,cs),
(834,698,ls),
(840,707,o),
(837,713,o),
(826,713,cs),
(676,713,ls),
(643,713,o),
(618,698,o),
(604,673,cs),
(399,316,ls),
(382,286,o),
(376,286,o),
(369,316,cs),
(290,673,ls),
(284,698,o),
(265,713,o),
(232,713,cs),
(81,713,ls),
(70,713,o),
(65,707,o),
(67,698,cs)
);
}
);
userData = {
assembly = "MPPEM[ ]	/* MeasurePixelPerEm */
PUSHB[ ]	/* 1 value pushed */
50 
LT[ ]	/* LessThan */
IF[ ]	/* If */
NPUSHB[ ]	/* 17 values pushed */
2 1 0 0 28 77 0 1 1 3 97 0 3 3 29 3 78 
ELSE[ ]	/* Else */
NPUSHB[ ]	/* 14 values pushed */
0 1 0 3 1 3 101 2 1 0 0 28 0 78 
EIF[ ]	/* EndIf */
PUSHB[ ]	/* 7 values pushed */
53 51 19 50 4 8 26 
CALL[ ]	/* CallFunction */";
};
width = 777;
}
);
note = V;
unicode = 86;
},
{
glyphname = W;
lastChange = "2022-10-20 15:49:47 +0000";
layers = (
{
layerId = m01;
shapes = (
{
closed = 1;
nodes = (
(156,40,ls),
(160,15,o),
(176,0,o),
(206,0,cs),
(288,0,ls),
(318,0,o),
(341,15,o),
(352,40,c),
(589,494,l),
(561,494,l),
(638,39,ls),
(642,15,o),
(658,0,o),
(688,0,cs),
(770,0,ls),
(800,0,o),
(822,15,o),
(834,39,cs),
(1176,698,ls),
(1181,707,o),
(1177,713,o),
(1166,713,cs),
(1041,713,ls),
(1010,713,o),
(989,698,o),
(977,672,cs),
(795,315,ls),
(780,286,o),
(779,286,o),
(775,315,cs),
(718,672,l),
(716,696,o),
(700,710,o),
(674,713,c),
(553,713,l),
(524,710,o),
(507,696,o),
(496,673,cs),
(314,316,ls),
(299,288,o),
(299,288,o),
(293,316,cs),
(237,673,ls),
(233,698,o),
(218,713,o),
(187,713,cs),
(60,713,ls),
(49,713,o),
(43,707,o),
(44,698,cs)
);
}
);
userData = {
assembly = "NPUSHB[ ]	/* 22 values pushed */
2 1 2 0 0 28 77 4 1 3 3 29 3 78 55 51 56 56 49 5 8 27 
CALL[ ]	/* CallFunction */";
};
width = 1100;
}
);
note = W;
unicode = 87;
},
{
glyphname = X;
lastChange = "2022-10-20 15:49:47 +0000";
layers = (
{
layerId = m01;
shapes = (
{
closed = 1;
nodes = (
(438,0,o),
(466,0,qs),
(687,0,ls),
(693,0,o),
(698,8,o),
(695,12,q),
(532,319,ls),
(514,351,o),
(541,382,qs),
(797,696,ls),
(801,701,o),
(799,708,o),
(793,708,qs),
(582,708,ls),
(555,708,o),
(536,684,qs),
(458,581,ls),
(441,559,o),
(406,557,o),
(394,578,qs),
(338,686,ls),
(326,708,o),
(298,708,qs),
(77,708,ls),
(71,708,o),
(66,701,o),
(69,696,qs),
(228,396,ls),
(246,364,o),
(219,333,qs),
(-42,12,ls),
(-46,7,o),
(-44,0,o),
(-38,0,qs),
(173,0,ls),
(200,0,o),
(219,24,qs),
(302,134,ls),
(319,156,o),
(354,158,o),
(366,137,qs),
(426,22,ls)
);
}
);
userData = {
assembly = "NPUSHB[ ]	/* 38 values pushed */
35 1 1 0 1 76 4 1 2 2 28 77 0 0 0 3 97 0 3 3 31 77 5 1 1 1 29 1 78 57 35 19 57 35 17 6 8 28 
CALL[ ]	/* CallFunction */";
};
width = 764;
}
);
note = X;
unicode = 88;
},
{
glyphname = Y;
lastChange = "2022-10-20 15:49:47 +0000";
layers = (
{
layerId = m01;
shapes = (
{
closed = 1;
nodes = (
(193,10,ls),
(192,0,o),
(202,0,qs),
(404,0,ls),
(414,0,o),
(415,10,qs),
(451,215,l),
(784,696,ls),
(787,701,o),
(784,708,o),
(779,708,qs),
(579,708,ls),
(554,708,o),
(535,697,o),
(521,674,cs),
(399,479,ls),
(393,470,o),
(381,470,o),
(379,479,qs),
(324,674,ls),
(318,697,o),
(303,708,o),
(278,708,cs),
(75,708,ls),
(70,708,o),
(65,701,o),
(66,696,qs),
(229,215,l)
);
}
);
userData = {
assembly = "NPUSHB[ ]	/* 31 values pushed */
25 18 2 3 1 1 76 2 1 0 0 28 77 0 1 1 3 95 0 3 3 29 3 78 54 35 20 34 4 8 26 
CALL[ ]	/* CallFunction */";
};
width = 730;
}
);
note = Y;
unicode = 89;
},
{
glyphname = Z;
lastChange = "2022-10-20 15:49:47 +0000";
layers = (
{
layerId = m01;
shapes = (
{
closed = 1;
nodes = (
(642,708,o),
(632,708,qs),
(122,708,ls),
(112,708,o),
(111,698,qs),
(89,577,ls),
(85,555,o),
(104,532,o),
(126,532,qs),
(346,532,ls),
(352,532,o),
(355,525,o),
(350,520,qs),
(22,172,ls),
(17,167,o),
(16,160,qs),
(-11,10,ls),
(-12,0,o),
(-2,0,qs),
(508,0,ls),
(518,0,o),
(519,10,qs),
(541,132,ls),
(545,154,o),
(526,177,o),
(504,177,qs),
(280,177,ls),
(274,177,o),
(272,184,o),
(277,189,qs),
(608,536,ls),
(613,541,o),
(614,548,qs),
(641,698,ls)
);
}
);
userData = {
assembly = "NPUSHB[ ]	/* 38 values pushed */
0 1 2 3 17 1 1 0 2 76 0 2 2 3 95 0 3 3 28 77 0 0 0 1 95 0 1 1 29 1 78 52 55 52 53 4 8 26 
CALL[ ]	/* CallFunction */";
};
width = 630;
}
);
note = Z;
unicode = 90;
},
{
glyphname = bracketleft;
lastChange = "2022-10-20 15:49:47 +0000";
layers = (
{
layerId = m01;
shapes = (
{
closed = 1;
nodes = (
(-4,-229,o),
(6,-229,qs),
(368,-229,ls),
(378,-229,o),
(380,-219,qs),
(408,-61,ls),
(409,-51,o),
(399,-51,qs),
(280,-51,ls),
(258,-51,o),
(239,-28,o),
(243,-6,qs),
(363,672,ls),
(367,694,o),
(394,717,o),
(416,717,qs),
(535,717,ls),
(545,717,o),
(546,727,qs),
(574,885,ls),
(576,895,o),
(566,895,qs),
(204,895,ls),
(194,895,o),
(192,885,qs),
(-2,-219,ls)
);
}
);
userData = {
assembly = "NPUSHB[ ]	/* 31 values pushed */
0 0 0 1 2 0 1 103 0 2 3 3 2 87 0 2 2 3 95 0 3 2 3 79 51 53 51 49 4 8 26 
CALL[ ]	/* CallFunction */";
};
width = 533;
}
);
note = bracketleft;
unicode = 91;
},
{
glyphname = backslash;
lastChange = "2022-10-20 15:49:47 +0000";
layers = (
{
layerId = m01;
shapes = (
{
closed = 1;
nodes = (
(514,955,l),
(302,955,l),
(338,-198,l),
(550,-198,l)
);
}
);
userData = {
assembly = "NPUSHB[ ]	/* 20 values pushed */
0 0 1 0 133 2 1 1 1 118 0 0 0 3 0 3 17 3 8 23 
CALL[ ]	/* CallFunction */";
};
width = 878;
}
);
note = backslash;
unicode = 92;
},
{
glyphname = bracketright;
lastChange = "2022-10-20 15:49:47 +0000";
layers = (
{
layerId = m01;
shapes = (
{
closed = 1;
nodes = (
(557,895,o),
(547,895,qs),
(185,895,ls),
(175,895,o),
(173,885,qs),
(145,727,ls),
(144,717,o),
(154,717,qs),
(273,717,ls),
(295,717,o),
(314,694,o),
(310,672,qs),
(190,-6,ls),
(186,-28,o),
(159,-51,o),
(137,-51,qs),
(18,-51,ls),
(8,-51,o),
(7,-61,qs),
(-21,-219,ls),
(-23,-229,o),
(-13,-229,qs),
(349,-229,ls),
(359,-229,o),
(361,-219,qs),
(555,885,ls)
);
}
);
userData = {
assembly = "NPUSHB[ ]	/* 31 values pushed */
0 3 0 2 1 3 2 103 0 1 0 0 1 87 0 1 1 0 95 0 0 1 0 79 51 53 51 49 4 8 26 
CALL[ ]	/* CallFunction */";
};
width = 533;
}
);
note = bracketright;
unicode = 93;
},
{
glyphname = asciicircum;
lastChange = "2022-10-20 15:49:47 +0000";
layers = (
{
layerId = m01;
shapes = (
{
closed = 1;
nodes = (
(465,162,o),
(473,162,qs),
(672,162,ls),
(677,162,o),
(683,169,o),
(682,174,qs),
(546,677,ls),
(537,711,o),
(500,711,qs),
(356,711,ls),
(319,711,o),
(298,677,qs),
(-16,174,ls),
(-19,169,o),
(-15,162,o),
(-10,162,qs),
(189,162,ls),
(197,162,o),
(201,170,qs),
(342,393,ls),
(359,419,o),
(395,420,o),
(402,393,qs),
(463,170,ls)
);
}
);
userData = {
assembly = "PUSHB[ ]	/* 2 values pushed */
6 100 
WCVTP[ ]	/* WriteCVTInPixels */
NPUSHB[ ]	/* 29 values pushed */
3 1 1 0 1 134 0 2 0 0 2 87 0 2 2 0 97 0 0 2 0 81 36 53 35 17 4 8 26 
CALL[ ]	/* CallFunction */
PUSHB[ ]	/* 2 values pushed */
6 0 
WCVTP[ ]	/* WriteCVTInPixels */";
};
width = 758;
}
);
note = asciicircum;
unicode = 94;
},
{
glyphname = underscore;
lastChange = "2022-10-20 15:49:47 +0000";
layers = (
{
layerId = m01;
shapes = (
{
closed = 1;
nodes = (
(30,-258,o),
(40,-258,qs),
(695,-258,ls),
(705,-258,o),
(707,-248,qs),
(741,-52,ls),
(743,-42,o),
(733,-42,qs),
(78,-42,ls),
(68,-42,o),
(66,-52,qs),
(32,-248,ls)
);
}
);
userData = {
assembly = "PUSHB[ ]	/* 2 values pushed */
6 100 
WCVTP[ ]	/* WriteCVTInPixels */
NPUSHB[ ]	/* 21 values pushed */
0 0 1 1 0 87 0 0 0 1 95 0 1 0 1 79 51 49 2 8 24 
CALL[ ]	/* CallFunction */
PUSHB[ ]	/* 2 values pushed */
6 0 
WCVTP[ ]	/* WriteCVTInPixels */";
};
width = 764;
}
);
note = underscore;
unicode = 95;
},
{
glyphname = grave;
lastChange = "2022-10-20 15:49:47 +0000";
layers = (
{
layerId = m01;
shapes = (
{
closed = 1;
nodes = (
(4,696,o),
(11,693,qs),
(236,606,l),
(246,603,o),
(248,614,qs),
(271,742,ls),
(272,750,o),
(265,753,qs),
(44,855,ls),
(39,857,o),
(31,852,o),
(31,847,qs),
(5,705,ls)
);
}
);
userData = {
assembly = "PUSHB[ ]	/* 4 values pushed */
8 2 1 50 
CALL[ ]	/* CallFunction */";
};
width = 324;
}
);
note = grave;
unicode = 96;
},
{
glyphname = a;
lastChange = "2022-10-20 15:49:47 +0000";
layers = (
{
layerId = m01;
shapes = (
{
closed = 1;
nodes = (
(4,193,o),
(42,62,o),
(136,-7,o),
(202,-7,qs),
(257,-7,o),
(345,38,o),
(373,77,q),
(367,46,ls),
(364,27,o),
(386,0,o),
(405,0,qs),
(570,0,ls),
(580,0,o),
(582,10,qs),
(672,518,ls),
(675,538,o),
(654,564,o),
(634,564,qs),
(469,564,ls),
(459,564,o),
(457,554,qs),
(445,487,l),
(431,526,o),
(359,571,o),
(304,571,qs),
(238,571,o),
(120,502,o),
(36,371,o),
(20,282,qs)
);
},
{
closed = 1;
nodes = (
(401,237,o),
(346,187,o),
(310,187,qs),
(274,187,o),
(237,237,o),
(245,282,qs),
(253,327,o),
(308,377,o),
(344,377,qs),
(380,377,o),
(417,327,o),
(409,282,qs)
);
}
);
userData = {
assembly = "MPPEM[ ]	/* MeasurePixelPerEm */
PUSHB[ ]	/* 1 value pushed */
34 
LT[ ]	/* LessThan */
IF[ ]	/* If */
NPUSHB[ ]	/* 10 values pushed */
6 1 4 0 21 1 2 5 2 76 
ELSE[ ]	/* Else */
NPUSHB[ ]	/* 10 values pushed */
6 1 4 1 21 1 2 5 2 76 
EIF[ ]	/* EndIf */
MPPEM[ ]	/* MeasurePixelPerEm */
PUSHB[ ]	/* 1 value pushed */
34 
LT[ ]	/* LessThan */
IF[ ]	/* If */
NPUSHB[ ]	/* 23 values pushed */
0 4 4 0 97 1 1 0 0 37 77 0 5 5 2 97 3 1 2 2 29 2 78 
ELSE[ ]	/* Else */
NPUSHB[ ]	/* 31 values pushed */
0 1 1 31 77 0 4 4 0 97 0 0 0 37 77 0 2 2 29 77 0 5 5 3 97 0 3 3 35 3 78 
EIF[ ]	/* EndIf */
NPUSHB[ ]	/* 9 values pushed */
36 37 37 52 52 34 6 8 28 
CALL[ ]	/* CallFunction */";
};
width = 680;
}
);
note = a;
unicode = 97;
},
{
glyphname = b;
lastChange = "2022-10-20 15:49:47 +0000";
layers = (
{
layerId = m01;
shapes = (
{
closed = 1;
nodes = (
(338,740,o),
(328,740,qs),
(161,740,ls),
(139,740,o),
(112,717,o),
(108,695,qs),
(-13,10,ls),
(-15,0,o),
(-5,0,qs),
(162,0,ls),
(184,0,o),
(211,23,o),
(215,45,qs),
(221,77,l),
(235,38,o),
(306,-7,o),
(361,-7,qs),
(427,-7,o),
(545,62,o),
(629,193,o),
(645,282,qs),
(661,371,o),
(623,502,o),
(529,571,o),
(463,571,qs),
(408,571,o),
(321,526,o),
(293,487,q),
(336,730,ls)
);
},
{
closed = 1;
nodes = (
(412,237,o),
(357,187,o),
(321,187,qs),
(285,187,o),
(248,237,o),
(256,282,qs),
(264,327,o),
(319,377,o),
(355,377,qs),
(391,377,o),
(428,327,o),
(420,282,qs)
);
}
);
userData = {
assembly = "MPPEM[ ]	/* MeasurePixelPerEm */
PUSHB[ ]	/* 1 value pushed */
34 
LT[ ]	/* LessThan */
IF[ ]	/* If */
NPUSHB[ ]	/* 10 values pushed */
0 1 4 0 14 1 1 5 2 76 
ELSE[ ]	/* Else */
NPUSHB[ ]	/* 10 values pushed */
0 1 4 0 14 1 2 5 2 76 
EIF[ ]	/* EndIf */
MPPEM[ ]	/* MeasurePixelPerEm */
PUSHB[ ]	/* 1 value pushed */
34 
LT[ ]	/* LessThan */
IF[ ]	/* If */
NPUSHB[ ]	/* 33 values pushed */
0 3 3 1 97 2 1 1 1 35 77 0 4 4 0 97 0 0 0 37 77 0 5 5 1 97 2 1 1 1 35 1 78 
ELSE[ ]	/* Else */
NPUSHB[ ]	/* 31 values pushed */
0 4 4 0 97 0 0 0 37 77 0 3 3 2 95 0 2 2 29 77 0 5 5 1 97 0 1 1 35 1 78 
EIF[ ]	/* EndIf */
NPUSHB[ ]	/* 9 values pushed */
36 35 52 53 38 34 6 8 28 
CALL[ ]	/* CallFunction */";
};
width = 680;
}
);
note = b;
unicode = 98;
},
{
glyphname = c;
lastChange = "2022-10-20 15:49:47 +0000";
layers = (
{
layerId = m01;
shapes = (
{
closed = 1;
nodes = (
(4,194,o),
(54,63,o),
(173,-7,o),
(257,-7,qs),
(357,-7,o),
(519,95,o),
(563,188,qs),
(572,206,o),
(557,227,o),
(539,227,qs),
(373,227,ls),
(360,227,o),
(340,215,o),
(328,201,qs),
(310,183,o),
(286,183,qs),
(259,183,o),
(236,233,o),
(245,282,qs),
(254,331,o),
(293,381,o),
(320,381,qs),
(344,381,o),
(356,363,qs),
(364,349,o),
(380,337,o),
(393,337,qs),
(559,337,ls),
(577,337,o),
(598,358,o),
(597,376,qs),
(585,469,o),
(459,571,o),
(359,571,qs),
(275,571,o),
(132,501,o),
(36,370,o),
(20,282,qs)
);
}
);
userData = {
assembly = "MPPEM[ ]	/* MeasurePixelPerEm */
PUSHB[ ]	/* 1 value pushed */
29 
LT[ ]	/* LessThan */
IF[ ]	/* If */
NPUSHB[ ]	/* 34 values pushed */
0 1 2 4 2 1 114 0 4 3 3 4 112 0 2 2 0 97 0 0 0 37 77 0 3 3 5 98 0 5 5 35 5 78 
ELSE[ ]	/* Else */
NPUSHB[ ]	/* 36 values pushed */
0 1 2 4 2 1 4 128 0 4 3 2 4 3 126 0 2 2 0 97 0 0 0 37 77 0 3 3 5 98 0 5 5 35 5 78 
EIF[ ]	/* EndIf */
NPUSHB[ ]	/* 9 values pushed */
36 51 36 35 52 34 6 8 28 
CALL[ ]	/* CallFunction */";
};
width = 609;
}
);
note = c;
unicode = 99;
},
{
glyphname = d;
lastChange = "2022-10-20 15:49:47 +0000";
layers = (
{
layerId = m01;
shapes = (
{
closed = 1;
nodes = (
(415,526,o),
(344,571,o),
(289,571,qs),
(223,571,o),
(105,502,o),
(21,371,o),
(5,282,qs),
(-11,193,o),
(27,62,o),
(121,-7,o),
(187,-7,qs),
(242,-7,o),
(329,38,o),
(357,77,q),
(350,35,ls),
(347,19,o),
(362,0,o),
(378,0,qs),
(555,0,ls),
(565,0,o),
(567,10,qs),
(690,705,ls),
(693,722,o),
(678,740,o),
(661,740,qs),
(484,740,ls),
(474,740,o),
(472,730,qs),
(429,487,l)
);
},
{
closed = 1;
nodes = (
(238,327,o),
(293,377,o),
(329,377,qs),
(365,377,o),
(402,327,o),
(394,282,qs),
(386,237,o),
(331,187,o),
(295,187,qs),
(259,187,o),
(222,237,o),
(230,282,qs)
);
}
);
userData = {
assembly = "NPUSHB[ ]	/* 10 values pushed */
28 1 5 3 14 1 1 4 2 76 
MPPEM[ ]	/* MeasurePixelPerEm */
PUSHB[ ]	/* 1 value pushed */
34 
LT[ ]	/* LessThan */
IF[ ]	/* If */
NPUSHB[ ]	/* 33 values pushed */
0 0 0 1 97 2 1 1 1 29 77 0 5 5 3 97 0 3 3 37 77 0 4 4 1 97 2 1 1 1 29 1 78 
ELSE[ ]	/* Else */
NPUSHB[ ]	/* 31 values pushed */
0 5 5 3 97 0 3 3 37 77 0 0 0 1 95 0 1 1 29 77 0 4 4 2 97 0 2 2 35 2 78 
EIF[ ]	/* EndIf */
NPUSHB[ ]	/* 9 values pushed */
36 36 38 37 52 49 6 8 28 
CALL[ ]	/* CallFunction */";
};
width = 680;
}
);
note = d;
unicode = 100;
},
{
glyphname = e;
lastChange = "2022-10-20 15:49:47 +0000";
layers = (
{
layerId = m01;
shapes = (
{
closed = 1;
nodes = (
(353,397,o),
(385,371,o),
(382,346,qs),
(381,340,o),
(376,340,qs),
(255,340,ls),
(253,340,o),
(250,343,o),
(251,346,qs),
(272,397,o),
(328,397,qs)
);
},
{
closed = 1;
nodes = (
(313,170,o),
(277,170,qs),
(221,170,o),
(230,243,q),
(553,243,ls),
(588,243,o),
(595,276,qs),
(597,287,ls),
(612,374,o),
(562,502,o),
(443,571,o),
(359,571,qs),
(275,571,o),
(132,501,o),
(36,370,o),
(20,282,qs),
(4,194,o),
(54,63,o),
(173,-7,o),
(257,-7,qs),
(350,-7,o),
(510,88,o),
(552,164,qs),
(562,181,o),
(548,203,o),
(529,203,qs),
(335,203,l)
);
}
);
userData = {
assembly = "PUSHB[ ]	/* 7 values pushed */
7 1 2 0 1 1 76 
MPPEM[ ]	/* MeasurePixelPerEm */
PUSHB[ ]	/* 1 value pushed */
38 
LT[ ]	/* LessThan */
IF[ ]	/* If */
NPUSHB[ ]	/* 38 values pushed */
8 1 2 5 6 6 2 114 0 0 0 5 2 0 5 103 7 1 1 1 4 97 0 4 4 37 77 0 6 6 3 98 0 3 3 35 3 78 
ELSE[ ]	/* Else */
NPUSHB[ ]	/* 39 values pushed */
8 1 2 5 6 5 2 6 128 0 0 0 5 2 0 5 103 7 1 1 1 4 97 0 4 4 37 77 0 6 6 3 98 0 3 3 35 3 78 
EIF[ ]	/* EndIf */
NPUSHB[ ]	/* 24 values pushed */
12 11 0 0 36 34 33 31 26 24 18 16 11 37 12 37 0 10 0 9 35 9 8 23 
CALL[ ]	/* CallFunction */";
};
width = 616;
}
);
note = e;
unicode = 101;
},
{
glyphname = f;
lastChange = "2022-10-20 15:49:47 +0000";
layers = (
{
layerId = m01;
shapes = (
{
closed = 1;
nodes = (
(0,0,o),
(10,0,qs),
(212,0,ls),
(222,0,o),
(224,10,qs),
(286,362,ls),
(288,372,o),
(298,372,qs),
(361,372,ls),
(371,372,o),
(372,382,qs),
(401,547,ls),
(403,557,o),
(393,557,qs),
(322,557,l),
(338,601,o),
(376,605,qs),
(412,608,o),
(418,639,qs),
(445,793,l),
(354,801,o),
(211,752,o),
(117,644,o),
(100,567,qs),
(98,557,o),
(88,557,qs),
(48,557,ls),
(38,557,o),
(36,547,qs),
(7,382,ls),
(6,372,o),
(16,372,qs),
(31,372,ls),
(48,372,o),
(62,354,o),
(59,337,qs),
(2,10,ls)
);
}
);
userData = {
assembly = "NPUSHB[ ]	/* 30 values pushed */
16 1 1 74 3 1 0 0 1 97 2 1 1 1 31 77 0 4 4 29 4 78 51 51 42 51 50 5 8 27 
CALL[ ]	/* CallFunction */";
};
width = 385;
}
);
note = f;
unicode = 102;
},
{
glyphname = g;
lastChange = "2022-10-20 15:49:47 +0000";
layers = (
{
layerId = m01;
shapes = (
{
closed = 1;
nodes = (
(28,193,o),
(66,62,o),
(160,-7,o),
(226,-7,qs),
(281,-7,o),
(369,38,o),
(397,77,q),
(385,10,ls),
(375,-45,o),
(324,-85,o),
(285,-85,qs),
(245,-85,o),
(229,-66,qs),
(227,-63,ls),
(218,-51,o),
(205,-41,o),
(193,-41,qs),
(3,-41,l),
(-5,-150,o),
(131,-277,o),
(267,-277,qs),
(368,-277,o),
(511,-199,o),
(592,-69,o),
(606,10,qs),
(702,554,ls),
(704,564,o),
(694,564,qs),
(518,564,ls),
(502,564,o),
(479,546,o),
(476,529,qs),
(469,487,l),
(455,526,o),
(383,571,o),
(328,571,qs),
(262,571,o),
(144,502,o),
(59,371,o),
(44,282,qs)
);
},
{
closed = 1;
nodes = (
(425,237,o),
(370,187,o),
(334,187,qs),
(298,187,o),
(261,237,o),
(269,282,qs),
(277,327,o),
(332,377,o),
(368,377,qs),
(404,377,o),
(441,327,o),
(433,282,qs)
);
}
);
userData = {
assembly = "MPPEM[ ]	/* MeasurePixelPerEm */
PUSHB[ ]	/* 1 value pushed */
34 
LT[ ]	/* LessThan */
IF[ ]	/* If */
NPUSHB[ ]	/* 10 values pushed */
6 1 6 0 32 1 5 7 2 76 
ELSE[ ]	/* Else */
NPUSHB[ ]	/* 10 values pushed */
6 1 6 1 32 1 5 7 2 76 
EIF[ ]	/* EndIf */
MPPEM[ ]	/* MeasurePixelPerEm */
PUSHB[ ]	/* 1 value pushed */
29 
LT[ ]	/* LessThan */
IF[ ]	/* If */
NPUSHB[ ]	/* 39 values pushed */
0 3 5 4 4 3 114 0 6 6 0 97 1 1 0 0 37 77 0 7 7 5 97 0 5 5 35 77 0 4 4 2 98 0 2 2 39 2 78 
ELSE[ ]	/* Else */
MPPEM[ ]	/* MeasurePixelPerEm */
PUSHB[ ]	/* 1 value pushed */
34 
LT[ ]	/* LessThan */
IF[ ]	/* If */
NPUSHB[ ]	/* 40 values pushed */
0 3 5 4 5 3 4 128 0 6 6 0 97 1 1 0 0 37 77 0 7 7 5 97 0 5 5 35 77 0 4 4 2 98 0 2 2 39 2 78 
ELSE[ ]	/* Else */
NPUSHB[ ]	/* 44 values pushed */
0 3 5 4 5 3 4 128 0 1 1 31 77 0 6 6 0 97 0 0 0 37 77 0 7 7 5 97 0 5 5 35 77 0 4 4 2 98 0 2 2 39 2 78 
EIF[ ]	/* EndIf */
EIF[ ]	/* EndIf */
NPUSHB[ ]	/* 11 values pushed */
36 37 37 36 34 37 53 34 8 8 30 
CALL[ ]	/* CallFunction */";
};
width = 680;
}
);
note = g;
unicode = 103;
},
{
glyphname = h;
lastChange = "2022-10-20 15:49:47 +0000";
layers = (
{
layerId = m01;
shapes = (
{
closed = 1;
nodes = (
(-15,0,o),
(-5,0,qs),
(197,0,ls),
(207,0,o),
(209,10,qs),
(259,299,ls),
(267,339,o),
(317,386,o),
(354,386,qs),
(390,386,o),
(425,339,o),
(417,299,qs),
(373,45,ls),
(369,23,o),
(388,0,o),
(410,0,qs),
(576,0,ls),
(586,0,o),
(588,10,qs),
(643,327,ls),
(663,438,o),
(577,568,o),
(480,568,qs),
(420,568,o),
(324,518,o),
(291,478,q),
(329,695,ls),
(333,717,o),
(314,740,o),
(292,740,qs),
(125,740,ls),
(115,740,o),
(113,730,qs),
(-13,10,ls)
);
}
);
userData = {
assembly = "PUSHB[ ]	/* 6 values pushed */
7 1 3 1 1 76 
MPPEM[ ]	/* MeasurePixelPerEm */
PUSHB[ ]	/* 1 value pushed */
10 
LT[ ]	/* LessThan */
IF[ ]	/* If */
NPUSHB[ ]	/* 31 values pushed */
0 3 1 2 1 3 2 128 0 0 0 2 95 4 1 2 2 29 77 0 1 1 31 77 4 1 2 2 29 2 78 
ELSE[ ]	/* Else */
NPUSHB[ ]	/* 31 values pushed */
0 3 1 2 1 3 2 128 0 0 0 2 95 4 1 2 2 29 77 0 1 1 37 77 4 1 2 2 29 2 78 
EIF[ ]	/* EndIf */
PUSHB[ ]	/* 8 values pushed */
52 37 52 37 49 5 8 27 
CALL[ ]	/* CallFunction */";
};
width = 697;
}
);
note = h;
unicode = 104;
},
{
glyphname = i;
lastChange = "2022-10-20 15:49:47 +0000";
layers = (
{
layerId = m01;
shapes = (
{
closed = 1;
nodes = (
(189,0,ls),
(199,0,o),
(201,10,qs),
(292,529,ls),
(295,546,o),
(280,564,o),
(263,564,qs),
(86,564,ls),
(76,564,o),
(75,554,qs),
(-17,35,ls),
(-21,13,o),
(-10,0,o),
(12,0,cs)
);
},
{
closed = 1;
nodes = (
(253,609,o),
(328,671,o),
(337,718,qs),
(345,766,o),
(292,829,o),
(235,829,qs),
(178,829,o),
(106,767,o),
(98,718,qs),
(89,670,o),
(139,609,o),
(196,609,qs)
);
}
);
userData = {
assembly = "NPUSHB[ ]	/* 32 values pushed */
0 2 4 1 3 0 2 3 105 0 0 0 31 77 0 1 1 29 1 78 13 13 13 24 13 23 38 52 49 5 8 25 
CALL[ ]	/* CallFunction */";
};
width = 322;
}
);
note = i;
unicode = 105;
},
{
glyphname = j;
lastChange = "2022-10-20 15:49:47 +0000";
layers = (
{
layerId = m01;
shapes = (
{
closed = 1;
nodes = (
(100,564,o),
(98,554,qs),
(-7,-43,ls),
(-10,-63,o),
(-33,-81,o),
(-55,-81,qs),
(-63,-81,ls),
(-80,-81,o),
(-101,-100,o),
(-104,-116,qs),
(-131,-270,l),
(-57,-270,ls),
(175,-270,o),
(216,-39,qs),
(316,529,ls),
(319,546,o),
(304,564,o),
(287,564,qs),
(110,564,ls)
);
},
{
closed = 1;
nodes = (
(277,609,o),
(352,671,o),
(360,718,qs),
(369,766,o),
(316,829,o),
(259,829,qs),
(202,829,o),
(130,767,o),
(121,718,qs),
(113,670,o),
(163,609,o),
(220,609,qs)
);
}
);
userData = {
assembly = "NPUSHB[ ]	/* 47 values pushed */
0 3 6 1 4 0 3 4 105 5 1 0 0 31 77 0 2 2 1 96 0 1 1 33 1 78 19 19 1 0 19 30 19 29 25 23 13 10 7 5 0 18 1 17 7 8 22 
CALL[ ]	/* CallFunction */";
};
width = 320;
}
);
note = j;
unicode = 106;
},
{
glyphname = k;
lastChange = "2022-10-20 15:49:47 +0000";
layers = (
{
layerId = m01;
shapes = (
{
closed = 1;
nodes = (
(-12,19,o),
(4,0,o),
(20,0,qs),
(197,0,ls),
(207,0,o),
(209,10,qs),
(246,225,l),
(343,7,ls),
(347,0,o),
(354,0,qs),
(596,0,ls),
(602,0,o),
(607,8,o),
(604,12,q),
(453,266,ls),
(444,281,o),
(457,294,qs),
(694,552,ls),
(699,557,o),
(696,564,o),
(690,564,qs),
(474,564,ls),
(447,564,o),
(428,541,qs),
(269,353,l),
(331,705,ls),
(334,722,o),
(319,740,o),
(302,740,qs),
(125,740,ls),
(115,740,o),
(113,730,qs),
(-9,35,ls)
);
}
);
userData = {
assembly = "NPUSHB[ ]	/* 38 values pushed */
25 18 7 3 2 1 1 76 0 0 0 2 95 3 1 2 2 29 77 0 1 1 31 77 3 1 2 2 29 2 78 53 41 37 49 4 8 26 
CALL[ ]	/* CallFunction */";
};
width = 676;
}
);
note = k;
unicode = 107;
},
{
glyphname = l;
lastChange = "2022-10-20 15:49:47 +0000";
layers = (
{
layerId = m01;
shapes = (
{
closed = 1;
nodes = (
(-15,11,o),
(1,-8,o),
(17,-8,qs),
(194,-8,ls),
(204,-8,o),
(206,2,qs),
(334,727,ls),
(337,744,o),
(322,762,o),
(305,762,qs),
(128,762,ls),
(118,762,o),
(116,752,qs),
(-12,27,ls)
);
}
);
userData = {
assembly = "NPUSHB[ ]	/* 16 values pushed */
0 0 0 1 95 0 1 1 29 1 78 52 49 2 8 24 
CALL[ ]	/* CallFunction */";
};
width = 322;
}
);
note = l;
unicode = 108;
},
{
glyphname = m;
lastChange = "2022-10-20 15:49:47 +0000";
layers = (
{
layerId = m01;
shapes = (
{
closed = 1;
nodes = (
(763,23,o),
(782,0,o),
(804,0,qs),
(970,0,ls),
(980,0,o),
(982,10,qs),
(1038,327,ls),
(1057,438,o),
(961,568,o),
(853,568,qs),
(788,568,o),
(675,528,o),
(640,488,q),
(621,534,o),
(550,568,o),
(485,568,qs),
(429,568,o),
(338,524,o),
(308,488,q),
(313,519,ls),
(317,541,o),
(298,564,o),
(276,564,qs),
(109,564,ls),
(99,564,o),
(98,554,qs),
(2,10,ls),
(0,0,o),
(10,0,qs),
(212,0,ls),
(222,0,o),
(224,10,qs),
(275,299,ls),
(281,335,o),
(330,376,o),
(367,376,qs),
(403,376,o),
(439,335,o),
(433,299,qs),
(388,45,ls),
(384,23,o),
(403,0,o),
(425,0,qs),
(591,0,ls),
(601,0,o),
(603,10,qs),
(654,299,ls),
(660,335,o),
(709,376,o),
(746,376,qs),
(782,376,o),
(818,335,o),
(812,299,qs),
(767,45,ls)
);
}
);
userData = {
assembly = "NPUSHB[ ]	/* 39 values pushed */
40 34 2 0 4 1 76 2 1 0 0 4 97 6 5 2 4 4 31 77 7 3 2 1 1 29 1 78 52 36 37 51 52 37 52 34 8 8 30 
CALL[ ]	/* CallFunction */";
};
width = 1076;
}
);
note = m;
unicode = 109;
},
{
glyphname = n;
lastChange = "2022-10-20 15:49:47 +0000";
layers = (
{
layerId = m01;
shapes = (
{
closed = 1;
nodes = (
(384,23,o),
(403,0,o),
(425,0,qs),
(591,0,ls),
(601,0,o),
(603,10,qs),
(659,327,ls),
(678,438,o),
(592,568,o),
(495,568,qs),
(435,568,o),
(339,518,o),
(306,478,q),
(313,519,ls),
(317,541,o),
(298,564,o),
(276,564,qs),
(109,564,ls),
(99,564,o),
(98,554,qs),
(6,35,ls),
(3,19,o),
(19,0,o),
(35,0,qs),
(212,0,ls),
(222,0,o),
(224,10,qs),
(275,299,ls),
(282,339,o),
(332,386,o),
(369,386,qs),
(405,386,o),
(440,339,o),
(433,299,qs),
(388,45,ls)
);
}
);
userData = {
assembly = "NPUSHB[ ]	/* 35 values pushed */
21 1 0 2 1 76 0 0 2 1 2 0 1 128 3 1 2 2 31 77 4 1 1 1 29 1 78 52 37 52 52 34 5 8 27 
CALL[ ]	/* CallFunction */";
};
width = 697;
}
);
note = n;
unicode = 110;
},
{
glyphname = o;
lastChange = "2022-10-20 15:49:47 +0000";
layers = (
{
layerId = m01;
shapes = (
{
closed = 1;
nodes = (
(632,370,o),
(578,501,o),
(454,571,o),
(369,571,qs),
(284,571,o),
(136,501,o),
(36,370,o),
(20,282,qs),
(4,194,o),
(58,63,o),
(182,-7,o),
(267,-7,qs),
(352,-7,o),
(500,63,o),
(600,194,o),
(616,282,qs)
);
},
{
closed = 1;
nodes = (
(253,330,o),
(304,379,o),
(335,379,qs),
(366,379,o),
(399,330,o),
(391,282,qs),
(383,234,o),
(332,185,o),
(301,185,qs),
(269,185,o),
(237,234,o),
(245,282,qs)
);
}
);
userData = {
assembly = "NPUSHB[ ]	/* 28 values pushed */
0 3 3 1 97 0 1 1 37 77 0 2 2 0 97 0 0 0 35 0 78 36 37 38 34 4 8 26 
CALL[ ]	/* CallFunction */";
};
width = 636;
}
);
note = o;
unicode = 111;
},
{
glyphname = p;
lastChange = "2022-10-20 15:49:47 +0000";
layers = (
{
layerId = m01;
shapes = (
{
closed = 1;
nodes = (
(274,39,o),
(345,-6,o),
(400,-6,qs),
(466,-6,o),
(584,63,o),
(668,194,o),
(684,283,qs),
(700,372,o),
(662,503,o),
(568,572,o),
(502,572,qs),
(447,572,o),
(360,527,o),
(332,488,q),
(338,520,ls),
(342,542,o),
(323,565,o),
(301,565,qs),
(134,565,ls),
(124,565,o),
(122,555,qs),
(-17,-235,ls),
(-21,-257,o),
(-2,-280,o),
(20,-280,qs),
(187,-280,ls),
(197,-280,o),
(199,-270,qs),
(260,78,l)
);
},
{
closed = 1;
nodes = (
(451,238,o),
(396,188,o),
(360,188,qs),
(324,188,o),
(287,238,o),
(295,283,qs),
(303,328,o),
(358,378,o),
(394,378,qs),
(430,378,o),
(467,328,o),
(459,283,qs)
);
}
);
userData = {
assembly = "NPUSHB[ ]	/* 10 values pushed */
14 1 4 1 28 1 3 5 2 76 
MPPEM[ ]	/* MeasurePixelPerEm */
PUSHB[ ]	/* 1 value pushed */
34 
LT[ ]	/* LessThan */
IF[ ]	/* If */
NPUSHB[ ]	/* 27 values pushed */
0 4 4 1 97 2 1 1 1 31 77 0 5 5 3 97 0 3 3 35 77 0 0 0 33 0 78 
ELSE[ ]	/* Else */
MPPEM[ ]	/* MeasurePixelPerEm */
PUSHB[ ]	/* 1 value pushed */
50 
LT[ ]	/* LessThan */
IF[ ]	/* If */
NPUSHB[ ]	/* 31 values pushed */
0 1 1 31 77 0 4 4 2 97 0 2 2 37 77 0 5 5 3 97 0 3 3 35 77 0 0 0 33 0 78 
ELSE[ ]	/* Else */
NPUSHB[ ]	/* 31 values pushed */
0 4 4 2 97 0 2 2 37 77 0 5 5 3 97 0 3 3 35 77 0 0 0 1 95 0 1 1 31 0 78 
EIF[ ]	/* EndIf */
EIF[ ]	/* EndIf */
NPUSHB[ ]	/* 9 values pushed */
36 36 38 37 52 49 6 8 28 
CALL[ ]	/* CallFunction */";
};
width = 680;
}
);
note = p;
unicode = 112;
},
{
glyphname = q;
lastChange = "2022-10-20 15:49:47 +0000";
layers = (
{
layerId = m01;
shapes = (
{
closed = 1;
nodes = (
(363,-280,o),
(373,-280,qs),
(540,-280,ls),
(562,-280,o),
(589,-257,o),
(593,-235,qs),
(732,555,ls),
(734,565,o),
(724,565,qs),
(557,565,ls),
(535,565,o),
(508,542,o),
(504,520,qs),
(498,488,l),
(484,527,o),
(413,572,o),
(358,572,qs),
(292,572,o),
(174,503,o),
(90,372,o),
(74,283,qs),
(58,194,o),
(96,63,o),
(190,-6,o),
(256,-6,qs),
(311,-6,o),
(398,39,o),
(426,78,q),
(365,-270,ls)
);
},
{
closed = 1;
nodes = (
(307,328,o),
(362,378,o),
(398,378,qs),
(434,378,o),
(471,328,o),
(463,283,qs),
(455,238,o),
(400,188,o),
(364,188,qs),
(328,188,o),
(291,238,o),
(299,283,qs)
);
}
);
userData = {
assembly = "MPPEM[ ]	/* MeasurePixelPerEm */
PUSHB[ ]	/* 1 value pushed */
34 
LT[ ]	/* LessThan */
IF[ ]	/* If */
NPUSHB[ ]	/* 10 values pushed */
14 1 5 1 0 1 0 4 2 76 
ELSE[ ]	/* Else */
NPUSHB[ ]	/* 10 values pushed */
14 1 5 2 0 1 0 4 2 76 
EIF[ ]	/* EndIf */
MPPEM[ ]	/* MeasurePixelPerEm */
PUSHB[ ]	/* 1 value pushed */
34 
LT[ ]	/* LessThan */
IF[ ]	/* If */
NPUSHB[ ]	/* 27 values pushed */
0 5 5 1 97 2 1 1 1 37 77 0 4 4 0 97 0 0 0 35 77 0 3 3 33 3 78 
ELSE[ ]	/* Else */
MPPEM[ ]	/* MeasurePixelPerEm */
PUSHB[ ]	/* 1 value pushed */
50 
LT[ ]	/* LessThan */
IF[ ]	/* If */
NPUSHB[ ]	/* 31 values pushed */
0 2 2 31 77 0 5 5 1 97 0 1 1 37 77 0 4 4 0 97 0 0 0 35 77 0 3 3 33 3 78 
ELSE[ ]	/* Else */
NPUSHB[ ]	/* 31 values pushed */
0 5 5 1 97 0 1 1 37 77 0 4 4 0 97 0 0 0 35 77 0 3 3 2 95 0 2 2 31 3 78 
EIF[ ]	/* EndIf */
EIF[ ]	/* EndIf */
NPUSHB[ ]	/* 9 values pushed */
36 35 52 53 38 34 6 8 28 
CALL[ ]	/* CallFunction */";
};
width = 680;
}
);
note = q;
unicode = 113;
},
{
glyphname = r;
lastChange = "2022-10-20 15:49:47 +0000";
layers = (
{
layerId = m01;
shapes = (
{
closed = 1;
nodes = (
(273,287,o),
(339,331,o),
(402,331,qs),
(430,331,ls),
(447,331,o),
(469,350,o),
(471,366,qs),
(507,568,l),
(454,568,o),
(346,509,o),
(303,460,q),
(315,529,ls),
(318,546,o),
(303,564,o),
(286,564,qs),
(109,564,ls),
(99,564,o),
(98,554,qs),
(2,10,ls),
(0,0,o),
(10,0,qs),
(212,0,ls),
(222,0,o),
(224,10,qs),
(263,231,ls)
);
}
);
userData = {
assembly = "NPUSHB[ ]	/* 30 values pushed */
13 1 3 1 1 76 0 3 3 1 97 2 1 1 1 31 77 0 0 0 29 0 78 51 21 51 49 4 8 26 
CALL[ ]	/* CallFunction */";
};
width = 467;
}
);
note = r;
unicode = 114;
},
{
glyphname = s;
lastChange = "2022-10-20 15:49:47 +0000";
layers = (
{
layerId = m01;
shapes = (
{
closed = 1;
nodes = (
(532,233,o),
(483,306,o),
(405,336,o),
(346,348,qs),
(301,357,o),
(262,374,o),
(265,391,qs),
(268,404,o),
(288,417,o),
(305,417,qs),
(340,417,o),
(353,395,q),
(353,395,l),
(362,380,o),
(375,369,o),
(389,369,qs),
(518,369,ls),
(536,369,o),
(558,390,o),
(556,407,qs),
(547,481,o),
(438,571,o),
(337,571,qs),
(260,571,o),
(143,522,o),
(73,437,o),
(64,385,qs),
(54,325,o),
(101,257,o),
(175,229,o),
(234,217,qs),
(282,207,o),
(321,191,o),
(318,172,qs),
(316,161,o),
(293,146,o),
(276,146,qs),
(239,146,o),
(225,168,q),
(218,183,o),
(204,195,o),
(190,195,qs),
(45,195,ls),
(26,195,o),
(4,175,o),
(6,157,qs),
(15,84,o),
(144,-7,o),
(250,-7,qs),
(323,-7,o),
(440,39,o),
(512,119,o),
(521,169,qs)
);
}
);
userData = {
assembly = "MPPEM[ ]	/* MeasurePixelPerEm */
PUSHB[ ]	/* 1 value pushed */
26 
LT[ ]	/* LessThan */
IF[ ]	/* If */
NPUSHB[ ]	/* 34 values pushed */
0 4 5 1 5 4 114 0 1 2 2 1 112 0 5 5 3 97 0 3 3 37 77 0 2 2 0 98 0 0 0 35 0 78 
ELSE[ ]	/* Else */
NPUSHB[ ]	/* 36 values pushed */
0 4 5 1 5 4 1 128 0 1 2 5 1 2 126 0 5 5 3 97 0 3 3 37 77 0 2 2 0 98 0 0 0 35 0 78 
EIF[ ]	/* EndIf */
NPUSHB[ ]	/* 9 values pushed */
36 52 44 35 52 34 6 8 28 
CALL[ ]	/* CallFunction */";
};
width = 579;
}
);
note = s;
unicode = 115;
},
{
glyphname = t;
lastChange = "2022-10-20 15:49:47 +0000";
layers = (
{
layerId = m01;
shapes = (
{
closed = 1;
nodes = (
(64,231,ls),
(23,0,o),
(255,0,qs),
(329,0,ls),
(339,0,o),
(341,10,qs),
(366,154,ls),
(369,171,o),
(355,189,o),
(338,189,qs),
(320,189,ls),
(298,189,o),
(282,207,o),
(285,227,qs),
(312,379,l),
(394,379,ls),
(404,379,o),
(406,389,qs),
(435,554,ls),
(437,564,o),
(427,564,qs),
(345,564,l),
(367,690,ls),
(369,700,o),
(359,700,qs),
(157,700,ls),
(147,700,o),
(145,690,qs),
(131,609,ls),
(127,587,o),
(100,564,o),
(78,564,qs),
(63,564,ls),
(53,564,o),
(51,554,qs),
(22,389,ls),
(20,379,o),
(30,379,qs),
(90,379,l)
);
}
);
userData = {
assembly = "NPUSHB[ ]	/* 50 values pushed */
0 2 2 28 77 4 7 2 0 0 1 97 3 1 1 1 31 77 0 5 5 6 96 0 6 6 29 6 78 1 0 36 33 29 26 23 21 18 16 14 11 7 4 0 38 1 38 8 8 22 
CALL[ ]	/* CallFunction */";
};
width = 436;
}
);
note = t;
unicode = 116;
},
{
glyphname = u;
lastChange = "2023-01-11 15:51:17 +0000";
layers = (
{
layerId = m01;
shapes = (
{
closed = 1;
nodes = (
(317,546,o),
(298,569,o),
(276,569,qs),
(110,569,ls),
(100,569,o),
(98,559,qs),
(42,242,ls),
(22,131,o),
(109,1,o),
(206,1,qs),
(266,1,o),
(362,51,o),
(395,91,q),
(388,45,ls),
(385,23,o),
(403,0,o),
(425,0,qs),
(592,0,ls),
(601,0,o),
(603,10,qs),
(699,559,ls),
(701,569,o),
(691,569,qs),
(489,569,ls),
(479,569,o),
(477,559,qs),
(426,270,ls),
(419,230,o),
(369,183,o),
(332,183,qs),
(296,183,o),
(261,230,o),
(268,270,qs),
(313,524,ls)
);
}
);
userData = {
assembly = "NPUSHB[ ]	/* 35 values pushed */
20 1 2 0 1 76 0 0 1 2 1 0 2 128 4 1 1 1 31 77 3 1 2 2 29 2 78 52 37 51 52 34 5 8 27 
CALL[ ]	/* CallFunction */";
};
width = 697;
}
);
note = u;
unicode = 117;
},
{
glyphname = v;
lastChange = "2022-10-20 15:49:47 +0000";
layers = (
{
layerId = m01;
shapes = (
{
closed = 1;
nodes = (
(82,564,o),
(62,543,o),
(65,524,qs),
(141,41,ls),
(147,0,o),
(190,0,qs),
(381,0,ls),
(424,0,o),
(446,41,qs),
(692,524,ls),
(701,543,o),
(689,564,o),
(670,564,qs),
(507,564,ls),
(475,564,o),
(462,534,qs),
(344,259,ls),
(337,244,o),
(321,244,o),
(320,259,qs),
(297,534,ls),
(296,564,o),
(264,564,qs),
(101,564,ls)
);
}
);
userData = {
assembly = "NPUSHB[ ]	/* 33 values pushed */
2 4 2 0 0 31 77 0 1 1 3 96 0 3 3 29 3 78 1 0 18 15 11 8 5 4 0 23 1 22 5 8 22 
CALL[ ]	/* CallFunction */";
};
width = 671;
}
);
note = v;
unicode = 118;
},
{
glyphname = w;
lastChange = "2022-10-20 15:49:47 +0000";
layers = (
{
layerId = m01;
shapes = (
{
closed = 1;
nodes = (
(67,564,o),
(61,558,o),
(61,553,qs),
(114,41,ls),
(117,0,o),
(154,0,qs),
(314,0,ls),
(351,0,o),
(370,41,qs),
(422,155,ls),
(427,166,o),
(440,166,o),
(441,155,qs),
(453,41,ls),
(457,0,o),
(493,0,qs),
(654,0,ls),
(690,0,o),
(709,41,qs),
(943,553,ls),
(945,558,o),
(941,564,o),
(936,564,qs),
(790,564,ls),
(750,564,o),
(734,524,qs),
(630,259,ls),
(624,244,o),
(610,244,o),
(610,259,qs),
(598,534,ls),
(598,549,o),
(591,557,qs),
(584,564,o),
(573,564,qs),
(434,564,ls),
(423,564,o),
(412,557,qs),
(403,549,o),
(397,534,qs),
(291,259,ls),
(284,244,o),
(271,244,o),
(270,259,qs),
(260,524,ls),
(258,564,o),
(218,564,qs),
(72,564,ls)
);
}
);
userData = {
assembly = "NPUSHB[ ]	/* 49 values pushed */
0 6 6 0 95 4 2 8 3 0 0 31 77 3 1 1 1 5 96 7 1 5 5 29 5 78 1 0 42 39 36 35 32 29 24 22 19 18 13 10 5 4 0 47 1 46 9 8 22 
CALL[ ]	/* CallFunction */";
};
width = 903;
}
);
note = w;
unicode = 119;
},
{
glyphname = x;
lastChange = "2022-10-20 15:49:47 +0000";
layers = (
{
layerId = m01;
shapes = (
{
closed = 1;
nodes = (
(369,0,o),
(397,0,qs),
(603,0,ls),
(609,0,o),
(615,8,o),
(611,12,q),
(466,267,ls),
(463,275,o),
(469,281,q),
(699,552,ls),
(702,557,o),
(700,564,o),
(694,564,qs),
(473,564,ls),
(466,564,o),
(459,557,q),
(378,447,ls),
(374,442,o),
(366,442,o),
(364,446,qs),
(310,543,ls),
(299,564,o),
(271,564,qs),
(65,564,ls),
(59,564,o),
(53,557,o),
(57,552,qs),
(198,304,l),
(201,297,o),
(195,290,qs),
(-30,12,ls),
(-33,7,o),
(-32,0,o),
(-26,0,qs),
(196,0,ls),
(203,0,o),
(210,7,q),
(290,116,ls),
(294,121,o),
(302,121,o),
(304,117,qs),
(358,21,ls)
);
}
);
userData = {
assembly = "NPUSHB[ ]	/* 26 values pushed */
35 1 0 1 1 76 2 1 1 1 31 77 3 1 0 0 29 0 78 57 39 57 37 4 8 26 
CALL[ ]	/* CallFunction */";
};
width = 668;
}
);
note = x;
unicode = 120;
},
{
glyphname = y;
lastChange = "2022-10-20 15:49:47 +0000";
layers = (
{
layerId = m01;
shapes = (
{
closed = 1;
nodes = (
(378,302,o),
(361,301,o),
(359,314,qs),
(312,556,ls),
(311,564,o),
(303,564,qs),
(77,564,ls),
(72,564,o),
(65,557,o),
(66,552,qs),
(204,28,l),
(18,-258,ls),
(15,-263,o),
(17,-270,o),
(22,-270,qs),
(223,-270,ls),
(253,-270,o),
(269,-243,qs),
(753,552,ls),
(756,557,o),
(753,564,o),
(748,564,qs),
(546,564,ls),
(516,564,o),
(501,536,qs),
(386,315,ls)
);
}
);
userData = {
assembly = "NPUSHB[ ]	/* 33 values pushed */
14 1 1 3 1 76 0 3 0 1 0 3 1 128 2 1 0 0 31 77 0 1 1 33 1 78 20 39 37 33 4 8 26 
CALL[ ]	/* CallFunction */";
};
width = 677;
}
);
note = y;
unicode = 121;
},
{
glyphname = z;
lastChange = "2022-10-20 15:49:47 +0000";
layers = (
{
layerId = m01;
shapes = (
{
closed = 1;
nodes = (
(538,564,o),
(528,564,qs),
(83,564,ls),
(73,564,o),
(71,554,qs),
(48,425,ls),
(44,403,o),
(63,380,o),
(85,380,qs),
(234,380,ls),
(241,380,o),
(243,373,o),
(237,368,qs),
(14,184,ls),
(1,173,o),
(-2,159,qs),
(-28,10,ls),
(-30,0,o),
(-20,0,qs),
(438,0,ls),
(448,0,o),
(450,10,qs),
(473,139,ls),
(477,161,o),
(458,184,o),
(436,184,qs),
(264,184,ls),
(257,184,o),
(255,191,o),
(261,196,qs),
(494,380,ls),
(507,391,o),
(510,405,qs),
(536,554,ls)
);
}
);
userData = {
assembly = "NPUSHB[ ]	/* 28 values pushed */
0 2 2 3 95 0 3 3 31 77 0 0 0 1 95 0 1 1 29 1 78 52 55 52 53 4 8 26 
CALL[ ]	/* CallFunction */";
};
width = 518;
}
);
note = z;
unicode = 122;
},
{
glyphname = braceleft;
lastChange = "2022-10-20 15:49:47 +0000";
layers = (
{
layerId = m01;
shapes = (
{
closed = 1;
nodes = (
(120,153,o),
(99,94,qs),
(72,18,o),
(64,-24,qs),
(47,-123,o),
(150,-231,o),
(255,-231,qs),
(331,-231,l),
(362,-54,l),
(328,-54,ls),
(296,-54,o),
(274,-26,o),
(278,0,qs),
(281,16,o),
(301,80,qs),
(324,154,o),
(329,187,qs),
(340,246,o),
(299,321,o),
(247,331,q),
(247,333,l),
(303,343,o),
(370,418,o),
(381,477,qs),
(386,510,o),
(389,584,qs),
(393,648,o),
(396,664,qs),
(400,690,o),
(432,718,o),
(464,718,qs),
(498,718,l),
(529,895,l),
(453,895,ls),
(348,895,o),
(207,787,o),
(190,688,qs),
(182,646,o),
(183,570,qs),
(184,511,o),
(179,486,qs),
(173,453,o),
(127,423,o),
(76,423,q),
(44,242,l),
(94,242,o),
(130,209,o),
(125,178,qs)
);
}
);
userData = {
assembly = "NPUSHB[ ]	/* 49 values pushed */
26 1 0 1 1 76 0 2 0 3 1 2 3 105 0 1 0 0 4 1 0 105 0 4 5 5 4 89 0 4 4 5 95 0 5 4 5 79 41 39 38 36 33 40 17 17 6 8 26 
CALL[ ]	/* CallFunction */";
};
width = 484;
}
);
note = braceleft;
unicode = 123;
},
{
glyphname = bar;
lastChange = "2022-10-20 15:49:47 +0000";
layers = (
{
layerId = m01;
shapes = (
{
closed = 1;
nodes = (
(106,828,l),
(-66,-144,l),
(156,-144,l),
(328,828,l)
);
}
);
userData = {
assembly = "NPUSHB[ ]	/* 21 values pushed */
0 1 0 0 1 87 0 1 1 0 95 0 0 1 0 79 17 16 2 8 24 
CALL[ ]	/* CallFunction */";
};
width = 262;
}
);
note = bar;
unicode = 124;
},
{
glyphname = braceright;
lastChange = "2022-10-20 15:49:47 +0000";
layers = (
{
layerId = m01;
shapes = (
{
closed = 1;
nodes = (
(300,153,o),
(301,94,qs),
(302,18,o),
(294,-24,qs),
(277,-123,o),
(136,-231,o),
(31,-231,qs),
(-45,-231,l),
(-14,-54,l),
(20,-54,ls),
(52,-54,o),
(84,-26,o),
(88,0,qs),
(91,16,o),
(95,80,qs),
(98,154,o),
(103,187,qs),
(114,246,o),
(181,321,o),
(237,331,q),
(237,333,l),
(185,343,o),
(144,418,o),
(155,477,qs),
(160,510,o),
(183,584,qs),
(203,648,o),
(206,664,qs),
(210,690,o),
(188,718,o),
(156,718,qs),
(122,718,l),
(153,895,l),
(229,895,ls),
(334,895,o),
(437,787,o),
(420,688,qs),
(412,646,o),
(385,570,qs),
(364,511,o),
(359,486,qs),
(353,453,o),
(389,423,o),
(440,423,q),
(408,242,l),
(358,242,o),
(310,209,o),
(305,178,qs)
);
}
);
userData = {
assembly = "NPUSHB[ ]	/* 49 values pushed */
26 1 0 1 1 76 0 2 0 3 1 2 3 105 0 1 0 0 4 1 0 105 0 4 5 5 4 89 0 4 4 5 95 0 5 4 5 79 41 39 38 36 33 40 17 17 6 8 26 
CALL[ ]	/* CallFunction */";
};
width = 484;
}
);
note = braceright;
unicode = 125;
},
{
glyphname = asciitilde;
lastChange = "2022-10-20 15:49:47 +0000";
layers = (
{
layerId = m01;
shapes = (
{
closed = 1;
nodes = (
(160,181,o),
(164,190,q),
(176,222,o),
(208,250,o),
(233,250,qs),
(250,250,o),
(281,238,o),
(308,223,qs),
(341,204,o),
(396,183,o),
(432,183,qs),
(522,183,o),
(666,306,o),
(711,436,qs),
(712,441,o),
(708,447,o),
(703,447,qs),
(557,447,ls),
(549,447,o),
(546,438,qs),
(534,406,o),
(502,378,o),
(477,378,qs),
(460,378,o),
(429,391,o),
(403,405,qs),
(370,424,o),
(314,445,o),
(278,445,qs),
(189,445,o),
(46,322,o),
(0,192,qs),
(-3,181,o),
(8,181,qs),
(152,181,ls)
);
}
);
userData = {
assembly = "PUSHB[ ]	/* 2 values pushed */
6 100 
WCVTP[ ]	/* WriteCVTInPixels */
NPUSHB[ ]	/* 46 values pushed */
0 2 5 0 2 89 3 1 1 0 5 0 1 5 105 0 2 2 0 98 4 6 2 0 2 0 82 1 0 30 28 24 22 17 15 12 10 6 4 0 34 1 33 7 8 22 
CALL[ ]	/* CallFunction */
PUSHB[ ]	/* 2 values pushed */
6 0 
WCVTP[ ]	/* WriteCVTInPixels */";
};
width = 711;
}
);
note = asciitilde;
unicode = 126;
},
{
glyphname = exclamdown;
lastChange = "2022-10-20 15:49:47 +0000";
layers = (
{
layerId = m01;
shapes = (
{
closed = 1;
nodes = (
(149,287,l),
(339,287,l),
(282,-187,l),
(40,-187,l)
);
},
{
closed = 1;
nodes = (
(395,419,o),
(313,356,o),
(256,356,qs),
(198,356,o),
(140,419,o),
(148,467,qs),
(156,514,o),
(237,576,o),
(295,576,qs),
(352,576,o),
(411,514,o),
(403,467,qs)
);
}
);
userData = {
assembly = "NPUSHB[ ]	/* 33 values pushed */
0 0 4 1 1 0 1 99 0 3 3 2 97 0 2 2 37 3 78 0 0 13 11 7 5 0 3 0 3 17 5 8 23 
CALL[ ]	/* CallFunction */";
};
width = 455;
}
);
note = exclamdown;
unicode = 161;
},
{
glyphname = cent;
lastChange = "2022-10-20 15:49:47 +0000";
layers = (
{
layerId = m01;
shapes = (
{
closed = 1;
nodes = (
(341,188,o),
(304,170,o),
(286,170,qs),
(252,170,o),
(225,213,o),
(232,253,qs),
(239,293,o),
(282,337,o),
(316,337,qs),
(334,337,o),
(361,321,o),
(365,302,q),
(568,302,l),
(578,396,o),
(466,506,o),
(372,513,q),
(385,589,l),
(323,589,l),
(310,513,l),
(194,503,o),
(41,370,o),
(20,254,qs),
(0,137,o),
(106,3,o),
(218,-7,q),
(205,-83,l),
(267,-83,l),
(280,-7,l),
(342,-2,o),
(454,49,o),
(535,142,o),
(551,205,q),
(348,205,l)
);
}
);
userData = {
assembly = "NPUSHB[ ]	/* 66 values pushed */
16 13 2 3 1 7 4 2 0 4 2 76 0 2 3 5 3 2 5 128 6 1 5 4 3 5 4 126 0 1 0 3 2 1 3 105 0 4 0 0 4 89 0 4 4 0 95 0 0 4 0 79 0 0 0 32 0 32 36 34 20 24 21 7 8 27 
CALL[ ]	/* CallFunction */";
};
width = 579;
}
);
note = cent;
unicode = 162;
},
{
glyphname = sterling;
lastChange = "2022-10-20 15:49:47 +0000";
layers = (
{
layerId = m01;
shapes = (
{
closed = 1;
nodes = (
(110,493,o),
(115,421,q),
(38,421,l),
(12,274,l),
(115,274,l),
(100,216,o),
(38,133,o),
(-14,98,q),
(-6,-6,l),
(546,-6,l),
(577,165,l),
(242,165,l),
(295,203,o),
(323,274,q),
(473,274,l),
(499,421,l),
(331,421,l),
(330,432,ls),
(327,457,o),
(324,506,o),
(327,522,qs),
(339,591,o),
(391,591,qs),
(439,591,o),
(435,531,q),
(639,531,l),
(651,639,o),
(539,771,o),
(415,771,qs),
(340,771,o),
(215,718,o),
(133,618,o),
(120,548,qs)
);
}
);
userData = {
assembly = "PUSHB[ ]	/* 6 values pushed */
24 1 6 5 1 76 
MPPEM[ ]	/* MeasurePixelPerEm */
PUSHB[ ]	/* 1 value pushed */
20 
LT[ ]	/* LessThan */
IF[ ]	/* If */
NPUSHB[ ]	/* 36 values pushed */
0 1 2 3 2 1 114 0 0 0 2 1 0 2 105 8 1 3 7 1 4 5 3 4 103 0 5 5 6 95 0 6 6 29 6 78 
ELSE[ ]	/* Else */
NPUSHB[ ]	/* 37 values pushed */
0 1 2 3 2 1 3 128 0 0 0 2 1 0 2 105 8 1 3 7 1 4 5 3 4 103 0 5 5 6 95 0 6 6 29 6 78 
EIF[ ]	/* EndIf */
NPUSHB[ ]	/* 12 values pushed */
17 20 17 18 17 21 33 18 34 9 8 31 
CALL[ ]	/* CallFunction */";
};
width = 679;
}
);
note = sterling;
unicode = 163;
},
{
glyphname = currency;
lastChange = "2022-10-20 15:49:47 +0000";
layers = (
{
layerId = m01;
shapes = (
{
closed = 1;
nodes = (
(356,348,o),
(318,320,o),
(293,320,qs),
(268,320,o),
(240,348,o),
(245,377,qs),
(251,408,o),
(289,436,o),
(314,436,qs),
(339,436,o),
(367,408,o),
(361,377,qs)
);
},
{
closed = 1;
nodes = (
(515,219,l),
(474,268,l),
(521,316,o),
(532,379,qs),
(544,446,o),
(512,491,q),
(571,541,l),
(506,622,l),
(421,550,l),
(382,561,o),
(336,561,qs),
(286,561,o),
(243,549,q),
(183,622,l),
(88,541,l),
(132,488,l),
(87,443,o),
(76,379,qs),
(65,316,o),
(93,271,q),
(32,219,l),
(97,138,l),
(178,207,l),
(220,193,o),
(271,193,qs),
(323,193,o),
(364,206,q),
(420,138,l)
);
}
);
userData = {
assembly = "NPUSHB[ ]	/* 54 values pushed */
33 32 30 26 24 23 6 0 3 38 37 19 18 16 5 2 1 2 76 31 25 2 3 74 39 17 2 2 73 0 1 0 2 1 2 101 0 0 0 3 97 0 3 3 31 0 78 44 36 36 33 4 8 26 
CALL[ ]	/* CallFunction */";
};
width = 603;
}
);
note = currency;
unicode = 164;
},
{
glyphname = yen;
lastChange = "2022-10-20 15:49:47 +0000";
layers = (
{
layerId = m01;
shapes = (
{
closed = 1;
nodes = (
(635,128,l),
(661,272,l),
(491,272,l),
(516,308,l),
(667,308,l),
(692,452,l),
(615,452,l),
(792,708,l),
(542,708,l),
(379,424,l),
(316,708,l),
(62,708,l),
(149,452,l),
(70,452,l),
(45,308,l),
(198,308,l),
(211,272,l),
(39,272,l),
(13,128,l),
(214,128,l),
(192,0,l),
(414,0,l),
(436,128,l)
);
}
);
userData = {
assembly = "NPUSHB[ ]	/* 54 values pushed */
12 1 3 4 1 76 7 1 4 8 1 3 2 4 3 104 9 1 2 10 1 1 0 2 1 103 6 1 5 5 28 77 0 0 0 29 0 78 22 21 20 19 17 17 18 17 17 17 17 17 16 11 8 31 
CALL[ ]	/* CallFunction */";
};
width = 730;
}
);
note = yen;
unicode = 165;
},
{
glyphname = brokenbar;
lastChange = "2022-10-20 15:49:47 +0000";
layers = (
{
layerId = m01;
shapes = (
{
closed = 1;
nodes = (
(95,287,l),
(19,-144,l),
(241,-144,l),
(317,287,l)
);
},
{
closed = 1;
nodes = (
(337,398,l),
(413,828,l),
(191,828,l),
(115,398,l)
);
}
);
userData = {
assembly = "NPUSHB[ ]	/* 31 values pushed */
0 2 0 3 1 2 3 103 0 1 0 0 1 87 0 1 1 0 95 0 0 1 0 79 17 17 17 16 4 8 26 
CALL[ ]	/* CallFunction */";
};
width = 432;
}
);
note = brokenbar;
unicode = 166;
},
{
glyphname = section;
lastChange = "2022-10-20 15:49:47 +0000";
layers = (
{
layerId = m01;
shapes = (
{
closed = 1;
nodes = (
(103,494,o),
(118,420,o),
(141,388,q),
(39,348,o),
(21,244,qs),
(11,189,o),
(69,97,o),
(131,62,qs),
(187,30,o),
(240,-5,o),
(263,-36,o),
(259,-55,qs),
(255,-79,o),
(239,-79,qs),
(217,-79,o),
(225,-25,q),
(6,-25,l),
(-3,-119,o),
(99,-235,o),
(207,-235,qs),
(323,-235,o),
(470,-130,o),
(485,-44,qs),
(500,37,o),
(453,101,q),
(510,127,o),
(567,197,o),
(575,244,qs),
(594,349,o),
(464,427,qs),
(408,458,o),
(354,493,o),
(332,524,o),
(336,543,qs),
(340,567,o),
(356,567,qs),
(378,567,o),
(370,513,q),
(589,513,l),
(598,607,o),
(496,723,o),
(388,723,qs),
(272,723,o),
(125,618,o),
(110,532,qs)
);
},
{
closed = 1;
nodes = (
(335,220,o),
(306,189,o),
(287,189,qs),
(269,189,o),
(254,220,o),
(258,244,qs),
(262,268,o),
(291,299,o),
(310,299,qs),
(329,299,o),
(343,268,o),
(339,244,qs)
);
}
);
userData = {
assembly = "NPUSHB[ ]	/* 10 values pushed */
41 1 6 1 19 1 4 7 2 76 
MPPEM[ ]	/* MeasurePixelPerEm */
PUSHB[ ]	/* 1 value pushed */
24 
LT[ ]	/* LessThan */
IF[ ]	/* If */
NPUSHB[ ]	/* 47 values pushed */
0 2 0 1 1 2 114 0 6 1 7 1 6 7 128 0 7 4 1 7 4 126 0 5 4 3 4 5 114 0 4 0 3 4 3 102 0 1 1 0 98 0 0 0 34 1 78 
ELSE[ ]	/* Else */
NPUSHB[ ]	/* 49 values pushed */
0 2 0 1 0 2 1 128 0 6 1 7 1 6 7 128 0 7 4 1 7 4 126 0 5 4 3 4 5 3 128 0 4 0 3 4 3 102 0 1 1 0 98 0 0 0 34 1 78 
EIF[ ]	/* EndIf */
NPUSHB[ ]	/* 11 values pushed */
36 47 33 18 46 33 18 33 8 8 30 
CALL[ ]	/* CallFunction */";
};
width = 595;
}
);
note = section;
unicode = 167;
},
{
glyphname = dieresis;
lastChange = "2022-10-20 15:49:47 +0000";
layers = (
{
layerId = m01;
shapes = (
{
closed = 1;
nodes = (
(117,620,o),
(175,669,o),
(182,705,qs),
(189,743,o),
(148,792,o),
(110,792,qs),
(74,792,o),
(16,742,o),
(10,705,qs),
(3,669,o),
(44,620,o),
(80,620,qs)
);
},
{
closed = 1;
nodes = (
(342,620,o),
(400,669,o),
(407,705,qs),
(414,743,o),
(373,792,o),
(335,792,qs),
(299,792,o),
(241,742,o),
(235,705,qs),
(228,669,o),
(269,620,o),
(305,620,qs)
);
}
);
userData = {
assembly = "PUSHB[ ]	/* 2 values pushed */
6 100 
WCVTP[ ]	/* WriteCVTInPixels */
NPUSHB[ ]	/* 39 values pushed */
2 1 0 1 1 0 89 2 1 0 0 1 97 5 3 4 3 1 0 1 81 12 12 0 0 12 23 12 22 18 16 0 11 0 10 36 6 8 23 
CALL[ ]	/* CallFunction */
PUSHB[ ]	/* 2 values pushed */
6 0 
WCVTP[ ]	/* WriteCVTInPixels */";
};
width = 417;
}
);
note = dieresis;
unicode = 168;
},
{
glyphname = copyright;
lastChange = "2022-10-20 15:49:47 +0000";
layers = (
{
layerId = m01;
shapes = (
{
closed = 1;
nodes = (
(12,253,o),
(72,87,o),
(218,-6,o),
(322,-6,qs),
(426,-6,o),
(603,87,o),
(722,252,o),
(741,358,qs),
(760,463,o),
(700,628,o),
(554,720,o),
(450,720,qs),
(346,720,o),
(168,628,o),
(49,463,o),
(30,358,qs)
);
},
{
closed = 1;
nodes = (
(656,269,o),
(563,133,o),
(420,59,o),
(333,59,qs),
(246,59,o),
(130,133,o),
(84,268,o),
(100,358,qs),
(116,448,o),
(209,582,o),
(351,655,o),
(439,655,qs),
(526,655,o),
(642,582,o),
(688,448,o),
(672,358,qs)
);
},
{
closed = 1;
nodes = (
(421,433,o),
(393,433,qs),
(371,433,o),
(342,395,o),
(335,357,qs),
(328,319,o),
(345,281,o),
(367,281,qs),
(395,281,o),
(411,316,q),
(595,316,l),
(568,234,o),
(433,136,o),
(351,136,qs),
(284,136,o),
(191,190,o),
(152,290,o),
(164,357,qs),
(176,424,o),
(249,524,o),
(362,578,o),
(429,578,qs),
(511,578,o),
(612,480,o),
(609,398,q),
(425,398,l)
);
}
);
userData = {
assembly = "PUSHB[ ]	/* 2 values pushed */
6 100 
WCVTP[ ]	/* WriteCVTInPixels */
MPPEM[ ]	/* MeasurePixelPerEm */
PUSHB[ ]	/* 1 value pushed */
17 
LT[ ]	/* LessThan */
IF[ ]	/* If */
NPUSHB[ ]	/* 55 values pushed */
0 4 2 8 2 4 114 0 5 7 3 3 5 114 0 0 0 2 4 0 2 105 10 1 9 0 6 7 9 6 103 0 8 0 7 5 8 7 105 0 3 1 1 3 89 0 3 3 1 98 0 1 3 1 82 
ELSE[ ]	/* Else */
NPUSHB[ ]	/* 57 values pushed */
0 4 2 8 2 4 8 128 0 5 7 3 7 5 3 128 0 0 0 2 4 0 2 105 10 1 9 0 6 7 9 6 103 0 8 0 7 5 8 7 105 0 3 1 1 3 89 0 3 3 1 98 0 1 3 1 82 
EIF[ ]	/* EndIf */
NPUSHB[ ]	/* 18 values pushed */
32 32 32 57 32 57 36 33 18 38 38 38 38 38 34 11 8 31 
CALL[ ]	/* CallFunction */
PUSHB[ ]	/* 2 values pushed */
6 0 
WCVTP[ ]	/* WriteCVTInPixels */";
};
width = 771;
}
);
note = copyright;
unicode = 169;
},
{
glyphname = ordfeminine;
lastChange = "2022-10-20 15:49:47 +0000";
layers = (
{
layerId = m01;
shapes = (
{
closed = 1;
nodes = (
(194,350,o),
(250,371,o),
(273,394,q),
(266,355,l),
(430,355,l),
(492,708,l),
(328,708,l),
(321,669,l),
(306,691,o),
(257,712,o),
(216,712,qs),
(144,712,o),
(35,616,o),
(20,530,qs),
(5,444,o),
(81,350,o),
(154,350,qs)
);
},
{
closed = 1;
nodes = (
(275,582,o),
(301,556,o),
(297,532,qs),
(293,508,o),
(257,481,o),
(234,481,qs),
(210,481,o),
(184,505,o),
(189,529,qs),
(193,554,o),
(229,582,o),
(252,582,qs)
);
}
);
userData = {
assembly = "MPPEM[ ]	/* MeasurePixelPerEm */
PUSHB[ ]	/* 1 value pushed */
10 
LT[ ]	/* LessThan */
IF[ ]	/* If */
NPUSHB[ ]	/* 10 values pushed */
8 1 5 1 13 1 2 4 2 76 
ELSE[ ]	/* Else */
MPPEM[ ]	/* MeasurePixelPerEm */
PUSHB[ ]	/* 1 value pushed */
11 
LT[ ]	/* LessThan */
IF[ ]	/* If */
NPUSHB[ ]	/* 10 values pushed */
8 1 5 0 13 1 2 4 2 76 
ELSE[ ]	/* Else */
NPUSHB[ ]	/* 10 values pushed */
8 1 5 1 13 1 2 4 2 76 
EIF[ ]	/* EndIf */
EIF[ ]	/* EndIf */
MPPEM[ ]	/* MeasurePixelPerEm */
PUSHB[ ]	/* 1 value pushed */
10 
LT[ ]	/* LessThan */
IF[ ]	/* If */
NPUSHB[ ]	/* 33 values pushed */
0 1 1 44 77 7 1 5 5 0 97 0 0 0 44 77 0 2 2 45 77 0 4 4 3 97 6 1 3 3 45 3 78 
ELSE[ ]	/* Else */
MPPEM[ ]	/* MeasurePixelPerEm */
PUSHB[ ]	/* 1 value pushed */
11 
LT[ ]	/* LessThan */
IF[ ]	/* If */
NPUSHB[ ]	/* 29 values pushed */
7 1 5 5 0 97 1 1 0 0 44 77 0 2 2 45 77 0 4 4 3 97 6 1 3 3 45 3 78 
ELSE[ ]	/* Else */
MPPEM[ ]	/* MeasurePixelPerEm */
PUSHB[ ]	/* 1 value pushed */
12 
LT[ ]	/* LessThan */
IF[ ]	/* If */
NPUSHB[ ]	/* 33 values pushed */
0 1 1 44 77 7 1 5 5 0 97 0 0 0 44 77 0 2 2 45 77 0 4 4 3 97 6 1 3 3 45 3 78 
ELSE[ ]	/* Else */
NPUSHB[ ]	/* 33 values pushed */
0 1 1 44 77 7 1 5 5 0 97 0 0 0 44 77 0 2 2 45 77 0 4 4 3 97 6 1 3 3 47 3 78 
EIF[ ]	/* EndIf */
EIF[ ]	/* EndIf */
EIF[ ]	/* EndIf */
NPUSHB[ ]	/* 20 values pushed */
17 17 0 0 17 28 17 27 23 21 0 16 0 15 17 19 36 8 9 25 
CALL[ ]	/* CallFunction */";
};
width = 481;
}
);
note = ordfeminine;
unicode = 170;
},
{
glyphname = guillemotleft;
lastChange = "2022-10-20 15:49:47 +0000";
layers = (
{
layerId = m01;
shapes = (
{
closed = 1;
nodes = (
(244,295,l),
(354,470,l),
(153,470,l),
(45,295,l),
(91,120,l),
(292,120,l)
);
},
{
closed = 1;
nodes = (
(346,120,l),
(547,120,l),
(499,295,l),
(609,470,l),
(408,470,l),
(300,295,l)
);
}
);
userData = {
assembly = "NPUSHB[ ]	/* 43 values pushed */
11 8 4 1 4 1 0 1 76 2 1 0 1 1 0 87 2 1 0 0 1 95 3 4 2 1 0 1 79 0 0 10 9 7 6 0 5 0 5 18 5 8 23 
CALL[ ]	/* CallFunction */";
};
width = 618;
}
);
note = guillemotleft;
unicode = 171;
},
